G75*
%MOIN*%
%OFA0B0*%
%FSLAX25Y25*%
%IPPOS*%
%LPD*%
%AMOC8*
5,1,8,0,0,1.08239X$1,22.5*
%
%ADD10C,0.00000*%
%ADD11C,0.06800*%
%ADD12C,0.02369*%
%ADD13C,0.09849*%
%ADD14C,0.03400*%
%ADD15R,0.07880X0.07487*%
%ADD16R,0.07880X0.07880*%
%ADD17R,0.06699X0.08668*%
%ADD18R,0.05715X0.01975*%
%ADD19R,0.05400X0.04900*%
%ADD20R,0.02800X0.02400*%
%ADD21C,0.06306*%
%ADD22R,0.03943X0.04337*%
%ADD23R,0.03500X0.04400*%
%ADD24R,0.03943X0.03550*%
%ADD25R,0.05912X0.04337*%
%ADD26R,0.02400X0.02800*%
%ADD27C,0.17900*%
%ADD28R,0.05000X0.01800*%
%ADD29R,0.02762X0.03156*%
%ADD30R,0.04337X0.03156*%
%ADD31R,0.04731X0.07880*%
%ADD32R,0.07440X0.09900*%
%ADD33R,0.03200X0.11400*%
%ADD34C,0.02000*%
%ADD35R,0.06693X0.06890*%
%ADD36R,0.01581X0.02565*%
%ADD37R,0.01581X0.02447*%
%ADD38C,0.00100*%
%ADD39C,0.06337*%
%ADD40C,0.13455*%
%ADD41R,0.04900X0.05400*%
%ADD42R,0.10243X0.08077*%
%ADD43R,0.02565X0.01581*%
%ADD44R,0.02447X0.01581*%
%ADD45R,0.03353X0.04731*%
%ADD46R,0.03746X0.04731*%
%ADD47R,0.03845X0.04731*%
%ADD48R,0.05124X0.04337*%
%ADD49R,0.07880X0.05715*%
%ADD50R,0.05006X0.07487*%
%ADD51R,0.06502X0.05715*%
%ADD52C,0.01365*%
%ADD53R,0.03156X0.05912*%
%ADD54C,0.02800*%
%ADD55C,0.03100*%
%ADD56C,0.03200*%
%ADD57C,0.05200*%
%ADD58C,0.04900*%
D10*
X0082495Y0063233D02*
X0082495Y0345433D01*
X0082498Y0345716D01*
X0082509Y0345998D01*
X0082526Y0346280D01*
X0082550Y0346562D01*
X0082580Y0346843D01*
X0082618Y0347124D01*
X0082662Y0347403D01*
X0082713Y0347681D01*
X0082771Y0347958D01*
X0082835Y0348233D01*
X0082906Y0348507D01*
X0082984Y0348779D01*
X0083068Y0349048D01*
X0083158Y0349316D01*
X0083255Y0349582D01*
X0083359Y0349845D01*
X0083469Y0350106D01*
X0083585Y0350363D01*
X0083707Y0350618D01*
X0083835Y0350870D01*
X0083970Y0351119D01*
X0084110Y0351364D01*
X0084256Y0351606D01*
X0084408Y0351845D01*
X0084566Y0352079D01*
X0084730Y0352310D01*
X0084898Y0352537D01*
X0085073Y0352759D01*
X0085253Y0352978D01*
X0085437Y0353192D01*
X0085627Y0353401D01*
X0085822Y0353606D01*
X0086022Y0353806D01*
X0086227Y0354001D01*
X0086436Y0354191D01*
X0086650Y0354375D01*
X0086869Y0354555D01*
X0087091Y0354730D01*
X0087318Y0354898D01*
X0087549Y0355062D01*
X0087783Y0355220D01*
X0088022Y0355372D01*
X0088264Y0355518D01*
X0088509Y0355658D01*
X0088758Y0355793D01*
X0089010Y0355921D01*
X0089265Y0356043D01*
X0089522Y0356159D01*
X0089783Y0356269D01*
X0090046Y0356373D01*
X0090312Y0356470D01*
X0090580Y0356560D01*
X0090849Y0356644D01*
X0091121Y0356722D01*
X0091395Y0356793D01*
X0091670Y0356857D01*
X0091947Y0356915D01*
X0092225Y0356966D01*
X0092504Y0357010D01*
X0092785Y0357048D01*
X0093066Y0357078D01*
X0093348Y0357102D01*
X0093630Y0357119D01*
X0093912Y0357130D01*
X0094195Y0357133D01*
X0316695Y0357133D01*
X0316985Y0357129D01*
X0317275Y0357119D01*
X0317564Y0357101D01*
X0317853Y0357077D01*
X0318141Y0357046D01*
X0318429Y0357007D01*
X0318715Y0356962D01*
X0319001Y0356909D01*
X0319284Y0356850D01*
X0319567Y0356784D01*
X0319847Y0356712D01*
X0320126Y0356632D01*
X0320403Y0356546D01*
X0320678Y0356453D01*
X0320950Y0356353D01*
X0321220Y0356247D01*
X0321487Y0356135D01*
X0321752Y0356015D01*
X0322013Y0355890D01*
X0322272Y0355758D01*
X0322527Y0355621D01*
X0322779Y0355477D01*
X0323027Y0355327D01*
X0323271Y0355171D01*
X0323512Y0355009D01*
X0323748Y0354841D01*
X0323981Y0354668D01*
X0324209Y0354489D01*
X0324433Y0354305D01*
X0324652Y0354115D01*
X0324867Y0353920D01*
X0325077Y0353720D01*
X0325282Y0353515D01*
X0325482Y0353305D01*
X0325677Y0353090D01*
X0325867Y0352871D01*
X0326051Y0352647D01*
X0326230Y0352419D01*
X0326403Y0352186D01*
X0326571Y0351950D01*
X0326733Y0351709D01*
X0326889Y0351465D01*
X0327039Y0351217D01*
X0327183Y0350965D01*
X0327320Y0350710D01*
X0327452Y0350451D01*
X0327577Y0350190D01*
X0327697Y0349925D01*
X0327809Y0349658D01*
X0327915Y0349388D01*
X0328015Y0349116D01*
X0328108Y0348841D01*
X0328194Y0348564D01*
X0328274Y0348285D01*
X0328346Y0348005D01*
X0328412Y0347722D01*
X0328471Y0347439D01*
X0328524Y0347153D01*
X0328569Y0346867D01*
X0328608Y0346579D01*
X0328639Y0346291D01*
X0328663Y0346002D01*
X0328681Y0345713D01*
X0328691Y0345423D01*
X0328695Y0345133D01*
X0328695Y0063233D01*
X0328691Y0062943D01*
X0328681Y0062653D01*
X0328663Y0062364D01*
X0328639Y0062075D01*
X0328608Y0061787D01*
X0328569Y0061499D01*
X0328524Y0061213D01*
X0328471Y0060927D01*
X0328412Y0060644D01*
X0328346Y0060361D01*
X0328274Y0060081D01*
X0328194Y0059802D01*
X0328108Y0059525D01*
X0328015Y0059250D01*
X0327915Y0058978D01*
X0327809Y0058708D01*
X0327697Y0058441D01*
X0327577Y0058176D01*
X0327452Y0057915D01*
X0327320Y0057656D01*
X0327183Y0057401D01*
X0327039Y0057149D01*
X0326889Y0056901D01*
X0326733Y0056657D01*
X0326571Y0056416D01*
X0326403Y0056180D01*
X0326230Y0055947D01*
X0326051Y0055719D01*
X0325867Y0055495D01*
X0325677Y0055276D01*
X0325482Y0055061D01*
X0325282Y0054851D01*
X0325077Y0054646D01*
X0324867Y0054446D01*
X0324652Y0054251D01*
X0324433Y0054061D01*
X0324209Y0053877D01*
X0323981Y0053698D01*
X0323748Y0053525D01*
X0323512Y0053357D01*
X0323271Y0053195D01*
X0323027Y0053039D01*
X0322779Y0052889D01*
X0322527Y0052745D01*
X0322272Y0052608D01*
X0322013Y0052476D01*
X0321752Y0052351D01*
X0321487Y0052231D01*
X0321220Y0052119D01*
X0320950Y0052013D01*
X0320678Y0051913D01*
X0320403Y0051820D01*
X0320126Y0051734D01*
X0319847Y0051654D01*
X0319567Y0051582D01*
X0319284Y0051516D01*
X0319001Y0051457D01*
X0318715Y0051404D01*
X0318429Y0051359D01*
X0318141Y0051320D01*
X0317853Y0051289D01*
X0317564Y0051265D01*
X0317275Y0051247D01*
X0316985Y0051237D01*
X0316695Y0051233D01*
X0094495Y0051233D01*
X0094205Y0051237D01*
X0093915Y0051247D01*
X0093626Y0051265D01*
X0093337Y0051289D01*
X0093049Y0051320D01*
X0092761Y0051359D01*
X0092475Y0051404D01*
X0092189Y0051457D01*
X0091906Y0051516D01*
X0091623Y0051582D01*
X0091343Y0051654D01*
X0091064Y0051734D01*
X0090787Y0051820D01*
X0090512Y0051913D01*
X0090240Y0052013D01*
X0089970Y0052119D01*
X0089703Y0052231D01*
X0089438Y0052351D01*
X0089177Y0052476D01*
X0088918Y0052608D01*
X0088663Y0052745D01*
X0088411Y0052889D01*
X0088163Y0053039D01*
X0087919Y0053195D01*
X0087678Y0053357D01*
X0087442Y0053525D01*
X0087209Y0053698D01*
X0086981Y0053877D01*
X0086757Y0054061D01*
X0086538Y0054251D01*
X0086323Y0054446D01*
X0086113Y0054646D01*
X0085908Y0054851D01*
X0085708Y0055061D01*
X0085513Y0055276D01*
X0085323Y0055495D01*
X0085139Y0055719D01*
X0084960Y0055947D01*
X0084787Y0056180D01*
X0084619Y0056416D01*
X0084457Y0056657D01*
X0084301Y0056901D01*
X0084151Y0057149D01*
X0084007Y0057401D01*
X0083870Y0057656D01*
X0083738Y0057915D01*
X0083613Y0058176D01*
X0083493Y0058441D01*
X0083381Y0058708D01*
X0083275Y0058978D01*
X0083175Y0059250D01*
X0083082Y0059525D01*
X0082996Y0059802D01*
X0082916Y0060081D01*
X0082844Y0060361D01*
X0082778Y0060644D01*
X0082719Y0060927D01*
X0082666Y0061213D01*
X0082621Y0061499D01*
X0082582Y0061787D01*
X0082551Y0062075D01*
X0082527Y0062364D01*
X0082509Y0062653D01*
X0082499Y0062943D01*
X0082495Y0063233D01*
X0270395Y0302833D02*
X0270397Y0302910D01*
X0270403Y0302987D01*
X0270413Y0303064D01*
X0270427Y0303140D01*
X0270444Y0303215D01*
X0270466Y0303289D01*
X0270491Y0303362D01*
X0270521Y0303434D01*
X0270553Y0303504D01*
X0270590Y0303572D01*
X0270629Y0303638D01*
X0270672Y0303702D01*
X0270719Y0303764D01*
X0270768Y0303823D01*
X0270821Y0303880D01*
X0270876Y0303934D01*
X0270934Y0303985D01*
X0270995Y0304033D01*
X0271058Y0304078D01*
X0271123Y0304119D01*
X0271190Y0304157D01*
X0271259Y0304192D01*
X0271330Y0304222D01*
X0271402Y0304250D01*
X0271476Y0304273D01*
X0271550Y0304293D01*
X0271626Y0304309D01*
X0271702Y0304321D01*
X0271779Y0304329D01*
X0271856Y0304333D01*
X0271934Y0304333D01*
X0272011Y0304329D01*
X0272088Y0304321D01*
X0272164Y0304309D01*
X0272240Y0304293D01*
X0272314Y0304273D01*
X0272388Y0304250D01*
X0272460Y0304222D01*
X0272531Y0304192D01*
X0272600Y0304157D01*
X0272667Y0304119D01*
X0272732Y0304078D01*
X0272795Y0304033D01*
X0272856Y0303985D01*
X0272914Y0303934D01*
X0272969Y0303880D01*
X0273022Y0303823D01*
X0273071Y0303764D01*
X0273118Y0303702D01*
X0273161Y0303638D01*
X0273200Y0303572D01*
X0273237Y0303504D01*
X0273269Y0303434D01*
X0273299Y0303362D01*
X0273324Y0303289D01*
X0273346Y0303215D01*
X0273363Y0303140D01*
X0273377Y0303064D01*
X0273387Y0302987D01*
X0273393Y0302910D01*
X0273395Y0302833D01*
X0273393Y0302756D01*
X0273387Y0302679D01*
X0273377Y0302602D01*
X0273363Y0302526D01*
X0273346Y0302451D01*
X0273324Y0302377D01*
X0273299Y0302304D01*
X0273269Y0302232D01*
X0273237Y0302162D01*
X0273200Y0302094D01*
X0273161Y0302028D01*
X0273118Y0301964D01*
X0273071Y0301902D01*
X0273022Y0301843D01*
X0272969Y0301786D01*
X0272914Y0301732D01*
X0272856Y0301681D01*
X0272795Y0301633D01*
X0272732Y0301588D01*
X0272667Y0301547D01*
X0272600Y0301509D01*
X0272531Y0301474D01*
X0272460Y0301444D01*
X0272388Y0301416D01*
X0272314Y0301393D01*
X0272240Y0301373D01*
X0272164Y0301357D01*
X0272088Y0301345D01*
X0272011Y0301337D01*
X0271934Y0301333D01*
X0271856Y0301333D01*
X0271779Y0301337D01*
X0271702Y0301345D01*
X0271626Y0301357D01*
X0271550Y0301373D01*
X0271476Y0301393D01*
X0271402Y0301416D01*
X0271330Y0301444D01*
X0271259Y0301474D01*
X0271190Y0301509D01*
X0271123Y0301547D01*
X0271058Y0301588D01*
X0270995Y0301633D01*
X0270934Y0301681D01*
X0270876Y0301732D01*
X0270821Y0301786D01*
X0270768Y0301843D01*
X0270719Y0301902D01*
X0270672Y0301964D01*
X0270629Y0302028D01*
X0270590Y0302094D01*
X0270553Y0302162D01*
X0270521Y0302232D01*
X0270491Y0302304D01*
X0270466Y0302377D01*
X0270444Y0302451D01*
X0270427Y0302526D01*
X0270413Y0302602D01*
X0270403Y0302679D01*
X0270397Y0302756D01*
X0270395Y0302833D01*
X0278395Y0302933D02*
X0278397Y0303010D01*
X0278403Y0303087D01*
X0278413Y0303164D01*
X0278427Y0303240D01*
X0278444Y0303315D01*
X0278466Y0303389D01*
X0278491Y0303462D01*
X0278521Y0303534D01*
X0278553Y0303604D01*
X0278590Y0303672D01*
X0278629Y0303738D01*
X0278672Y0303802D01*
X0278719Y0303864D01*
X0278768Y0303923D01*
X0278821Y0303980D01*
X0278876Y0304034D01*
X0278934Y0304085D01*
X0278995Y0304133D01*
X0279058Y0304178D01*
X0279123Y0304219D01*
X0279190Y0304257D01*
X0279259Y0304292D01*
X0279330Y0304322D01*
X0279402Y0304350D01*
X0279476Y0304373D01*
X0279550Y0304393D01*
X0279626Y0304409D01*
X0279702Y0304421D01*
X0279779Y0304429D01*
X0279856Y0304433D01*
X0279934Y0304433D01*
X0280011Y0304429D01*
X0280088Y0304421D01*
X0280164Y0304409D01*
X0280240Y0304393D01*
X0280314Y0304373D01*
X0280388Y0304350D01*
X0280460Y0304322D01*
X0280531Y0304292D01*
X0280600Y0304257D01*
X0280667Y0304219D01*
X0280732Y0304178D01*
X0280795Y0304133D01*
X0280856Y0304085D01*
X0280914Y0304034D01*
X0280969Y0303980D01*
X0281022Y0303923D01*
X0281071Y0303864D01*
X0281118Y0303802D01*
X0281161Y0303738D01*
X0281200Y0303672D01*
X0281237Y0303604D01*
X0281269Y0303534D01*
X0281299Y0303462D01*
X0281324Y0303389D01*
X0281346Y0303315D01*
X0281363Y0303240D01*
X0281377Y0303164D01*
X0281387Y0303087D01*
X0281393Y0303010D01*
X0281395Y0302933D01*
X0281393Y0302856D01*
X0281387Y0302779D01*
X0281377Y0302702D01*
X0281363Y0302626D01*
X0281346Y0302551D01*
X0281324Y0302477D01*
X0281299Y0302404D01*
X0281269Y0302332D01*
X0281237Y0302262D01*
X0281200Y0302194D01*
X0281161Y0302128D01*
X0281118Y0302064D01*
X0281071Y0302002D01*
X0281022Y0301943D01*
X0280969Y0301886D01*
X0280914Y0301832D01*
X0280856Y0301781D01*
X0280795Y0301733D01*
X0280732Y0301688D01*
X0280667Y0301647D01*
X0280600Y0301609D01*
X0280531Y0301574D01*
X0280460Y0301544D01*
X0280388Y0301516D01*
X0280314Y0301493D01*
X0280240Y0301473D01*
X0280164Y0301457D01*
X0280088Y0301445D01*
X0280011Y0301437D01*
X0279934Y0301433D01*
X0279856Y0301433D01*
X0279779Y0301437D01*
X0279702Y0301445D01*
X0279626Y0301457D01*
X0279550Y0301473D01*
X0279476Y0301493D01*
X0279402Y0301516D01*
X0279330Y0301544D01*
X0279259Y0301574D01*
X0279190Y0301609D01*
X0279123Y0301647D01*
X0279058Y0301688D01*
X0278995Y0301733D01*
X0278934Y0301781D01*
X0278876Y0301832D01*
X0278821Y0301886D01*
X0278768Y0301943D01*
X0278719Y0302002D01*
X0278672Y0302064D01*
X0278629Y0302128D01*
X0278590Y0302194D01*
X0278553Y0302262D01*
X0278521Y0302332D01*
X0278491Y0302404D01*
X0278466Y0302477D01*
X0278444Y0302551D01*
X0278427Y0302626D01*
X0278413Y0302702D01*
X0278403Y0302779D01*
X0278397Y0302856D01*
X0278395Y0302933D01*
X0255795Y0310933D02*
X0255797Y0311010D01*
X0255803Y0311087D01*
X0255813Y0311164D01*
X0255827Y0311240D01*
X0255844Y0311315D01*
X0255866Y0311389D01*
X0255891Y0311462D01*
X0255921Y0311534D01*
X0255953Y0311604D01*
X0255990Y0311672D01*
X0256029Y0311738D01*
X0256072Y0311802D01*
X0256119Y0311864D01*
X0256168Y0311923D01*
X0256221Y0311980D01*
X0256276Y0312034D01*
X0256334Y0312085D01*
X0256395Y0312133D01*
X0256458Y0312178D01*
X0256523Y0312219D01*
X0256590Y0312257D01*
X0256659Y0312292D01*
X0256730Y0312322D01*
X0256802Y0312350D01*
X0256876Y0312373D01*
X0256950Y0312393D01*
X0257026Y0312409D01*
X0257102Y0312421D01*
X0257179Y0312429D01*
X0257256Y0312433D01*
X0257334Y0312433D01*
X0257411Y0312429D01*
X0257488Y0312421D01*
X0257564Y0312409D01*
X0257640Y0312393D01*
X0257714Y0312373D01*
X0257788Y0312350D01*
X0257860Y0312322D01*
X0257931Y0312292D01*
X0258000Y0312257D01*
X0258067Y0312219D01*
X0258132Y0312178D01*
X0258195Y0312133D01*
X0258256Y0312085D01*
X0258314Y0312034D01*
X0258369Y0311980D01*
X0258422Y0311923D01*
X0258471Y0311864D01*
X0258518Y0311802D01*
X0258561Y0311738D01*
X0258600Y0311672D01*
X0258637Y0311604D01*
X0258669Y0311534D01*
X0258699Y0311462D01*
X0258724Y0311389D01*
X0258746Y0311315D01*
X0258763Y0311240D01*
X0258777Y0311164D01*
X0258787Y0311087D01*
X0258793Y0311010D01*
X0258795Y0310933D01*
X0258793Y0310856D01*
X0258787Y0310779D01*
X0258777Y0310702D01*
X0258763Y0310626D01*
X0258746Y0310551D01*
X0258724Y0310477D01*
X0258699Y0310404D01*
X0258669Y0310332D01*
X0258637Y0310262D01*
X0258600Y0310194D01*
X0258561Y0310128D01*
X0258518Y0310064D01*
X0258471Y0310002D01*
X0258422Y0309943D01*
X0258369Y0309886D01*
X0258314Y0309832D01*
X0258256Y0309781D01*
X0258195Y0309733D01*
X0258132Y0309688D01*
X0258067Y0309647D01*
X0258000Y0309609D01*
X0257931Y0309574D01*
X0257860Y0309544D01*
X0257788Y0309516D01*
X0257714Y0309493D01*
X0257640Y0309473D01*
X0257564Y0309457D01*
X0257488Y0309445D01*
X0257411Y0309437D01*
X0257334Y0309433D01*
X0257256Y0309433D01*
X0257179Y0309437D01*
X0257102Y0309445D01*
X0257026Y0309457D01*
X0256950Y0309473D01*
X0256876Y0309493D01*
X0256802Y0309516D01*
X0256730Y0309544D01*
X0256659Y0309574D01*
X0256590Y0309609D01*
X0256523Y0309647D01*
X0256458Y0309688D01*
X0256395Y0309733D01*
X0256334Y0309781D01*
X0256276Y0309832D01*
X0256221Y0309886D01*
X0256168Y0309943D01*
X0256119Y0310002D01*
X0256072Y0310064D01*
X0256029Y0310128D01*
X0255990Y0310194D01*
X0255953Y0310262D01*
X0255921Y0310332D01*
X0255891Y0310404D01*
X0255866Y0310477D01*
X0255844Y0310551D01*
X0255827Y0310626D01*
X0255813Y0310702D01*
X0255803Y0310779D01*
X0255797Y0310856D01*
X0255795Y0310933D01*
X0255795Y0318833D02*
X0255797Y0318910D01*
X0255803Y0318987D01*
X0255813Y0319064D01*
X0255827Y0319140D01*
X0255844Y0319215D01*
X0255866Y0319289D01*
X0255891Y0319362D01*
X0255921Y0319434D01*
X0255953Y0319504D01*
X0255990Y0319572D01*
X0256029Y0319638D01*
X0256072Y0319702D01*
X0256119Y0319764D01*
X0256168Y0319823D01*
X0256221Y0319880D01*
X0256276Y0319934D01*
X0256334Y0319985D01*
X0256395Y0320033D01*
X0256458Y0320078D01*
X0256523Y0320119D01*
X0256590Y0320157D01*
X0256659Y0320192D01*
X0256730Y0320222D01*
X0256802Y0320250D01*
X0256876Y0320273D01*
X0256950Y0320293D01*
X0257026Y0320309D01*
X0257102Y0320321D01*
X0257179Y0320329D01*
X0257256Y0320333D01*
X0257334Y0320333D01*
X0257411Y0320329D01*
X0257488Y0320321D01*
X0257564Y0320309D01*
X0257640Y0320293D01*
X0257714Y0320273D01*
X0257788Y0320250D01*
X0257860Y0320222D01*
X0257931Y0320192D01*
X0258000Y0320157D01*
X0258067Y0320119D01*
X0258132Y0320078D01*
X0258195Y0320033D01*
X0258256Y0319985D01*
X0258314Y0319934D01*
X0258369Y0319880D01*
X0258422Y0319823D01*
X0258471Y0319764D01*
X0258518Y0319702D01*
X0258561Y0319638D01*
X0258600Y0319572D01*
X0258637Y0319504D01*
X0258669Y0319434D01*
X0258699Y0319362D01*
X0258724Y0319289D01*
X0258746Y0319215D01*
X0258763Y0319140D01*
X0258777Y0319064D01*
X0258787Y0318987D01*
X0258793Y0318910D01*
X0258795Y0318833D01*
X0258793Y0318756D01*
X0258787Y0318679D01*
X0258777Y0318602D01*
X0258763Y0318526D01*
X0258746Y0318451D01*
X0258724Y0318377D01*
X0258699Y0318304D01*
X0258669Y0318232D01*
X0258637Y0318162D01*
X0258600Y0318094D01*
X0258561Y0318028D01*
X0258518Y0317964D01*
X0258471Y0317902D01*
X0258422Y0317843D01*
X0258369Y0317786D01*
X0258314Y0317732D01*
X0258256Y0317681D01*
X0258195Y0317633D01*
X0258132Y0317588D01*
X0258067Y0317547D01*
X0258000Y0317509D01*
X0257931Y0317474D01*
X0257860Y0317444D01*
X0257788Y0317416D01*
X0257714Y0317393D01*
X0257640Y0317373D01*
X0257564Y0317357D01*
X0257488Y0317345D01*
X0257411Y0317337D01*
X0257334Y0317333D01*
X0257256Y0317333D01*
X0257179Y0317337D01*
X0257102Y0317345D01*
X0257026Y0317357D01*
X0256950Y0317373D01*
X0256876Y0317393D01*
X0256802Y0317416D01*
X0256730Y0317444D01*
X0256659Y0317474D01*
X0256590Y0317509D01*
X0256523Y0317547D01*
X0256458Y0317588D01*
X0256395Y0317633D01*
X0256334Y0317681D01*
X0256276Y0317732D01*
X0256221Y0317786D01*
X0256168Y0317843D01*
X0256119Y0317902D01*
X0256072Y0317964D01*
X0256029Y0318028D01*
X0255990Y0318094D01*
X0255953Y0318162D01*
X0255921Y0318232D01*
X0255891Y0318304D01*
X0255866Y0318377D01*
X0255844Y0318451D01*
X0255827Y0318526D01*
X0255813Y0318602D01*
X0255803Y0318679D01*
X0255797Y0318756D01*
X0255795Y0318833D01*
X0270395Y0326533D02*
X0270397Y0326610D01*
X0270403Y0326687D01*
X0270413Y0326764D01*
X0270427Y0326840D01*
X0270444Y0326915D01*
X0270466Y0326989D01*
X0270491Y0327062D01*
X0270521Y0327134D01*
X0270553Y0327204D01*
X0270590Y0327272D01*
X0270629Y0327338D01*
X0270672Y0327402D01*
X0270719Y0327464D01*
X0270768Y0327523D01*
X0270821Y0327580D01*
X0270876Y0327634D01*
X0270934Y0327685D01*
X0270995Y0327733D01*
X0271058Y0327778D01*
X0271123Y0327819D01*
X0271190Y0327857D01*
X0271259Y0327892D01*
X0271330Y0327922D01*
X0271402Y0327950D01*
X0271476Y0327973D01*
X0271550Y0327993D01*
X0271626Y0328009D01*
X0271702Y0328021D01*
X0271779Y0328029D01*
X0271856Y0328033D01*
X0271934Y0328033D01*
X0272011Y0328029D01*
X0272088Y0328021D01*
X0272164Y0328009D01*
X0272240Y0327993D01*
X0272314Y0327973D01*
X0272388Y0327950D01*
X0272460Y0327922D01*
X0272531Y0327892D01*
X0272600Y0327857D01*
X0272667Y0327819D01*
X0272732Y0327778D01*
X0272795Y0327733D01*
X0272856Y0327685D01*
X0272914Y0327634D01*
X0272969Y0327580D01*
X0273022Y0327523D01*
X0273071Y0327464D01*
X0273118Y0327402D01*
X0273161Y0327338D01*
X0273200Y0327272D01*
X0273237Y0327204D01*
X0273269Y0327134D01*
X0273299Y0327062D01*
X0273324Y0326989D01*
X0273346Y0326915D01*
X0273363Y0326840D01*
X0273377Y0326764D01*
X0273387Y0326687D01*
X0273393Y0326610D01*
X0273395Y0326533D01*
X0273393Y0326456D01*
X0273387Y0326379D01*
X0273377Y0326302D01*
X0273363Y0326226D01*
X0273346Y0326151D01*
X0273324Y0326077D01*
X0273299Y0326004D01*
X0273269Y0325932D01*
X0273237Y0325862D01*
X0273200Y0325794D01*
X0273161Y0325728D01*
X0273118Y0325664D01*
X0273071Y0325602D01*
X0273022Y0325543D01*
X0272969Y0325486D01*
X0272914Y0325432D01*
X0272856Y0325381D01*
X0272795Y0325333D01*
X0272732Y0325288D01*
X0272667Y0325247D01*
X0272600Y0325209D01*
X0272531Y0325174D01*
X0272460Y0325144D01*
X0272388Y0325116D01*
X0272314Y0325093D01*
X0272240Y0325073D01*
X0272164Y0325057D01*
X0272088Y0325045D01*
X0272011Y0325037D01*
X0271934Y0325033D01*
X0271856Y0325033D01*
X0271779Y0325037D01*
X0271702Y0325045D01*
X0271626Y0325057D01*
X0271550Y0325073D01*
X0271476Y0325093D01*
X0271402Y0325116D01*
X0271330Y0325144D01*
X0271259Y0325174D01*
X0271190Y0325209D01*
X0271123Y0325247D01*
X0271058Y0325288D01*
X0270995Y0325333D01*
X0270934Y0325381D01*
X0270876Y0325432D01*
X0270821Y0325486D01*
X0270768Y0325543D01*
X0270719Y0325602D01*
X0270672Y0325664D01*
X0270629Y0325728D01*
X0270590Y0325794D01*
X0270553Y0325862D01*
X0270521Y0325932D01*
X0270491Y0326004D01*
X0270466Y0326077D01*
X0270444Y0326151D01*
X0270427Y0326226D01*
X0270413Y0326302D01*
X0270403Y0326379D01*
X0270397Y0326456D01*
X0270395Y0326533D01*
X0278295Y0326433D02*
X0278297Y0326510D01*
X0278303Y0326587D01*
X0278313Y0326664D01*
X0278327Y0326740D01*
X0278344Y0326815D01*
X0278366Y0326889D01*
X0278391Y0326962D01*
X0278421Y0327034D01*
X0278453Y0327104D01*
X0278490Y0327172D01*
X0278529Y0327238D01*
X0278572Y0327302D01*
X0278619Y0327364D01*
X0278668Y0327423D01*
X0278721Y0327480D01*
X0278776Y0327534D01*
X0278834Y0327585D01*
X0278895Y0327633D01*
X0278958Y0327678D01*
X0279023Y0327719D01*
X0279090Y0327757D01*
X0279159Y0327792D01*
X0279230Y0327822D01*
X0279302Y0327850D01*
X0279376Y0327873D01*
X0279450Y0327893D01*
X0279526Y0327909D01*
X0279602Y0327921D01*
X0279679Y0327929D01*
X0279756Y0327933D01*
X0279834Y0327933D01*
X0279911Y0327929D01*
X0279988Y0327921D01*
X0280064Y0327909D01*
X0280140Y0327893D01*
X0280214Y0327873D01*
X0280288Y0327850D01*
X0280360Y0327822D01*
X0280431Y0327792D01*
X0280500Y0327757D01*
X0280567Y0327719D01*
X0280632Y0327678D01*
X0280695Y0327633D01*
X0280756Y0327585D01*
X0280814Y0327534D01*
X0280869Y0327480D01*
X0280922Y0327423D01*
X0280971Y0327364D01*
X0281018Y0327302D01*
X0281061Y0327238D01*
X0281100Y0327172D01*
X0281137Y0327104D01*
X0281169Y0327034D01*
X0281199Y0326962D01*
X0281224Y0326889D01*
X0281246Y0326815D01*
X0281263Y0326740D01*
X0281277Y0326664D01*
X0281287Y0326587D01*
X0281293Y0326510D01*
X0281295Y0326433D01*
X0281293Y0326356D01*
X0281287Y0326279D01*
X0281277Y0326202D01*
X0281263Y0326126D01*
X0281246Y0326051D01*
X0281224Y0325977D01*
X0281199Y0325904D01*
X0281169Y0325832D01*
X0281137Y0325762D01*
X0281100Y0325694D01*
X0281061Y0325628D01*
X0281018Y0325564D01*
X0280971Y0325502D01*
X0280922Y0325443D01*
X0280869Y0325386D01*
X0280814Y0325332D01*
X0280756Y0325281D01*
X0280695Y0325233D01*
X0280632Y0325188D01*
X0280567Y0325147D01*
X0280500Y0325109D01*
X0280431Y0325074D01*
X0280360Y0325044D01*
X0280288Y0325016D01*
X0280214Y0324993D01*
X0280140Y0324973D01*
X0280064Y0324957D01*
X0279988Y0324945D01*
X0279911Y0324937D01*
X0279834Y0324933D01*
X0279756Y0324933D01*
X0279679Y0324937D01*
X0279602Y0324945D01*
X0279526Y0324957D01*
X0279450Y0324973D01*
X0279376Y0324993D01*
X0279302Y0325016D01*
X0279230Y0325044D01*
X0279159Y0325074D01*
X0279090Y0325109D01*
X0279023Y0325147D01*
X0278958Y0325188D01*
X0278895Y0325233D01*
X0278834Y0325281D01*
X0278776Y0325332D01*
X0278721Y0325386D01*
X0278668Y0325443D01*
X0278619Y0325502D01*
X0278572Y0325564D01*
X0278529Y0325628D01*
X0278490Y0325694D01*
X0278453Y0325762D01*
X0278421Y0325832D01*
X0278391Y0325904D01*
X0278366Y0325977D01*
X0278344Y0326051D01*
X0278327Y0326126D01*
X0278313Y0326202D01*
X0278303Y0326279D01*
X0278297Y0326356D01*
X0278295Y0326433D01*
D11*
X0183295Y0327933D03*
X0183395Y0337833D03*
X0173295Y0337933D03*
X0163295Y0337933D03*
X0153295Y0337933D03*
X0143295Y0337933D03*
X0143295Y0327933D03*
X0153295Y0327933D03*
X0163295Y0327933D03*
X0173295Y0327933D03*
X0149495Y0297933D03*
X0139495Y0297933D03*
X0119995Y0279733D03*
X0109995Y0279733D03*
X0109995Y0261233D03*
X0119995Y0261233D03*
X0129995Y0261233D03*
X0139995Y0261233D03*
X0139995Y0242233D03*
X0129995Y0242233D03*
X0119995Y0242233D03*
X0109995Y0242233D03*
X0149995Y0242233D03*
X0159995Y0242233D03*
X0139695Y0169333D03*
X0129695Y0169333D03*
X0119695Y0169333D03*
X0109695Y0169333D03*
X0125495Y0138333D03*
X0125495Y0128333D03*
X0135495Y0128333D03*
X0135495Y0138333D03*
X0145495Y0138333D03*
X0145495Y0128333D03*
X0155495Y0128333D03*
X0155495Y0138333D03*
X0165495Y0138333D03*
X0165495Y0128333D03*
X0175495Y0128333D03*
X0175495Y0138333D03*
X0185495Y0138233D03*
X0185495Y0128333D03*
X0297895Y0150833D03*
X0297895Y0160833D03*
X0307895Y0160833D03*
X0307895Y0150833D03*
X0307895Y0170833D03*
X0297895Y0170833D03*
D12*
X0274195Y0170833D03*
X0274195Y0175833D03*
X0274195Y0180833D03*
X0269195Y0180833D03*
X0264195Y0180833D03*
X0264195Y0175833D03*
X0264195Y0170833D03*
X0269195Y0170833D03*
X0269195Y0175833D03*
X0259195Y0175833D03*
X0254195Y0175833D03*
X0249195Y0175833D03*
X0249195Y0170833D03*
X0254195Y0170833D03*
X0259195Y0170833D03*
X0259195Y0165833D03*
X0254195Y0165833D03*
X0249195Y0165833D03*
X0244195Y0165833D03*
X0239195Y0165833D03*
X0234195Y0165833D03*
X0229195Y0165833D03*
X0224195Y0165833D03*
X0219195Y0165833D03*
X0214195Y0165833D03*
X0209195Y0165833D03*
X0204195Y0165833D03*
X0199195Y0165833D03*
X0194195Y0165833D03*
X0189195Y0165833D03*
X0184195Y0165833D03*
X0179195Y0165833D03*
X0179195Y0170833D03*
X0179195Y0175833D03*
X0179195Y0180833D03*
X0184195Y0180833D03*
X0184195Y0175833D03*
X0184195Y0170833D03*
X0189195Y0170833D03*
X0189195Y0175833D03*
X0189195Y0180833D03*
X0194195Y0180833D03*
X0194195Y0175833D03*
X0194195Y0170833D03*
X0199195Y0170833D03*
X0199195Y0175833D03*
X0199195Y0180833D03*
X0199195Y0185833D03*
X0194195Y0185833D03*
X0189195Y0185833D03*
X0189195Y0190833D03*
X0189195Y0195833D03*
X0194195Y0195833D03*
X0194195Y0190833D03*
X0199195Y0190833D03*
X0199195Y0195833D03*
X0199195Y0200833D03*
X0194195Y0200833D03*
X0189195Y0200833D03*
X0189195Y0205833D03*
X0189195Y0210833D03*
X0194195Y0210833D03*
X0194195Y0205833D03*
X0199195Y0205833D03*
X0199195Y0210833D03*
X0199195Y0215833D03*
X0194195Y0215833D03*
X0189195Y0215833D03*
X0189195Y0220833D03*
X0189195Y0225833D03*
X0194195Y0225833D03*
X0194195Y0220833D03*
X0199195Y0220833D03*
X0199195Y0225833D03*
X0199195Y0230833D03*
X0194195Y0230833D03*
X0189195Y0230833D03*
X0189195Y0235833D03*
X0189195Y0240833D03*
X0194195Y0240833D03*
X0194195Y0235833D03*
X0199195Y0235833D03*
X0199195Y0240833D03*
X0199195Y0245833D03*
X0194195Y0245833D03*
X0189195Y0245833D03*
X0189195Y0250833D03*
X0189195Y0255833D03*
X0194195Y0255833D03*
X0194195Y0250833D03*
X0199195Y0250833D03*
X0199195Y0255833D03*
X0199195Y0260833D03*
X0194195Y0260833D03*
X0189195Y0260833D03*
X0184195Y0260833D03*
X0179195Y0260833D03*
X0179195Y0255833D03*
X0179195Y0250833D03*
X0179195Y0245833D03*
X0184195Y0245833D03*
X0184195Y0250833D03*
X0184195Y0255833D03*
X0184195Y0240833D03*
X0179195Y0240833D03*
X0179195Y0235833D03*
X0179195Y0230833D03*
X0184195Y0230833D03*
X0184195Y0235833D03*
X0184195Y0225833D03*
X0179195Y0225833D03*
X0179195Y0220833D03*
X0179195Y0215833D03*
X0184195Y0215833D03*
X0184195Y0220833D03*
X0184195Y0210833D03*
X0179195Y0210833D03*
X0179195Y0205833D03*
X0179195Y0200833D03*
X0184195Y0200833D03*
X0184195Y0205833D03*
X0184195Y0195833D03*
X0179195Y0195833D03*
X0179195Y0190833D03*
X0179195Y0185833D03*
X0184195Y0185833D03*
X0184195Y0190833D03*
X0204195Y0190833D03*
X0204195Y0185833D03*
X0209195Y0185833D03*
X0209195Y0190833D03*
X0209195Y0195833D03*
X0204195Y0195833D03*
X0204195Y0200833D03*
X0204195Y0205833D03*
X0204195Y0210833D03*
X0209195Y0210833D03*
X0209195Y0205833D03*
X0209195Y0200833D03*
X0214195Y0200833D03*
X0214195Y0205833D03*
X0214195Y0210833D03*
X0219195Y0210833D03*
X0219195Y0205833D03*
X0219195Y0200833D03*
X0219195Y0195833D03*
X0214195Y0195833D03*
X0214195Y0190833D03*
X0214195Y0185833D03*
X0219195Y0185833D03*
X0219195Y0190833D03*
X0224195Y0190833D03*
X0224195Y0185833D03*
X0229195Y0185833D03*
X0229195Y0190833D03*
X0229195Y0195833D03*
X0224195Y0195833D03*
X0224195Y0200833D03*
X0224195Y0205833D03*
X0224195Y0210833D03*
X0229195Y0210833D03*
X0229195Y0205833D03*
X0229195Y0200833D03*
X0234195Y0200833D03*
X0234195Y0205833D03*
X0234195Y0210833D03*
X0234195Y0215833D03*
X0229195Y0215833D03*
X0224195Y0215833D03*
X0224195Y0220833D03*
X0224195Y0225833D03*
X0229195Y0225833D03*
X0229195Y0220833D03*
X0234195Y0220833D03*
X0234195Y0225833D03*
X0234195Y0230833D03*
X0229195Y0230833D03*
X0224195Y0230833D03*
X0224195Y0235833D03*
X0224195Y0240833D03*
X0229195Y0240833D03*
X0229195Y0235833D03*
X0234195Y0235833D03*
X0234195Y0240833D03*
X0234195Y0245833D03*
X0229195Y0245833D03*
X0224195Y0245833D03*
X0224195Y0250833D03*
X0224195Y0255833D03*
X0229195Y0255833D03*
X0229195Y0250833D03*
X0234195Y0250833D03*
X0234195Y0255833D03*
X0234195Y0260833D03*
X0229195Y0260833D03*
X0224195Y0260833D03*
X0219195Y0260833D03*
X0214195Y0260833D03*
X0209195Y0260833D03*
X0204195Y0260833D03*
X0204195Y0255833D03*
X0204195Y0250833D03*
X0204195Y0245833D03*
X0209195Y0245833D03*
X0209195Y0250833D03*
X0209195Y0255833D03*
X0214195Y0255833D03*
X0214195Y0250833D03*
X0214195Y0245833D03*
X0219195Y0245833D03*
X0219195Y0250833D03*
X0219195Y0255833D03*
X0219195Y0240833D03*
X0214195Y0240833D03*
X0214195Y0235833D03*
X0214195Y0230833D03*
X0219195Y0230833D03*
X0219195Y0235833D03*
X0209195Y0235833D03*
X0204195Y0235833D03*
X0204195Y0230833D03*
X0209195Y0230833D03*
X0209195Y0225833D03*
X0204195Y0225833D03*
X0204195Y0220833D03*
X0204195Y0215833D03*
X0209195Y0215833D03*
X0209195Y0220833D03*
X0214195Y0220833D03*
X0214195Y0215833D03*
X0219195Y0215833D03*
X0219195Y0220833D03*
X0219195Y0225833D03*
X0214195Y0225833D03*
X0209195Y0240833D03*
X0204195Y0240833D03*
X0239195Y0240833D03*
X0239195Y0235833D03*
X0239195Y0230833D03*
X0244195Y0230833D03*
X0244195Y0235833D03*
X0244195Y0240833D03*
X0244195Y0245833D03*
X0239195Y0245833D03*
X0239195Y0250833D03*
X0239195Y0255833D03*
X0244195Y0255833D03*
X0244195Y0250833D03*
X0249195Y0250833D03*
X0249195Y0245833D03*
X0254195Y0245833D03*
X0254195Y0250833D03*
X0254195Y0255833D03*
X0249195Y0255833D03*
X0249195Y0260833D03*
X0254195Y0260833D03*
X0259195Y0260833D03*
X0259195Y0255833D03*
X0259195Y0250833D03*
X0259195Y0245833D03*
X0259195Y0240833D03*
X0254195Y0240833D03*
X0249195Y0240833D03*
X0249195Y0235833D03*
X0249195Y0230833D03*
X0254195Y0230833D03*
X0254195Y0235833D03*
X0259195Y0235833D03*
X0259195Y0230833D03*
X0259195Y0225833D03*
X0254195Y0225833D03*
X0249195Y0225833D03*
X0249195Y0220833D03*
X0249195Y0215833D03*
X0254195Y0215833D03*
X0254195Y0220833D03*
X0259195Y0220833D03*
X0259195Y0215833D03*
X0259195Y0210833D03*
X0254195Y0210833D03*
X0249195Y0210833D03*
X0249195Y0205833D03*
X0249195Y0200833D03*
X0254195Y0200833D03*
X0254195Y0205833D03*
X0259195Y0205833D03*
X0259195Y0200833D03*
X0259195Y0195833D03*
X0254195Y0195833D03*
X0249195Y0195833D03*
X0249195Y0190833D03*
X0249195Y0185833D03*
X0254195Y0185833D03*
X0254195Y0190833D03*
X0259195Y0190833D03*
X0259195Y0185833D03*
X0259195Y0180833D03*
X0254195Y0180833D03*
X0249195Y0180833D03*
X0244195Y0180833D03*
X0239195Y0180833D03*
X0239195Y0175833D03*
X0239195Y0170833D03*
X0244195Y0170833D03*
X0244195Y0175833D03*
X0234195Y0175833D03*
X0229195Y0175833D03*
X0224195Y0175833D03*
X0224195Y0170833D03*
X0229195Y0170833D03*
X0234195Y0170833D03*
X0234195Y0180833D03*
X0229195Y0180833D03*
X0224195Y0180833D03*
X0219195Y0180833D03*
X0214195Y0180833D03*
X0214195Y0175833D03*
X0214195Y0170833D03*
X0219195Y0170833D03*
X0219195Y0175833D03*
X0209195Y0175833D03*
X0204195Y0175833D03*
X0204195Y0170833D03*
X0209195Y0170833D03*
X0209195Y0180833D03*
X0204195Y0180833D03*
X0234195Y0185833D03*
X0234195Y0190833D03*
X0234195Y0195833D03*
X0239195Y0195833D03*
X0239195Y0190833D03*
X0239195Y0185833D03*
X0244195Y0185833D03*
X0244195Y0190833D03*
X0244195Y0195833D03*
X0244195Y0200833D03*
X0239195Y0200833D03*
X0239195Y0205833D03*
X0239195Y0210833D03*
X0244195Y0210833D03*
X0244195Y0205833D03*
X0244195Y0215833D03*
X0239195Y0215833D03*
X0239195Y0220833D03*
X0239195Y0225833D03*
X0244195Y0225833D03*
X0244195Y0220833D03*
X0264195Y0220833D03*
X0264195Y0215833D03*
X0269195Y0215833D03*
X0269195Y0220833D03*
X0269195Y0225833D03*
X0264195Y0225833D03*
X0264195Y0230833D03*
X0264195Y0235833D03*
X0264195Y0240833D03*
X0269195Y0240833D03*
X0269195Y0235833D03*
X0269195Y0230833D03*
X0274195Y0230833D03*
X0274195Y0235833D03*
X0274195Y0240833D03*
X0274195Y0245833D03*
X0274195Y0250833D03*
X0274195Y0255833D03*
X0269195Y0255833D03*
X0264195Y0255833D03*
X0264195Y0250833D03*
X0264195Y0245833D03*
X0269195Y0245833D03*
X0269195Y0250833D03*
X0269195Y0260833D03*
X0264195Y0260833D03*
X0274195Y0260833D03*
X0244195Y0260833D03*
X0239195Y0260833D03*
X0274195Y0225833D03*
X0274195Y0220833D03*
X0274195Y0215833D03*
X0274195Y0210833D03*
X0274195Y0205833D03*
X0274195Y0200833D03*
X0269195Y0200833D03*
X0264195Y0200833D03*
X0264195Y0205833D03*
X0264195Y0210833D03*
X0269195Y0210833D03*
X0269195Y0205833D03*
X0269195Y0195833D03*
X0264195Y0195833D03*
X0264195Y0190833D03*
X0264195Y0185833D03*
X0269195Y0185833D03*
X0269195Y0190833D03*
X0274195Y0190833D03*
X0274195Y0185833D03*
X0274195Y0195833D03*
X0274195Y0165833D03*
X0269195Y0165833D03*
X0264195Y0165833D03*
D13*
X0270971Y0302811D02*
X0280420Y0302811D01*
X0280420Y0326433D02*
X0270971Y0326433D01*
X0257191Y0319346D02*
X0257191Y0309898D01*
D14*
X0257295Y0310933D03*
X0257295Y0318833D03*
X0271895Y0326533D03*
X0279795Y0326433D03*
X0279895Y0302933D03*
X0271895Y0302833D03*
D15*
X0322995Y0294494D03*
X0322995Y0264572D03*
D16*
X0322995Y0274809D03*
X0322995Y0284257D03*
D17*
X0312956Y0291738D03*
X0312956Y0267328D03*
D18*
X0312464Y0274415D03*
X0312464Y0276974D03*
X0312464Y0279533D03*
X0312464Y0282092D03*
X0312464Y0284651D03*
D19*
X0301195Y0268533D03*
X0301195Y0261533D03*
X0317795Y0321033D03*
X0317795Y0328033D03*
D20*
X0310295Y0304833D03*
X0305895Y0304833D03*
X0298195Y0255033D03*
X0293795Y0255033D03*
X0304395Y0246933D03*
X0308795Y0246933D03*
X0308995Y0238933D03*
X0304595Y0238933D03*
X0304595Y0230933D03*
X0308995Y0230933D03*
X0308895Y0222933D03*
X0304495Y0222933D03*
X0236395Y0270333D03*
X0231995Y0270333D03*
X0231395Y0275333D03*
X0226995Y0275333D03*
X0226395Y0270333D03*
X0221995Y0270333D03*
X0216395Y0270333D03*
X0211995Y0270333D03*
X0211395Y0275833D03*
X0206995Y0275833D03*
X0206395Y0270333D03*
X0201995Y0270333D03*
X0161095Y0308533D03*
X0156695Y0308533D03*
X0154495Y0286033D03*
X0154495Y0280833D03*
X0150095Y0280833D03*
X0150095Y0286033D03*
X0123595Y0293733D03*
X0119195Y0293733D03*
X0111095Y0293733D03*
X0106695Y0293733D03*
X0110295Y0229633D03*
X0114695Y0229633D03*
X0123195Y0225533D03*
X0127595Y0225533D03*
X0135295Y0225633D03*
X0139695Y0225633D03*
X0164495Y0204333D03*
X0168895Y0204333D03*
X0168895Y0198333D03*
X0168895Y0192333D03*
X0164495Y0192333D03*
X0164495Y0198333D03*
X0164495Y0185833D03*
X0168895Y0185833D03*
X0168895Y0178333D03*
X0164495Y0178333D03*
X0153295Y0184733D03*
X0148895Y0184733D03*
X0123895Y0184733D03*
X0119495Y0184733D03*
X0107495Y0116733D03*
X0107495Y0112733D03*
X0107495Y0108733D03*
X0107495Y0104733D03*
X0107495Y0100733D03*
X0107495Y0096733D03*
X0107495Y0092733D03*
X0103095Y0092733D03*
X0103095Y0096733D03*
X0103095Y0100733D03*
X0103095Y0104733D03*
X0103095Y0108733D03*
X0103095Y0112733D03*
X0103095Y0116733D03*
X0103195Y0081933D03*
X0107595Y0081933D03*
X0183195Y0075933D03*
X0183195Y0071933D03*
X0187595Y0071933D03*
X0187595Y0075933D03*
X0187795Y0086833D03*
X0187795Y0090833D03*
X0187795Y0094833D03*
X0187795Y0098833D03*
X0187795Y0102833D03*
X0187795Y0106833D03*
X0183395Y0106833D03*
X0183395Y0102833D03*
X0183395Y0098833D03*
X0183395Y0094833D03*
X0183395Y0090833D03*
X0183395Y0086833D03*
X0276395Y0116233D03*
X0280795Y0116233D03*
X0287995Y0111833D03*
X0292395Y0111833D03*
X0297995Y0111833D03*
X0302395Y0111833D03*
D21*
X0189195Y0277333D03*
X0179195Y0277333D03*
X0169195Y0277333D03*
X0169195Y0289833D03*
X0179195Y0289833D03*
X0189195Y0289833D03*
D22*
X0195924Y0306483D03*
X0195924Y0312783D03*
X0212066Y0312783D03*
X0212066Y0306483D03*
X0212066Y0329683D03*
X0212066Y0335983D03*
X0195924Y0335983D03*
X0195924Y0329683D03*
X0130966Y0329683D03*
X0130966Y0335983D03*
X0114824Y0335983D03*
X0114824Y0329683D03*
X0114824Y0312783D03*
X0114824Y0306483D03*
X0130966Y0306483D03*
X0130966Y0312783D03*
D23*
X0145845Y0308533D03*
X0152345Y0308533D03*
X0292645Y0246933D03*
X0299145Y0246933D03*
X0299145Y0238933D03*
X0292645Y0238933D03*
X0292645Y0230933D03*
X0299145Y0230933D03*
X0299145Y0222933D03*
X0292645Y0222933D03*
X0304945Y0310233D03*
X0311445Y0310233D03*
D24*
X0302732Y0196073D03*
X0302732Y0188593D03*
X0294464Y0192333D03*
D25*
X0303126Y0202593D03*
X0303126Y0210073D03*
X0294464Y0206333D03*
D26*
X0310295Y0206633D03*
X0310295Y0211033D03*
X0310295Y0201533D03*
X0310295Y0197133D03*
X0310295Y0192033D03*
X0310295Y0187633D03*
X0278695Y0156033D03*
X0274695Y0156033D03*
X0270695Y0156033D03*
X0266695Y0156033D03*
X0266695Y0151633D03*
X0270695Y0151633D03*
X0274695Y0151633D03*
X0278695Y0151633D03*
X0262695Y0151633D03*
X0258695Y0151633D03*
X0254695Y0151633D03*
X0250695Y0151633D03*
X0246695Y0151633D03*
X0242695Y0151633D03*
X0238695Y0151633D03*
X0238695Y0156033D03*
X0242695Y0156033D03*
X0246695Y0156033D03*
X0250695Y0156033D03*
X0254695Y0156033D03*
X0258695Y0156033D03*
X0262695Y0156033D03*
X0235495Y0130433D03*
X0235495Y0126033D03*
X0230495Y0126033D03*
X0230495Y0130433D03*
X0225495Y0130433D03*
X0225495Y0126033D03*
X0220495Y0125933D03*
X0220495Y0130333D03*
X0215495Y0130333D03*
X0215495Y0125933D03*
X0210495Y0125933D03*
X0210495Y0130333D03*
X0205495Y0130333D03*
X0205495Y0125933D03*
X0200495Y0125933D03*
X0200495Y0130333D03*
X0195495Y0130333D03*
X0195495Y0125933D03*
X0218695Y0151633D03*
X0222695Y0151633D03*
X0226695Y0151633D03*
X0230695Y0151633D03*
X0234695Y0151633D03*
X0234695Y0156033D03*
X0230695Y0156033D03*
X0226695Y0156033D03*
X0222695Y0156033D03*
X0218695Y0156033D03*
X0227095Y0307033D03*
X0227095Y0311433D03*
X0233795Y0311433D03*
X0233795Y0307033D03*
D27*
X0316695Y0345133D03*
X0094495Y0345133D03*
X0094495Y0063233D03*
X0316695Y0063233D03*
D28*
X0234195Y0332574D03*
X0234195Y0335133D03*
X0234195Y0337692D03*
X0225995Y0337692D03*
X0225995Y0332574D03*
D29*
X0226355Y0326570D03*
X0233835Y0326570D03*
X0233835Y0318696D03*
D30*
X0227142Y0318696D03*
D31*
X0214116Y0283333D03*
X0204274Y0283333D03*
D32*
X0221715Y0285333D03*
X0236675Y0285333D03*
D33*
X0149495Y0215683D03*
X0144495Y0215683D03*
X0139495Y0215683D03*
X0134495Y0215683D03*
X0129495Y0215683D03*
X0124495Y0215683D03*
X0119495Y0215683D03*
X0114495Y0215683D03*
X0109495Y0215683D03*
X0104495Y0215683D03*
X0104495Y0194383D03*
X0109495Y0194383D03*
X0114495Y0194383D03*
X0119495Y0194383D03*
X0124495Y0194383D03*
X0129495Y0194383D03*
X0134495Y0194383D03*
X0139495Y0194383D03*
X0144495Y0194383D03*
X0149495Y0194383D03*
D34*
X0283445Y0127073D02*
X0287845Y0127073D01*
X0287845Y0124513D02*
X0283445Y0124513D01*
X0283445Y0121953D02*
X0287845Y0121953D01*
X0287895Y0119393D02*
X0283495Y0119393D01*
X0301695Y0119393D02*
X0306095Y0119393D01*
X0306145Y0121953D02*
X0301745Y0121953D01*
X0301745Y0124513D02*
X0306145Y0124513D01*
X0306145Y0127073D02*
X0301745Y0127073D01*
D35*
X0294795Y0123233D03*
D36*
X0276627Y0109335D03*
D37*
X0278595Y0109276D03*
X0280564Y0109276D03*
X0280564Y0112190D03*
X0278595Y0112190D03*
X0276627Y0112190D03*
D38*
X0277493Y0112212D02*
X0275760Y0112212D01*
X0275760Y0112310D02*
X0277493Y0112310D01*
X0277493Y0112409D02*
X0275760Y0112409D01*
X0275760Y0112507D02*
X0277493Y0112507D01*
X0277493Y0112606D02*
X0275760Y0112606D01*
X0275760Y0112704D02*
X0277493Y0112704D01*
X0277493Y0112803D02*
X0275760Y0112803D01*
X0275760Y0112901D02*
X0277493Y0112901D01*
X0277493Y0113000D02*
X0275760Y0113000D01*
X0275760Y0113098D02*
X0277493Y0113098D01*
X0277493Y0113197D02*
X0275760Y0113197D01*
X0275760Y0113295D02*
X0277493Y0113295D01*
X0277493Y0113394D02*
X0275760Y0113394D01*
X0275760Y0113489D02*
X0275760Y0110891D01*
X0277493Y0110891D01*
X0277493Y0113489D01*
X0275760Y0113489D01*
X0275760Y0112113D02*
X0277493Y0112113D01*
X0277493Y0112015D02*
X0275760Y0112015D01*
X0275760Y0111916D02*
X0277493Y0111916D01*
X0277493Y0111818D02*
X0275760Y0111818D01*
X0275760Y0111719D02*
X0277493Y0111719D01*
X0277493Y0111621D02*
X0275760Y0111621D01*
X0275760Y0111522D02*
X0277493Y0111522D01*
X0277493Y0111423D02*
X0275760Y0111423D01*
X0275760Y0111325D02*
X0277493Y0111325D01*
X0277493Y0111226D02*
X0275760Y0111226D01*
X0275760Y0111128D02*
X0277493Y0111128D01*
X0277493Y0111029D02*
X0275760Y0111029D01*
X0275760Y0110931D02*
X0277493Y0110931D01*
X0277729Y0110931D02*
X0279461Y0110931D01*
X0279461Y0110891D02*
X0279461Y0113489D01*
X0277729Y0113489D01*
X0277729Y0110891D01*
X0279461Y0110891D01*
X0279461Y0111029D02*
X0277729Y0111029D01*
X0277729Y0111128D02*
X0279461Y0111128D01*
X0279461Y0111226D02*
X0277729Y0111226D01*
X0277729Y0111325D02*
X0279461Y0111325D01*
X0279461Y0111423D02*
X0277729Y0111423D01*
X0277729Y0111522D02*
X0279461Y0111522D01*
X0279461Y0111621D02*
X0277729Y0111621D01*
X0277729Y0111719D02*
X0279461Y0111719D01*
X0279461Y0111818D02*
X0277729Y0111818D01*
X0277729Y0111916D02*
X0279461Y0111916D01*
X0279461Y0112015D02*
X0277729Y0112015D01*
X0277729Y0112113D02*
X0279461Y0112113D01*
X0279461Y0112212D02*
X0277729Y0112212D01*
X0277729Y0112310D02*
X0279461Y0112310D01*
X0279461Y0112409D02*
X0277729Y0112409D01*
X0277729Y0112507D02*
X0279461Y0112507D01*
X0279461Y0112606D02*
X0277729Y0112606D01*
X0277729Y0112704D02*
X0279461Y0112704D01*
X0279461Y0112803D02*
X0277729Y0112803D01*
X0277729Y0112901D02*
X0279461Y0112901D01*
X0279461Y0113000D02*
X0277729Y0113000D01*
X0277729Y0113098D02*
X0279461Y0113098D01*
X0279461Y0113197D02*
X0277729Y0113197D01*
X0277729Y0113295D02*
X0279461Y0113295D01*
X0279461Y0113394D02*
X0277729Y0113394D01*
X0279698Y0113394D02*
X0281430Y0113394D01*
X0281430Y0113489D02*
X0279698Y0113489D01*
X0279698Y0110891D01*
X0281430Y0110891D01*
X0281430Y0113489D01*
X0281430Y0113295D02*
X0279698Y0113295D01*
X0279698Y0113197D02*
X0281430Y0113197D01*
X0281430Y0113098D02*
X0279698Y0113098D01*
X0279698Y0113000D02*
X0281430Y0113000D01*
X0281430Y0112901D02*
X0279698Y0112901D01*
X0279698Y0112803D02*
X0281430Y0112803D01*
X0281430Y0112704D02*
X0279698Y0112704D01*
X0279698Y0112606D02*
X0281430Y0112606D01*
X0281430Y0112507D02*
X0279698Y0112507D01*
X0279698Y0112409D02*
X0281430Y0112409D01*
X0281430Y0112310D02*
X0279698Y0112310D01*
X0279698Y0112212D02*
X0281430Y0112212D01*
X0281430Y0112113D02*
X0279698Y0112113D01*
X0279698Y0112015D02*
X0281430Y0112015D01*
X0281430Y0111916D02*
X0279698Y0111916D01*
X0279698Y0111818D02*
X0281430Y0111818D01*
X0281430Y0111719D02*
X0279698Y0111719D01*
X0279698Y0111621D02*
X0281430Y0111621D01*
X0281430Y0111522D02*
X0279698Y0111522D01*
X0279698Y0111423D02*
X0281430Y0111423D01*
X0281430Y0111325D02*
X0279698Y0111325D01*
X0279698Y0111226D02*
X0281430Y0111226D01*
X0281430Y0111128D02*
X0279698Y0111128D01*
X0279698Y0111029D02*
X0281430Y0111029D01*
X0281430Y0110931D02*
X0279698Y0110931D01*
X0279698Y0110576D02*
X0279698Y0107977D01*
X0281430Y0107977D01*
X0281430Y0110576D01*
X0279698Y0110576D01*
X0279698Y0110537D02*
X0281430Y0110537D01*
X0281430Y0110438D02*
X0279698Y0110438D01*
X0279698Y0110340D02*
X0281430Y0110340D01*
X0281430Y0110241D02*
X0279698Y0110241D01*
X0279698Y0110143D02*
X0281430Y0110143D01*
X0281430Y0110044D02*
X0279698Y0110044D01*
X0279698Y0109946D02*
X0281430Y0109946D01*
X0281430Y0109847D02*
X0279698Y0109847D01*
X0279698Y0109749D02*
X0281430Y0109749D01*
X0281430Y0109650D02*
X0279698Y0109650D01*
X0279698Y0109552D02*
X0281430Y0109552D01*
X0281430Y0109453D02*
X0279698Y0109453D01*
X0279698Y0109355D02*
X0281430Y0109355D01*
X0281430Y0109256D02*
X0279698Y0109256D01*
X0279698Y0109158D02*
X0281430Y0109158D01*
X0281430Y0109059D02*
X0279698Y0109059D01*
X0279698Y0108961D02*
X0281430Y0108961D01*
X0281430Y0108862D02*
X0279698Y0108862D01*
X0279698Y0108764D02*
X0281430Y0108764D01*
X0281430Y0108665D02*
X0279698Y0108665D01*
X0279698Y0108567D02*
X0281430Y0108567D01*
X0281430Y0108468D02*
X0279698Y0108468D01*
X0279698Y0108370D02*
X0281430Y0108370D01*
X0281430Y0108271D02*
X0279698Y0108271D01*
X0279698Y0108173D02*
X0281430Y0108173D01*
X0281430Y0108074D02*
X0279698Y0108074D01*
X0279461Y0108074D02*
X0277729Y0108074D01*
X0277729Y0107977D02*
X0277729Y0110576D01*
X0279461Y0110576D01*
X0279461Y0107977D01*
X0277729Y0107977D01*
X0277729Y0108173D02*
X0279461Y0108173D01*
X0279461Y0108271D02*
X0277729Y0108271D01*
X0277729Y0108370D02*
X0279461Y0108370D01*
X0279461Y0108468D02*
X0277729Y0108468D01*
X0277729Y0108567D02*
X0279461Y0108567D01*
X0279461Y0108665D02*
X0277729Y0108665D01*
X0277729Y0108764D02*
X0279461Y0108764D01*
X0279461Y0108862D02*
X0277729Y0108862D01*
X0277729Y0108961D02*
X0279461Y0108961D01*
X0279461Y0109059D02*
X0277729Y0109059D01*
X0277729Y0109158D02*
X0279461Y0109158D01*
X0279461Y0109256D02*
X0277729Y0109256D01*
X0277729Y0109355D02*
X0279461Y0109355D01*
X0279461Y0109453D02*
X0277729Y0109453D01*
X0277729Y0109552D02*
X0279461Y0109552D01*
X0279461Y0109650D02*
X0277729Y0109650D01*
X0277729Y0109749D02*
X0279461Y0109749D01*
X0279461Y0109847D02*
X0277729Y0109847D01*
X0277729Y0109946D02*
X0279461Y0109946D01*
X0279461Y0110044D02*
X0277729Y0110044D01*
X0277729Y0110143D02*
X0279461Y0110143D01*
X0279461Y0110241D02*
X0277729Y0110241D01*
X0277729Y0110340D02*
X0279461Y0110340D01*
X0279461Y0110438D02*
X0277729Y0110438D01*
X0277729Y0110537D02*
X0279461Y0110537D01*
X0277493Y0110537D02*
X0275760Y0110537D01*
X0275760Y0110576D02*
X0275760Y0107977D01*
X0277493Y0107977D01*
X0277493Y0110576D01*
X0275760Y0110576D01*
X0275760Y0110438D02*
X0277493Y0110438D01*
X0277493Y0110340D02*
X0275760Y0110340D01*
X0275760Y0110241D02*
X0277493Y0110241D01*
X0277493Y0110143D02*
X0275760Y0110143D01*
X0275760Y0110044D02*
X0277493Y0110044D01*
X0277493Y0109946D02*
X0275760Y0109946D01*
X0275760Y0109847D02*
X0277493Y0109847D01*
X0277493Y0109749D02*
X0275760Y0109749D01*
X0275760Y0109650D02*
X0277493Y0109650D01*
X0277493Y0109552D02*
X0275760Y0109552D01*
X0275760Y0109453D02*
X0277493Y0109453D01*
X0277493Y0109355D02*
X0275760Y0109355D01*
X0275760Y0109256D02*
X0277493Y0109256D01*
X0277493Y0109158D02*
X0275760Y0109158D01*
X0275760Y0109059D02*
X0277493Y0109059D01*
X0277493Y0108961D02*
X0275760Y0108961D01*
X0275760Y0108862D02*
X0277493Y0108862D01*
X0277493Y0108764D02*
X0275760Y0108764D01*
X0275760Y0108665D02*
X0277493Y0108665D01*
X0277493Y0108567D02*
X0275760Y0108567D01*
X0275760Y0108468D02*
X0277493Y0108468D01*
X0277493Y0108370D02*
X0275760Y0108370D01*
X0275760Y0108271D02*
X0277493Y0108271D01*
X0277493Y0108173D02*
X0275760Y0108173D01*
X0275760Y0108074D02*
X0277493Y0108074D01*
X0299039Y0276398D02*
X0301638Y0276398D01*
X0301638Y0278131D01*
X0299039Y0278131D01*
X0299039Y0276398D01*
X0299039Y0276430D02*
X0301638Y0276430D01*
X0301638Y0276528D02*
X0299039Y0276528D01*
X0299039Y0276627D02*
X0301638Y0276627D01*
X0301638Y0276725D02*
X0299039Y0276725D01*
X0299039Y0276824D02*
X0301638Y0276824D01*
X0301638Y0276923D02*
X0299039Y0276923D01*
X0299039Y0277021D02*
X0301638Y0277021D01*
X0301638Y0277120D02*
X0299039Y0277120D01*
X0299039Y0277218D02*
X0301638Y0277218D01*
X0301638Y0277317D02*
X0299039Y0277317D01*
X0299039Y0277415D02*
X0301638Y0277415D01*
X0301638Y0277514D02*
X0299039Y0277514D01*
X0299039Y0277612D02*
X0301638Y0277612D01*
X0301638Y0277711D02*
X0299039Y0277711D01*
X0299039Y0277809D02*
X0301638Y0277809D01*
X0301638Y0277908D02*
X0299039Y0277908D01*
X0299039Y0278006D02*
X0301638Y0278006D01*
X0301638Y0278105D02*
X0299039Y0278105D01*
X0299039Y0278367D02*
X0301638Y0278367D01*
X0301638Y0280099D01*
X0299039Y0280099D01*
X0299039Y0278367D01*
X0299039Y0278400D02*
X0301638Y0278400D01*
X0301638Y0278499D02*
X0299039Y0278499D01*
X0299039Y0278597D02*
X0301638Y0278597D01*
X0301638Y0278696D02*
X0299039Y0278696D01*
X0299039Y0278794D02*
X0301638Y0278794D01*
X0301638Y0278893D02*
X0299039Y0278893D01*
X0299039Y0278991D02*
X0301638Y0278991D01*
X0301638Y0279090D02*
X0299039Y0279090D01*
X0299039Y0279188D02*
X0301638Y0279188D01*
X0301638Y0279287D02*
X0299039Y0279287D01*
X0299039Y0279385D02*
X0301638Y0279385D01*
X0301638Y0279484D02*
X0299039Y0279484D01*
X0299039Y0279582D02*
X0301638Y0279582D01*
X0301638Y0279681D02*
X0299039Y0279681D01*
X0299039Y0279779D02*
X0301638Y0279779D01*
X0301638Y0279878D02*
X0299039Y0279878D01*
X0299039Y0279976D02*
X0301638Y0279976D01*
X0301638Y0280075D02*
X0299039Y0280075D01*
X0299039Y0280335D02*
X0301638Y0280335D01*
X0301638Y0282068D01*
X0299039Y0282068D01*
X0299039Y0280335D01*
X0299039Y0280370D02*
X0301638Y0280370D01*
X0301638Y0280469D02*
X0299039Y0280469D01*
X0299039Y0280567D02*
X0301638Y0280567D01*
X0301638Y0280666D02*
X0299039Y0280666D01*
X0299039Y0280764D02*
X0301638Y0280764D01*
X0301638Y0280863D02*
X0299039Y0280863D01*
X0299039Y0280961D02*
X0301638Y0280961D01*
X0301638Y0281060D02*
X0299039Y0281060D01*
X0299039Y0281158D02*
X0301638Y0281158D01*
X0301638Y0281257D02*
X0299039Y0281257D01*
X0299039Y0281356D02*
X0301638Y0281356D01*
X0301638Y0281454D02*
X0299039Y0281454D01*
X0299039Y0281553D02*
X0301638Y0281553D01*
X0301638Y0281651D02*
X0299039Y0281651D01*
X0299039Y0281750D02*
X0301638Y0281750D01*
X0301638Y0281848D02*
X0299039Y0281848D01*
X0299039Y0281947D02*
X0301638Y0281947D01*
X0301638Y0282045D02*
X0299039Y0282045D01*
X0301953Y0282045D02*
X0304551Y0282045D01*
X0304551Y0282068D02*
X0301953Y0282068D01*
X0301953Y0280335D01*
X0304551Y0280335D01*
X0304551Y0282068D01*
X0304551Y0281947D02*
X0301953Y0281947D01*
X0301953Y0281848D02*
X0304551Y0281848D01*
X0304551Y0281750D02*
X0301953Y0281750D01*
X0301953Y0281651D02*
X0304551Y0281651D01*
X0304551Y0281553D02*
X0301953Y0281553D01*
X0301953Y0281454D02*
X0304551Y0281454D01*
X0304551Y0281356D02*
X0301953Y0281356D01*
X0301953Y0281257D02*
X0304551Y0281257D01*
X0304551Y0281158D02*
X0301953Y0281158D01*
X0301953Y0281060D02*
X0304551Y0281060D01*
X0304551Y0280961D02*
X0301953Y0280961D01*
X0301953Y0280863D02*
X0304551Y0280863D01*
X0304551Y0280764D02*
X0301953Y0280764D01*
X0301953Y0280666D02*
X0304551Y0280666D01*
X0304551Y0280567D02*
X0301953Y0280567D01*
X0301953Y0280469D02*
X0304551Y0280469D01*
X0304551Y0280370D02*
X0301953Y0280370D01*
X0301953Y0280099D02*
X0301953Y0278367D01*
X0304551Y0278367D01*
X0304551Y0280099D01*
X0301953Y0280099D01*
X0301953Y0280075D02*
X0304551Y0280075D01*
X0304551Y0279976D02*
X0301953Y0279976D01*
X0301953Y0279878D02*
X0304551Y0279878D01*
X0304551Y0279779D02*
X0301953Y0279779D01*
X0301953Y0279681D02*
X0304551Y0279681D01*
X0304551Y0279582D02*
X0301953Y0279582D01*
X0301953Y0279484D02*
X0304551Y0279484D01*
X0304551Y0279385D02*
X0301953Y0279385D01*
X0301953Y0279287D02*
X0304551Y0279287D01*
X0304551Y0279188D02*
X0301953Y0279188D01*
X0301953Y0279090D02*
X0304551Y0279090D01*
X0304551Y0278991D02*
X0301953Y0278991D01*
X0301953Y0278893D02*
X0304551Y0278893D01*
X0304551Y0278794D02*
X0301953Y0278794D01*
X0301953Y0278696D02*
X0304551Y0278696D01*
X0304551Y0278597D02*
X0301953Y0278597D01*
X0301953Y0278499D02*
X0304551Y0278499D01*
X0304551Y0278400D02*
X0301953Y0278400D01*
X0301953Y0278131D02*
X0301953Y0276398D01*
X0304551Y0276398D01*
X0304551Y0278131D01*
X0301953Y0278131D01*
X0301953Y0278105D02*
X0304551Y0278105D01*
X0304551Y0278006D02*
X0301953Y0278006D01*
X0301953Y0277908D02*
X0304551Y0277908D01*
X0304551Y0277809D02*
X0301953Y0277809D01*
X0301953Y0277711D02*
X0304551Y0277711D01*
X0304551Y0277612D02*
X0301953Y0277612D01*
X0301953Y0277514D02*
X0304551Y0277514D01*
X0304551Y0277415D02*
X0301953Y0277415D01*
X0301953Y0277317D02*
X0304551Y0277317D01*
X0304551Y0277218D02*
X0301953Y0277218D01*
X0301953Y0277120D02*
X0304551Y0277120D01*
X0304551Y0277021D02*
X0301953Y0277021D01*
X0301953Y0276923D02*
X0304551Y0276923D01*
X0304551Y0276824D02*
X0301953Y0276824D01*
X0301953Y0276725D02*
X0304551Y0276725D01*
X0304551Y0276627D02*
X0301953Y0276627D01*
X0301953Y0276528D02*
X0304551Y0276528D01*
X0304551Y0276430D02*
X0301953Y0276430D01*
D39*
X0291375Y0102075D03*
X0281532Y0102075D03*
X0273658Y0102075D03*
X0263816Y0102075D03*
D40*
X0251729Y0091405D03*
X0303461Y0091405D03*
D41*
X0270595Y0116233D03*
X0263595Y0116233D03*
X0263595Y0125433D03*
X0270595Y0125433D03*
X0188895Y0081433D03*
X0181895Y0081433D03*
X0108795Y0087433D03*
X0101795Y0087433D03*
D42*
X0313995Y0110429D03*
X0313995Y0122437D03*
D43*
X0303193Y0277265D03*
D44*
X0303252Y0279233D03*
X0303252Y0281202D03*
X0300338Y0281202D03*
X0300338Y0279233D03*
X0300338Y0277265D03*
D45*
X0127301Y0067361D03*
D46*
X0131435Y0067361D03*
X0135766Y0067361D03*
X0140097Y0067361D03*
X0144427Y0067361D03*
X0148758Y0067361D03*
X0157420Y0067361D03*
D47*
X0153089Y0067361D03*
D48*
X0167794Y0091573D03*
X0167794Y0106140D03*
D49*
X0154014Y0109979D03*
X0130510Y0109979D03*
D50*
X0122538Y0068739D03*
D51*
X0167105Y0067853D03*
D52*
X0203500Y0083038D03*
X0203500Y0085006D03*
X0205468Y0085006D03*
X0205468Y0083038D03*
X0207437Y0083038D03*
X0207437Y0085006D03*
X0209405Y0085006D03*
X0209405Y0083038D03*
X0211374Y0083038D03*
X0211374Y0085006D03*
X0213342Y0085006D03*
X0213342Y0083038D03*
X0215311Y0083038D03*
X0215311Y0085006D03*
X0217279Y0085006D03*
X0217279Y0083038D03*
X0219248Y0083038D03*
X0219248Y0085006D03*
X0221216Y0085006D03*
X0221216Y0083038D03*
X0223185Y0083038D03*
X0223185Y0085006D03*
X0225153Y0085006D03*
X0225153Y0083038D03*
X0227122Y0083038D03*
X0227122Y0085006D03*
X0229090Y0085006D03*
X0229090Y0083038D03*
X0229090Y0086975D03*
X0227122Y0086975D03*
X0227122Y0088943D03*
X0229090Y0088943D03*
X0229090Y0090912D03*
X0227122Y0090912D03*
X0227122Y0092880D03*
X0229090Y0092880D03*
X0229090Y0094849D03*
X0227122Y0094849D03*
X0227122Y0096817D03*
X0229090Y0096817D03*
X0229090Y0098786D03*
X0227122Y0098786D03*
X0227122Y0100754D03*
X0229090Y0100754D03*
X0229090Y0102723D03*
X0227122Y0102723D03*
X0227122Y0104691D03*
X0229090Y0104691D03*
X0229090Y0106660D03*
X0227122Y0106660D03*
X0227122Y0108628D03*
X0229090Y0108628D03*
X0225153Y0108628D03*
X0223185Y0108628D03*
X0223185Y0106660D03*
X0225153Y0106660D03*
X0225153Y0104691D03*
X0223185Y0104691D03*
X0221216Y0104691D03*
X0219248Y0104691D03*
X0217279Y0104691D03*
X0215311Y0104691D03*
X0213342Y0104691D03*
X0211374Y0104691D03*
X0209405Y0104691D03*
X0207437Y0104691D03*
X0207437Y0102723D03*
X0209405Y0102723D03*
X0207437Y0100754D03*
X0207437Y0098786D03*
X0205468Y0098786D03*
X0203500Y0098786D03*
X0203500Y0100754D03*
X0205468Y0100754D03*
X0205468Y0102723D03*
X0203500Y0102723D03*
X0203500Y0104691D03*
X0205468Y0104691D03*
X0205468Y0106660D03*
X0203500Y0106660D03*
X0203500Y0108628D03*
X0205468Y0108628D03*
X0207437Y0108628D03*
X0207437Y0106660D03*
X0209405Y0106660D03*
X0209405Y0108628D03*
X0211374Y0108628D03*
X0211374Y0106660D03*
X0213342Y0106660D03*
X0213342Y0108628D03*
X0215311Y0108628D03*
X0215311Y0106660D03*
X0217279Y0106660D03*
X0217279Y0108628D03*
X0219248Y0108628D03*
X0219248Y0106660D03*
X0221216Y0106660D03*
X0221216Y0108628D03*
X0225153Y0102723D03*
X0225153Y0100754D03*
X0225153Y0098786D03*
X0225153Y0096817D03*
X0225153Y0094849D03*
X0225153Y0092880D03*
X0225153Y0090912D03*
X0225153Y0088943D03*
X0225153Y0086975D03*
X0223185Y0086975D03*
X0221216Y0086975D03*
X0219248Y0086975D03*
X0217279Y0086975D03*
X0215311Y0086975D03*
X0213342Y0086975D03*
X0211374Y0086975D03*
X0209405Y0086975D03*
X0207437Y0086975D03*
X0207437Y0088943D03*
X0205468Y0088943D03*
X0203500Y0088943D03*
X0203500Y0086975D03*
X0205468Y0086975D03*
X0205468Y0090912D03*
X0203500Y0090912D03*
X0203500Y0092880D03*
X0205468Y0092880D03*
X0205468Y0094849D03*
X0203500Y0094849D03*
X0203500Y0096817D03*
X0205468Y0096817D03*
X0207437Y0096817D03*
X0207437Y0094849D03*
X0207437Y0092880D03*
X0207437Y0090912D03*
X0211374Y0090912D03*
X0211374Y0092880D03*
X0211374Y0094849D03*
X0211374Y0096817D03*
X0211374Y0098786D03*
X0211374Y0100754D03*
X0213342Y0100754D03*
X0215311Y0100754D03*
X0217279Y0100754D03*
X0219248Y0100754D03*
X0221216Y0100754D03*
X0221216Y0098786D03*
X0221216Y0096817D03*
X0221216Y0094849D03*
X0221216Y0092880D03*
X0221216Y0090912D03*
X0219248Y0090912D03*
X0217279Y0090912D03*
X0215311Y0090912D03*
X0213342Y0090912D03*
D53*
X0143735Y0279002D03*
X0139995Y0279002D03*
X0136255Y0279002D03*
X0136255Y0287664D03*
X0143735Y0287664D03*
D54*
X0150095Y0276533D03*
X0158595Y0280833D03*
X0162695Y0288333D03*
X0163495Y0305333D03*
X0142495Y0308533D03*
X0122895Y0306433D03*
X0115095Y0293733D03*
X0140095Y0274433D03*
X0172695Y0251733D03*
X0175695Y0258333D03*
X0175695Y0264333D03*
X0186695Y0258333D03*
X0196695Y0253333D03*
X0201695Y0253333D03*
X0201695Y0248333D03*
X0206695Y0248333D03*
X0206695Y0243333D03*
X0206695Y0238333D03*
X0206695Y0233333D03*
X0196695Y0233433D03*
X0191795Y0223133D03*
X0186695Y0233333D03*
X0175095Y0225533D03*
X0171295Y0230533D03*
X0165695Y0231333D03*
X0159495Y0234133D03*
X0154795Y0228933D03*
X0157695Y0224833D03*
X0162695Y0223233D03*
X0160195Y0214833D03*
X0168095Y0210933D03*
X0176695Y0203333D03*
X0176695Y0198333D03*
X0176695Y0193333D03*
X0181695Y0198333D03*
X0181695Y0183333D03*
X0186695Y0183333D03*
X0186695Y0178333D03*
X0175195Y0167833D03*
X0164695Y0175333D03*
X0192245Y0154983D03*
X0194595Y0157733D03*
X0191395Y0146633D03*
X0189995Y0143033D03*
X0197195Y0141933D03*
X0199795Y0144233D03*
X0200995Y0136533D03*
X0190295Y0123333D03*
X0197295Y0119933D03*
X0200995Y0119933D03*
X0202995Y0115133D03*
X0207795Y0117833D03*
X0212195Y0118833D03*
X0213895Y0112933D03*
X0224295Y0113733D03*
X0235495Y0119533D03*
X0243295Y0133133D03*
X0238395Y0147033D03*
X0229995Y0148033D03*
X0222395Y0148133D03*
X0217995Y0147533D03*
X0217995Y0133033D03*
X0224695Y0134133D03*
X0250995Y0147033D03*
X0258395Y0147533D03*
X0266595Y0147233D03*
X0274795Y0147633D03*
X0284995Y0146633D03*
X0293895Y0136433D03*
X0291095Y0134633D03*
X0292695Y0125333D03*
X0292695Y0121333D03*
X0296695Y0121333D03*
X0296695Y0125333D03*
X0288795Y0115433D03*
X0283795Y0116233D03*
X0313995Y0129833D03*
X0302995Y0144233D03*
X0282395Y0159433D03*
X0274695Y0159433D03*
X0266695Y0159333D03*
X0266695Y0168333D03*
X0266395Y0173233D03*
X0261695Y0173233D03*
X0261695Y0178333D03*
X0271195Y0188333D03*
X0271695Y0193333D03*
X0266695Y0193333D03*
X0261695Y0193333D03*
X0262095Y0198633D03*
X0256595Y0198533D03*
X0256695Y0203333D03*
X0262095Y0203633D03*
X0261695Y0208333D03*
X0256695Y0208233D03*
X0251795Y0208433D03*
X0246695Y0208333D03*
X0247095Y0203633D03*
X0251695Y0203333D03*
X0251695Y0198533D03*
X0246895Y0198433D03*
X0236695Y0198333D03*
X0231695Y0198333D03*
X0236695Y0193333D03*
X0226695Y0193333D03*
X0221695Y0193333D03*
X0221695Y0198333D03*
X0226695Y0203333D03*
X0226695Y0208333D03*
X0221695Y0208333D03*
X0226695Y0213333D03*
X0221695Y0218333D03*
X0216695Y0213333D03*
X0216695Y0208333D03*
X0216695Y0203333D03*
X0211695Y0203333D03*
X0216695Y0193333D03*
X0201695Y0193333D03*
X0201695Y0198333D03*
X0201695Y0203333D03*
X0201695Y0208333D03*
X0201695Y0213333D03*
X0206895Y0218533D03*
X0211695Y0218333D03*
X0231695Y0218333D03*
X0231695Y0213333D03*
X0236595Y0213433D03*
X0236895Y0218433D03*
X0236695Y0208333D03*
X0246195Y0213533D03*
X0251695Y0228333D03*
X0256795Y0233633D03*
X0261695Y0233333D03*
X0266595Y0233533D03*
X0271695Y0233633D03*
X0271395Y0228233D03*
X0266695Y0228233D03*
X0271595Y0223133D03*
X0281195Y0223333D03*
X0289295Y0223233D03*
X0289295Y0230933D03*
X0289295Y0238933D03*
X0286595Y0240733D03*
X0289295Y0246933D03*
X0281395Y0250733D03*
X0280395Y0255433D03*
X0271495Y0253333D03*
X0266695Y0253333D03*
X0266695Y0257833D03*
X0266695Y0248833D03*
X0266695Y0243333D03*
X0271695Y0238333D03*
X0261795Y0243433D03*
X0261595Y0248433D03*
X0256695Y0248333D03*
X0256695Y0243433D03*
X0256695Y0238333D03*
X0251695Y0238333D03*
X0251695Y0248333D03*
X0246695Y0248333D03*
X0241695Y0248333D03*
X0236695Y0248333D03*
X0236695Y0243333D03*
X0241695Y0243333D03*
X0236695Y0228733D03*
X0211695Y0248333D03*
X0206695Y0258333D03*
X0216695Y0258333D03*
X0221695Y0258333D03*
X0226695Y0258333D03*
X0247195Y0258333D03*
X0256195Y0258333D03*
X0297295Y0282733D03*
X0302595Y0287933D03*
X0305695Y0287933D03*
X0307395Y0282833D03*
X0307395Y0279733D03*
X0307395Y0276733D03*
X0301595Y0310233D03*
X0221695Y0332633D03*
X0203995Y0335933D03*
X0203995Y0306533D03*
X0136495Y0345233D03*
X0122895Y0329733D03*
X0127195Y0228833D03*
X0134695Y0228833D03*
X0119495Y0223433D03*
X0109695Y0223333D03*
X0106695Y0229833D03*
X0104495Y0224133D03*
X0104495Y0224133D03*
X0114495Y0208333D03*
X0119495Y0206933D03*
X0124995Y0206133D03*
X0129195Y0208333D03*
X0139695Y0208333D03*
X0124795Y0181333D03*
X0114495Y0186933D03*
X0104495Y0187033D03*
X0111195Y0112733D03*
X0111095Y0108733D03*
X0111195Y0104733D03*
X0111395Y0100733D03*
X0111295Y0096733D03*
X0111295Y0092733D03*
X0122995Y0074533D03*
X0135695Y0071433D03*
X0144395Y0071633D03*
X0172495Y0067733D03*
X0194995Y0092833D03*
X0197295Y0090633D03*
X0199995Y0088833D03*
X0195095Y0096233D03*
X0200695Y0098733D03*
X0200695Y0102033D03*
X0213895Y0098233D03*
X0222795Y0089233D03*
X0213295Y0080233D03*
X0209395Y0080233D03*
X0205895Y0080233D03*
X0183195Y0110933D03*
X0163895Y0109933D03*
X0141995Y0110033D03*
X0258695Y0159233D03*
X0271195Y0203433D03*
X0271695Y0209233D03*
X0281995Y0209933D03*
X0312195Y0222933D03*
D55*
X0307295Y0214333D03*
X0292795Y0199333D03*
X0285195Y0179333D03*
X0251695Y0233333D03*
X0241695Y0233333D03*
X0206695Y0193333D03*
X0206695Y0188333D03*
X0143695Y0185833D03*
X0134195Y0185833D03*
X0216295Y0095833D03*
X0289195Y0255033D03*
X0227095Y0315333D03*
X0222095Y0326533D03*
X0234195Y0341633D03*
D56*
X0239195Y0130533D03*
X0196995Y0081833D03*
X0191295Y0073933D03*
X0173595Y0081433D03*
X0110795Y0081933D03*
X0097495Y0087533D03*
X0099295Y0116733D03*
X0313995Y0103933D03*
D57*
X0261695Y0266333D03*
X0309495Y0321033D03*
D58*
X0314095Y0178833D03*
M02*
