%
M48
M72
T01C0.01200
T02C0.01500
T03C0.01600
T04C0.03000
T05C0.03200
T06C0.03937
T07C0.06299
T08C0.09055
T09C0.12500
%
T01
X111295Y92733
X111295Y96733
X111395Y100733
X111195Y104733
X111095Y108733
X111195Y112733
X141995Y110033
X163895Y109933
X183195Y110933
X190295Y123333
X197295Y119933
X200995Y119933
X202995Y115133
X207795Y117833
X212195Y118833
X213895Y112933
X224295Y113733
X235495Y119533
X243295Y133133
X238395Y147033
X229995Y148033
X222395Y148133
X217995Y147533
X217995Y133033
X224695Y134133
X200995Y136533
X197195Y141933
X199795Y144233
X191395Y146633
X189995Y143033
X192245Y154983
X194595Y157733
X175195Y167833
X164695Y175333
X181695Y183333
X186695Y183333
X186695Y178333
X176695Y193333
X176695Y198333
X176695Y203333
X181695Y198333
X168095Y210933
X160195Y214833
X162695Y223233
X157695Y224833
X154795Y228933
X159495Y234133
X165695Y231333
X171295Y230533
X175095Y225533
X186695Y233333
X191795Y223133
X196695Y233433
X206695Y233333
X206695Y238333
X206695Y243333
X206695Y248333
X211695Y248333
X201695Y248333
X201695Y253333
X196695Y253333
X186695Y258333
X175695Y258333
X175695Y264333
X172695Y251733
X150095Y276533
X158595Y280833
X162695Y288333
X163495Y305333
X142495Y308533
X122895Y306433
X115095Y293733
X140095Y274433
X134695Y228833
X127195Y228833
X119495Y223433
X109695Y223333
X106695Y229833
X104495Y224133
X104495Y224133
X114495Y208333
X119495Y206933
X124995Y206133
X129195Y208333
X139695Y208333
X124795Y181333
X114495Y186933
X104495Y187033
X195095Y96233
X194995Y92833
X197295Y90633
X199995Y88833
X205895Y80233
X209395Y80233
X213295Y80233
X222795Y89233
X213895Y98233
X200695Y98733
X200695Y102033
X172495Y67733
X144395Y71633
X135695Y71433
X122995Y74533
X206695Y188333
X206695Y193333
X201695Y193333
X201695Y198333
X201695Y203333
X201695Y208333
X201695Y213333
X206895Y218533
X211695Y218333
X216695Y213333
X216695Y208333
X216695Y203333
X211695Y203333
X216695Y193333
X221695Y193333
X221695Y198333
X226695Y193333
X231695Y198333
X236695Y198333
X236695Y193333
X246895Y198433
X251695Y198533
X251695Y203333
X247095Y203633
X246695Y208333
X251795Y208433
X246195Y213533
X236595Y213433
X231695Y213333
X231695Y218333
X236895Y218433
X236695Y208333
X226695Y208333
X221695Y208333
X226695Y213333
X221695Y218333
X226695Y203333
X236695Y228733
X236695Y243333
X236695Y248333
X241695Y248333
X241695Y243333
X246695Y248333
X251695Y248333
X256695Y248333
X256695Y243433
X256695Y238333
X261795Y243433
X261595Y248433
X266695Y248833
X266695Y243333
X271695Y238333
X271695Y233633
X266595Y233533
X266695Y228233
X271395Y228233
X271595Y223133
X281195Y223333
X289295Y223233
X289295Y230933
X289295Y238933
X286595Y240733
X289295Y246933
X281395Y250733
X280395Y255433
X271495Y253333
X266695Y253333
X266695Y257833
X256195Y258333
X247195Y258333
X251695Y238333
X256795Y233633
X261695Y233333
X251695Y228333
X256695Y208233
X261695Y208333
X262095Y203633
X256695Y203333
X256595Y198533
X262095Y198633
X261695Y193333
X266695Y193333
X271695Y193333
X271195Y188333
X261695Y178333
X261695Y173233
X266395Y173233
X266695Y168333
X266695Y159333
X274695Y159433
X282395Y159433
X274795Y147633
X266595Y147233
X258395Y147533
X250995Y147033
X258695Y159233
X284995Y146633
X293895Y136433
X291095Y134633
X292695Y125333
X292695Y121333
X296695Y121333
X296695Y125333
X288795Y115433
X283795Y116233
X313995Y129833
X302995Y144233
X271195Y203433
X271695Y209233
X281995Y209933
X312195Y222933
X307395Y276733
X307395Y279733
X307395Y282833
X305695Y287933
X302595Y287933
X297295Y282733
X301595Y310233
X226695Y258333
X221695Y258333
X216695Y258333
X206695Y258333
X203995Y306533
X221695Y332633
X203995Y335933
X136495Y345233
X122895Y329733
T02
X222095Y326533
X227095Y315333
X234195Y341633
X289195Y255033
X251695Y233333
X241695Y233333
X285195Y179333
X292795Y199333
X307295Y214333
X216295Y95833
X143695Y185833
X134195Y185833
T03
X99295Y116733
X97495Y87533
X110795Y81933
X173595Y81433
X191295Y73933
X196995Y81833
X239195Y130533
X313995Y103933
T04
X314095Y178833
X279895Y302933
X271895Y302833
X257295Y310933
X257295Y318833
X271895Y326533
X279795Y326433
T05
X309495Y321033
X261695Y266333
X183295Y327933
X183395Y337833
X173295Y337933
X163295Y337933
X153295Y337933
X143295Y337933
X143295Y327933
X153295Y327933
X163295Y327933
X173295Y327933
X149495Y297933
X139495Y297933
X119995Y279733
X109995Y279733
X109995Y261233
X119995Y261233
X129995Y261233
X139995Y261233
X139995Y242233
X129995Y242233
X119995Y242233
X109995Y242233
X149995Y242233
X159995Y242233
X139695Y169333
X129695Y169333
X119695Y169333
X109695Y169333
X125495Y138333
X125495Y128333
X135495Y128333
X135495Y138333
X145495Y138333
X145495Y128333
X155495Y128333
X155495Y138333
X165495Y138333
X165495Y128333
X175495Y128333
X175495Y138333
X185495Y138233
X185495Y128333
X297895Y150833
X297895Y160833
X307895Y160833
X307895Y150833
X307895Y170833
X297895Y170833
T06
X291375Y102075
X281532Y102075
X273658Y102075
X263816Y102075
T07
X275695Y302811
X257191Y314622
X275695Y326433
T08
X251729Y91405
X303461Y91405
T09
X94495Y63233
X316695Y63233
X316695Y345133
X94495Y345133
M30
