G75*
%MOIN*%
%OFA0B0*%
%FSLAX25Y25*%
%IPPOS*%
%LPD*%
%AMOC8*
5,1,8,0,0,1.08239X$1,22.5*
%
%ADD10C,0.00000*%
%ADD11C,0.06400*%
%ADD12C,0.09449*%
%ADD13C,0.17500*%
%ADD14C,0.05937*%
%ADD15C,0.13055*%
%ADD16C,0.00600*%
%ADD17C,0.02400*%
%ADD18C,0.02700*%
%ADD19C,0.02800*%
%ADD20C,0.04800*%
%ADD21C,0.04500*%
%ADD22C,0.03000*%
%ADD23C,0.01200*%
%ADD24C,0.01600*%
D10*
X0082495Y0063233D02*
X0082495Y0345433D01*
X0082498Y0345716D01*
X0082509Y0345998D01*
X0082526Y0346280D01*
X0082550Y0346562D01*
X0082580Y0346843D01*
X0082618Y0347124D01*
X0082662Y0347403D01*
X0082713Y0347681D01*
X0082771Y0347958D01*
X0082835Y0348233D01*
X0082906Y0348507D01*
X0082984Y0348779D01*
X0083068Y0349048D01*
X0083158Y0349316D01*
X0083255Y0349582D01*
X0083359Y0349845D01*
X0083469Y0350106D01*
X0083585Y0350363D01*
X0083707Y0350618D01*
X0083835Y0350870D01*
X0083970Y0351119D01*
X0084110Y0351364D01*
X0084256Y0351606D01*
X0084408Y0351845D01*
X0084566Y0352079D01*
X0084730Y0352310D01*
X0084898Y0352537D01*
X0085073Y0352759D01*
X0085253Y0352978D01*
X0085437Y0353192D01*
X0085627Y0353401D01*
X0085822Y0353606D01*
X0086022Y0353806D01*
X0086227Y0354001D01*
X0086436Y0354191D01*
X0086650Y0354375D01*
X0086869Y0354555D01*
X0087091Y0354730D01*
X0087318Y0354898D01*
X0087549Y0355062D01*
X0087783Y0355220D01*
X0088022Y0355372D01*
X0088264Y0355518D01*
X0088509Y0355658D01*
X0088758Y0355793D01*
X0089010Y0355921D01*
X0089265Y0356043D01*
X0089522Y0356159D01*
X0089783Y0356269D01*
X0090046Y0356373D01*
X0090312Y0356470D01*
X0090580Y0356560D01*
X0090849Y0356644D01*
X0091121Y0356722D01*
X0091395Y0356793D01*
X0091670Y0356857D01*
X0091947Y0356915D01*
X0092225Y0356966D01*
X0092504Y0357010D01*
X0092785Y0357048D01*
X0093066Y0357078D01*
X0093348Y0357102D01*
X0093630Y0357119D01*
X0093912Y0357130D01*
X0094195Y0357133D01*
X0316695Y0357133D01*
X0316985Y0357129D01*
X0317275Y0357119D01*
X0317564Y0357101D01*
X0317853Y0357077D01*
X0318141Y0357046D01*
X0318429Y0357007D01*
X0318715Y0356962D01*
X0319001Y0356909D01*
X0319284Y0356850D01*
X0319567Y0356784D01*
X0319847Y0356712D01*
X0320126Y0356632D01*
X0320403Y0356546D01*
X0320678Y0356453D01*
X0320950Y0356353D01*
X0321220Y0356247D01*
X0321487Y0356135D01*
X0321752Y0356015D01*
X0322013Y0355890D01*
X0322272Y0355758D01*
X0322527Y0355621D01*
X0322779Y0355477D01*
X0323027Y0355327D01*
X0323271Y0355171D01*
X0323512Y0355009D01*
X0323748Y0354841D01*
X0323981Y0354668D01*
X0324209Y0354489D01*
X0324433Y0354305D01*
X0324652Y0354115D01*
X0324867Y0353920D01*
X0325077Y0353720D01*
X0325282Y0353515D01*
X0325482Y0353305D01*
X0325677Y0353090D01*
X0325867Y0352871D01*
X0326051Y0352647D01*
X0326230Y0352419D01*
X0326403Y0352186D01*
X0326571Y0351950D01*
X0326733Y0351709D01*
X0326889Y0351465D01*
X0327039Y0351217D01*
X0327183Y0350965D01*
X0327320Y0350710D01*
X0327452Y0350451D01*
X0327577Y0350190D01*
X0327697Y0349925D01*
X0327809Y0349658D01*
X0327915Y0349388D01*
X0328015Y0349116D01*
X0328108Y0348841D01*
X0328194Y0348564D01*
X0328274Y0348285D01*
X0328346Y0348005D01*
X0328412Y0347722D01*
X0328471Y0347439D01*
X0328524Y0347153D01*
X0328569Y0346867D01*
X0328608Y0346579D01*
X0328639Y0346291D01*
X0328663Y0346002D01*
X0328681Y0345713D01*
X0328691Y0345423D01*
X0328695Y0345133D01*
X0328695Y0063233D01*
X0328691Y0062943D01*
X0328681Y0062653D01*
X0328663Y0062364D01*
X0328639Y0062075D01*
X0328608Y0061787D01*
X0328569Y0061499D01*
X0328524Y0061213D01*
X0328471Y0060927D01*
X0328412Y0060644D01*
X0328346Y0060361D01*
X0328274Y0060081D01*
X0328194Y0059802D01*
X0328108Y0059525D01*
X0328015Y0059250D01*
X0327915Y0058978D01*
X0327809Y0058708D01*
X0327697Y0058441D01*
X0327577Y0058176D01*
X0327452Y0057915D01*
X0327320Y0057656D01*
X0327183Y0057401D01*
X0327039Y0057149D01*
X0326889Y0056901D01*
X0326733Y0056657D01*
X0326571Y0056416D01*
X0326403Y0056180D01*
X0326230Y0055947D01*
X0326051Y0055719D01*
X0325867Y0055495D01*
X0325677Y0055276D01*
X0325482Y0055061D01*
X0325282Y0054851D01*
X0325077Y0054646D01*
X0324867Y0054446D01*
X0324652Y0054251D01*
X0324433Y0054061D01*
X0324209Y0053877D01*
X0323981Y0053698D01*
X0323748Y0053525D01*
X0323512Y0053357D01*
X0323271Y0053195D01*
X0323027Y0053039D01*
X0322779Y0052889D01*
X0322527Y0052745D01*
X0322272Y0052608D01*
X0322013Y0052476D01*
X0321752Y0052351D01*
X0321487Y0052231D01*
X0321220Y0052119D01*
X0320950Y0052013D01*
X0320678Y0051913D01*
X0320403Y0051820D01*
X0320126Y0051734D01*
X0319847Y0051654D01*
X0319567Y0051582D01*
X0319284Y0051516D01*
X0319001Y0051457D01*
X0318715Y0051404D01*
X0318429Y0051359D01*
X0318141Y0051320D01*
X0317853Y0051289D01*
X0317564Y0051265D01*
X0317275Y0051247D01*
X0316985Y0051237D01*
X0316695Y0051233D01*
X0094495Y0051233D01*
X0094205Y0051237D01*
X0093915Y0051247D01*
X0093626Y0051265D01*
X0093337Y0051289D01*
X0093049Y0051320D01*
X0092761Y0051359D01*
X0092475Y0051404D01*
X0092189Y0051457D01*
X0091906Y0051516D01*
X0091623Y0051582D01*
X0091343Y0051654D01*
X0091064Y0051734D01*
X0090787Y0051820D01*
X0090512Y0051913D01*
X0090240Y0052013D01*
X0089970Y0052119D01*
X0089703Y0052231D01*
X0089438Y0052351D01*
X0089177Y0052476D01*
X0088918Y0052608D01*
X0088663Y0052745D01*
X0088411Y0052889D01*
X0088163Y0053039D01*
X0087919Y0053195D01*
X0087678Y0053357D01*
X0087442Y0053525D01*
X0087209Y0053698D01*
X0086981Y0053877D01*
X0086757Y0054061D01*
X0086538Y0054251D01*
X0086323Y0054446D01*
X0086113Y0054646D01*
X0085908Y0054851D01*
X0085708Y0055061D01*
X0085513Y0055276D01*
X0085323Y0055495D01*
X0085139Y0055719D01*
X0084960Y0055947D01*
X0084787Y0056180D01*
X0084619Y0056416D01*
X0084457Y0056657D01*
X0084301Y0056901D01*
X0084151Y0057149D01*
X0084007Y0057401D01*
X0083870Y0057656D01*
X0083738Y0057915D01*
X0083613Y0058176D01*
X0083493Y0058441D01*
X0083381Y0058708D01*
X0083275Y0058978D01*
X0083175Y0059250D01*
X0083082Y0059525D01*
X0082996Y0059802D01*
X0082916Y0060081D01*
X0082844Y0060361D01*
X0082778Y0060644D01*
X0082719Y0060927D01*
X0082666Y0061213D01*
X0082621Y0061499D01*
X0082582Y0061787D01*
X0082551Y0062075D01*
X0082527Y0062364D01*
X0082509Y0062653D01*
X0082499Y0062943D01*
X0082495Y0063233D01*
X0270395Y0302833D02*
X0270397Y0302910D01*
X0270403Y0302987D01*
X0270413Y0303064D01*
X0270427Y0303140D01*
X0270444Y0303215D01*
X0270466Y0303289D01*
X0270491Y0303362D01*
X0270521Y0303434D01*
X0270553Y0303504D01*
X0270590Y0303572D01*
X0270629Y0303638D01*
X0270672Y0303702D01*
X0270719Y0303764D01*
X0270768Y0303823D01*
X0270821Y0303880D01*
X0270876Y0303934D01*
X0270934Y0303985D01*
X0270995Y0304033D01*
X0271058Y0304078D01*
X0271123Y0304119D01*
X0271190Y0304157D01*
X0271259Y0304192D01*
X0271330Y0304222D01*
X0271402Y0304250D01*
X0271476Y0304273D01*
X0271550Y0304293D01*
X0271626Y0304309D01*
X0271702Y0304321D01*
X0271779Y0304329D01*
X0271856Y0304333D01*
X0271934Y0304333D01*
X0272011Y0304329D01*
X0272088Y0304321D01*
X0272164Y0304309D01*
X0272240Y0304293D01*
X0272314Y0304273D01*
X0272388Y0304250D01*
X0272460Y0304222D01*
X0272531Y0304192D01*
X0272600Y0304157D01*
X0272667Y0304119D01*
X0272732Y0304078D01*
X0272795Y0304033D01*
X0272856Y0303985D01*
X0272914Y0303934D01*
X0272969Y0303880D01*
X0273022Y0303823D01*
X0273071Y0303764D01*
X0273118Y0303702D01*
X0273161Y0303638D01*
X0273200Y0303572D01*
X0273237Y0303504D01*
X0273269Y0303434D01*
X0273299Y0303362D01*
X0273324Y0303289D01*
X0273346Y0303215D01*
X0273363Y0303140D01*
X0273377Y0303064D01*
X0273387Y0302987D01*
X0273393Y0302910D01*
X0273395Y0302833D01*
X0273393Y0302756D01*
X0273387Y0302679D01*
X0273377Y0302602D01*
X0273363Y0302526D01*
X0273346Y0302451D01*
X0273324Y0302377D01*
X0273299Y0302304D01*
X0273269Y0302232D01*
X0273237Y0302162D01*
X0273200Y0302094D01*
X0273161Y0302028D01*
X0273118Y0301964D01*
X0273071Y0301902D01*
X0273022Y0301843D01*
X0272969Y0301786D01*
X0272914Y0301732D01*
X0272856Y0301681D01*
X0272795Y0301633D01*
X0272732Y0301588D01*
X0272667Y0301547D01*
X0272600Y0301509D01*
X0272531Y0301474D01*
X0272460Y0301444D01*
X0272388Y0301416D01*
X0272314Y0301393D01*
X0272240Y0301373D01*
X0272164Y0301357D01*
X0272088Y0301345D01*
X0272011Y0301337D01*
X0271934Y0301333D01*
X0271856Y0301333D01*
X0271779Y0301337D01*
X0271702Y0301345D01*
X0271626Y0301357D01*
X0271550Y0301373D01*
X0271476Y0301393D01*
X0271402Y0301416D01*
X0271330Y0301444D01*
X0271259Y0301474D01*
X0271190Y0301509D01*
X0271123Y0301547D01*
X0271058Y0301588D01*
X0270995Y0301633D01*
X0270934Y0301681D01*
X0270876Y0301732D01*
X0270821Y0301786D01*
X0270768Y0301843D01*
X0270719Y0301902D01*
X0270672Y0301964D01*
X0270629Y0302028D01*
X0270590Y0302094D01*
X0270553Y0302162D01*
X0270521Y0302232D01*
X0270491Y0302304D01*
X0270466Y0302377D01*
X0270444Y0302451D01*
X0270427Y0302526D01*
X0270413Y0302602D01*
X0270403Y0302679D01*
X0270397Y0302756D01*
X0270395Y0302833D01*
X0278395Y0302933D02*
X0278397Y0303010D01*
X0278403Y0303087D01*
X0278413Y0303164D01*
X0278427Y0303240D01*
X0278444Y0303315D01*
X0278466Y0303389D01*
X0278491Y0303462D01*
X0278521Y0303534D01*
X0278553Y0303604D01*
X0278590Y0303672D01*
X0278629Y0303738D01*
X0278672Y0303802D01*
X0278719Y0303864D01*
X0278768Y0303923D01*
X0278821Y0303980D01*
X0278876Y0304034D01*
X0278934Y0304085D01*
X0278995Y0304133D01*
X0279058Y0304178D01*
X0279123Y0304219D01*
X0279190Y0304257D01*
X0279259Y0304292D01*
X0279330Y0304322D01*
X0279402Y0304350D01*
X0279476Y0304373D01*
X0279550Y0304393D01*
X0279626Y0304409D01*
X0279702Y0304421D01*
X0279779Y0304429D01*
X0279856Y0304433D01*
X0279934Y0304433D01*
X0280011Y0304429D01*
X0280088Y0304421D01*
X0280164Y0304409D01*
X0280240Y0304393D01*
X0280314Y0304373D01*
X0280388Y0304350D01*
X0280460Y0304322D01*
X0280531Y0304292D01*
X0280600Y0304257D01*
X0280667Y0304219D01*
X0280732Y0304178D01*
X0280795Y0304133D01*
X0280856Y0304085D01*
X0280914Y0304034D01*
X0280969Y0303980D01*
X0281022Y0303923D01*
X0281071Y0303864D01*
X0281118Y0303802D01*
X0281161Y0303738D01*
X0281200Y0303672D01*
X0281237Y0303604D01*
X0281269Y0303534D01*
X0281299Y0303462D01*
X0281324Y0303389D01*
X0281346Y0303315D01*
X0281363Y0303240D01*
X0281377Y0303164D01*
X0281387Y0303087D01*
X0281393Y0303010D01*
X0281395Y0302933D01*
X0281393Y0302856D01*
X0281387Y0302779D01*
X0281377Y0302702D01*
X0281363Y0302626D01*
X0281346Y0302551D01*
X0281324Y0302477D01*
X0281299Y0302404D01*
X0281269Y0302332D01*
X0281237Y0302262D01*
X0281200Y0302194D01*
X0281161Y0302128D01*
X0281118Y0302064D01*
X0281071Y0302002D01*
X0281022Y0301943D01*
X0280969Y0301886D01*
X0280914Y0301832D01*
X0280856Y0301781D01*
X0280795Y0301733D01*
X0280732Y0301688D01*
X0280667Y0301647D01*
X0280600Y0301609D01*
X0280531Y0301574D01*
X0280460Y0301544D01*
X0280388Y0301516D01*
X0280314Y0301493D01*
X0280240Y0301473D01*
X0280164Y0301457D01*
X0280088Y0301445D01*
X0280011Y0301437D01*
X0279934Y0301433D01*
X0279856Y0301433D01*
X0279779Y0301437D01*
X0279702Y0301445D01*
X0279626Y0301457D01*
X0279550Y0301473D01*
X0279476Y0301493D01*
X0279402Y0301516D01*
X0279330Y0301544D01*
X0279259Y0301574D01*
X0279190Y0301609D01*
X0279123Y0301647D01*
X0279058Y0301688D01*
X0278995Y0301733D01*
X0278934Y0301781D01*
X0278876Y0301832D01*
X0278821Y0301886D01*
X0278768Y0301943D01*
X0278719Y0302002D01*
X0278672Y0302064D01*
X0278629Y0302128D01*
X0278590Y0302194D01*
X0278553Y0302262D01*
X0278521Y0302332D01*
X0278491Y0302404D01*
X0278466Y0302477D01*
X0278444Y0302551D01*
X0278427Y0302626D01*
X0278413Y0302702D01*
X0278403Y0302779D01*
X0278397Y0302856D01*
X0278395Y0302933D01*
X0255795Y0310933D02*
X0255797Y0311010D01*
X0255803Y0311087D01*
X0255813Y0311164D01*
X0255827Y0311240D01*
X0255844Y0311315D01*
X0255866Y0311389D01*
X0255891Y0311462D01*
X0255921Y0311534D01*
X0255953Y0311604D01*
X0255990Y0311672D01*
X0256029Y0311738D01*
X0256072Y0311802D01*
X0256119Y0311864D01*
X0256168Y0311923D01*
X0256221Y0311980D01*
X0256276Y0312034D01*
X0256334Y0312085D01*
X0256395Y0312133D01*
X0256458Y0312178D01*
X0256523Y0312219D01*
X0256590Y0312257D01*
X0256659Y0312292D01*
X0256730Y0312322D01*
X0256802Y0312350D01*
X0256876Y0312373D01*
X0256950Y0312393D01*
X0257026Y0312409D01*
X0257102Y0312421D01*
X0257179Y0312429D01*
X0257256Y0312433D01*
X0257334Y0312433D01*
X0257411Y0312429D01*
X0257488Y0312421D01*
X0257564Y0312409D01*
X0257640Y0312393D01*
X0257714Y0312373D01*
X0257788Y0312350D01*
X0257860Y0312322D01*
X0257931Y0312292D01*
X0258000Y0312257D01*
X0258067Y0312219D01*
X0258132Y0312178D01*
X0258195Y0312133D01*
X0258256Y0312085D01*
X0258314Y0312034D01*
X0258369Y0311980D01*
X0258422Y0311923D01*
X0258471Y0311864D01*
X0258518Y0311802D01*
X0258561Y0311738D01*
X0258600Y0311672D01*
X0258637Y0311604D01*
X0258669Y0311534D01*
X0258699Y0311462D01*
X0258724Y0311389D01*
X0258746Y0311315D01*
X0258763Y0311240D01*
X0258777Y0311164D01*
X0258787Y0311087D01*
X0258793Y0311010D01*
X0258795Y0310933D01*
X0258793Y0310856D01*
X0258787Y0310779D01*
X0258777Y0310702D01*
X0258763Y0310626D01*
X0258746Y0310551D01*
X0258724Y0310477D01*
X0258699Y0310404D01*
X0258669Y0310332D01*
X0258637Y0310262D01*
X0258600Y0310194D01*
X0258561Y0310128D01*
X0258518Y0310064D01*
X0258471Y0310002D01*
X0258422Y0309943D01*
X0258369Y0309886D01*
X0258314Y0309832D01*
X0258256Y0309781D01*
X0258195Y0309733D01*
X0258132Y0309688D01*
X0258067Y0309647D01*
X0258000Y0309609D01*
X0257931Y0309574D01*
X0257860Y0309544D01*
X0257788Y0309516D01*
X0257714Y0309493D01*
X0257640Y0309473D01*
X0257564Y0309457D01*
X0257488Y0309445D01*
X0257411Y0309437D01*
X0257334Y0309433D01*
X0257256Y0309433D01*
X0257179Y0309437D01*
X0257102Y0309445D01*
X0257026Y0309457D01*
X0256950Y0309473D01*
X0256876Y0309493D01*
X0256802Y0309516D01*
X0256730Y0309544D01*
X0256659Y0309574D01*
X0256590Y0309609D01*
X0256523Y0309647D01*
X0256458Y0309688D01*
X0256395Y0309733D01*
X0256334Y0309781D01*
X0256276Y0309832D01*
X0256221Y0309886D01*
X0256168Y0309943D01*
X0256119Y0310002D01*
X0256072Y0310064D01*
X0256029Y0310128D01*
X0255990Y0310194D01*
X0255953Y0310262D01*
X0255921Y0310332D01*
X0255891Y0310404D01*
X0255866Y0310477D01*
X0255844Y0310551D01*
X0255827Y0310626D01*
X0255813Y0310702D01*
X0255803Y0310779D01*
X0255797Y0310856D01*
X0255795Y0310933D01*
X0255795Y0318833D02*
X0255797Y0318910D01*
X0255803Y0318987D01*
X0255813Y0319064D01*
X0255827Y0319140D01*
X0255844Y0319215D01*
X0255866Y0319289D01*
X0255891Y0319362D01*
X0255921Y0319434D01*
X0255953Y0319504D01*
X0255990Y0319572D01*
X0256029Y0319638D01*
X0256072Y0319702D01*
X0256119Y0319764D01*
X0256168Y0319823D01*
X0256221Y0319880D01*
X0256276Y0319934D01*
X0256334Y0319985D01*
X0256395Y0320033D01*
X0256458Y0320078D01*
X0256523Y0320119D01*
X0256590Y0320157D01*
X0256659Y0320192D01*
X0256730Y0320222D01*
X0256802Y0320250D01*
X0256876Y0320273D01*
X0256950Y0320293D01*
X0257026Y0320309D01*
X0257102Y0320321D01*
X0257179Y0320329D01*
X0257256Y0320333D01*
X0257334Y0320333D01*
X0257411Y0320329D01*
X0257488Y0320321D01*
X0257564Y0320309D01*
X0257640Y0320293D01*
X0257714Y0320273D01*
X0257788Y0320250D01*
X0257860Y0320222D01*
X0257931Y0320192D01*
X0258000Y0320157D01*
X0258067Y0320119D01*
X0258132Y0320078D01*
X0258195Y0320033D01*
X0258256Y0319985D01*
X0258314Y0319934D01*
X0258369Y0319880D01*
X0258422Y0319823D01*
X0258471Y0319764D01*
X0258518Y0319702D01*
X0258561Y0319638D01*
X0258600Y0319572D01*
X0258637Y0319504D01*
X0258669Y0319434D01*
X0258699Y0319362D01*
X0258724Y0319289D01*
X0258746Y0319215D01*
X0258763Y0319140D01*
X0258777Y0319064D01*
X0258787Y0318987D01*
X0258793Y0318910D01*
X0258795Y0318833D01*
X0258793Y0318756D01*
X0258787Y0318679D01*
X0258777Y0318602D01*
X0258763Y0318526D01*
X0258746Y0318451D01*
X0258724Y0318377D01*
X0258699Y0318304D01*
X0258669Y0318232D01*
X0258637Y0318162D01*
X0258600Y0318094D01*
X0258561Y0318028D01*
X0258518Y0317964D01*
X0258471Y0317902D01*
X0258422Y0317843D01*
X0258369Y0317786D01*
X0258314Y0317732D01*
X0258256Y0317681D01*
X0258195Y0317633D01*
X0258132Y0317588D01*
X0258067Y0317547D01*
X0258000Y0317509D01*
X0257931Y0317474D01*
X0257860Y0317444D01*
X0257788Y0317416D01*
X0257714Y0317393D01*
X0257640Y0317373D01*
X0257564Y0317357D01*
X0257488Y0317345D01*
X0257411Y0317337D01*
X0257334Y0317333D01*
X0257256Y0317333D01*
X0257179Y0317337D01*
X0257102Y0317345D01*
X0257026Y0317357D01*
X0256950Y0317373D01*
X0256876Y0317393D01*
X0256802Y0317416D01*
X0256730Y0317444D01*
X0256659Y0317474D01*
X0256590Y0317509D01*
X0256523Y0317547D01*
X0256458Y0317588D01*
X0256395Y0317633D01*
X0256334Y0317681D01*
X0256276Y0317732D01*
X0256221Y0317786D01*
X0256168Y0317843D01*
X0256119Y0317902D01*
X0256072Y0317964D01*
X0256029Y0318028D01*
X0255990Y0318094D01*
X0255953Y0318162D01*
X0255921Y0318232D01*
X0255891Y0318304D01*
X0255866Y0318377D01*
X0255844Y0318451D01*
X0255827Y0318526D01*
X0255813Y0318602D01*
X0255803Y0318679D01*
X0255797Y0318756D01*
X0255795Y0318833D01*
X0270395Y0326533D02*
X0270397Y0326610D01*
X0270403Y0326687D01*
X0270413Y0326764D01*
X0270427Y0326840D01*
X0270444Y0326915D01*
X0270466Y0326989D01*
X0270491Y0327062D01*
X0270521Y0327134D01*
X0270553Y0327204D01*
X0270590Y0327272D01*
X0270629Y0327338D01*
X0270672Y0327402D01*
X0270719Y0327464D01*
X0270768Y0327523D01*
X0270821Y0327580D01*
X0270876Y0327634D01*
X0270934Y0327685D01*
X0270995Y0327733D01*
X0271058Y0327778D01*
X0271123Y0327819D01*
X0271190Y0327857D01*
X0271259Y0327892D01*
X0271330Y0327922D01*
X0271402Y0327950D01*
X0271476Y0327973D01*
X0271550Y0327993D01*
X0271626Y0328009D01*
X0271702Y0328021D01*
X0271779Y0328029D01*
X0271856Y0328033D01*
X0271934Y0328033D01*
X0272011Y0328029D01*
X0272088Y0328021D01*
X0272164Y0328009D01*
X0272240Y0327993D01*
X0272314Y0327973D01*
X0272388Y0327950D01*
X0272460Y0327922D01*
X0272531Y0327892D01*
X0272600Y0327857D01*
X0272667Y0327819D01*
X0272732Y0327778D01*
X0272795Y0327733D01*
X0272856Y0327685D01*
X0272914Y0327634D01*
X0272969Y0327580D01*
X0273022Y0327523D01*
X0273071Y0327464D01*
X0273118Y0327402D01*
X0273161Y0327338D01*
X0273200Y0327272D01*
X0273237Y0327204D01*
X0273269Y0327134D01*
X0273299Y0327062D01*
X0273324Y0326989D01*
X0273346Y0326915D01*
X0273363Y0326840D01*
X0273377Y0326764D01*
X0273387Y0326687D01*
X0273393Y0326610D01*
X0273395Y0326533D01*
X0273393Y0326456D01*
X0273387Y0326379D01*
X0273377Y0326302D01*
X0273363Y0326226D01*
X0273346Y0326151D01*
X0273324Y0326077D01*
X0273299Y0326004D01*
X0273269Y0325932D01*
X0273237Y0325862D01*
X0273200Y0325794D01*
X0273161Y0325728D01*
X0273118Y0325664D01*
X0273071Y0325602D01*
X0273022Y0325543D01*
X0272969Y0325486D01*
X0272914Y0325432D01*
X0272856Y0325381D01*
X0272795Y0325333D01*
X0272732Y0325288D01*
X0272667Y0325247D01*
X0272600Y0325209D01*
X0272531Y0325174D01*
X0272460Y0325144D01*
X0272388Y0325116D01*
X0272314Y0325093D01*
X0272240Y0325073D01*
X0272164Y0325057D01*
X0272088Y0325045D01*
X0272011Y0325037D01*
X0271934Y0325033D01*
X0271856Y0325033D01*
X0271779Y0325037D01*
X0271702Y0325045D01*
X0271626Y0325057D01*
X0271550Y0325073D01*
X0271476Y0325093D01*
X0271402Y0325116D01*
X0271330Y0325144D01*
X0271259Y0325174D01*
X0271190Y0325209D01*
X0271123Y0325247D01*
X0271058Y0325288D01*
X0270995Y0325333D01*
X0270934Y0325381D01*
X0270876Y0325432D01*
X0270821Y0325486D01*
X0270768Y0325543D01*
X0270719Y0325602D01*
X0270672Y0325664D01*
X0270629Y0325728D01*
X0270590Y0325794D01*
X0270553Y0325862D01*
X0270521Y0325932D01*
X0270491Y0326004D01*
X0270466Y0326077D01*
X0270444Y0326151D01*
X0270427Y0326226D01*
X0270413Y0326302D01*
X0270403Y0326379D01*
X0270397Y0326456D01*
X0270395Y0326533D01*
X0278295Y0326433D02*
X0278297Y0326510D01*
X0278303Y0326587D01*
X0278313Y0326664D01*
X0278327Y0326740D01*
X0278344Y0326815D01*
X0278366Y0326889D01*
X0278391Y0326962D01*
X0278421Y0327034D01*
X0278453Y0327104D01*
X0278490Y0327172D01*
X0278529Y0327238D01*
X0278572Y0327302D01*
X0278619Y0327364D01*
X0278668Y0327423D01*
X0278721Y0327480D01*
X0278776Y0327534D01*
X0278834Y0327585D01*
X0278895Y0327633D01*
X0278958Y0327678D01*
X0279023Y0327719D01*
X0279090Y0327757D01*
X0279159Y0327792D01*
X0279230Y0327822D01*
X0279302Y0327850D01*
X0279376Y0327873D01*
X0279450Y0327893D01*
X0279526Y0327909D01*
X0279602Y0327921D01*
X0279679Y0327929D01*
X0279756Y0327933D01*
X0279834Y0327933D01*
X0279911Y0327929D01*
X0279988Y0327921D01*
X0280064Y0327909D01*
X0280140Y0327893D01*
X0280214Y0327873D01*
X0280288Y0327850D01*
X0280360Y0327822D01*
X0280431Y0327792D01*
X0280500Y0327757D01*
X0280567Y0327719D01*
X0280632Y0327678D01*
X0280695Y0327633D01*
X0280756Y0327585D01*
X0280814Y0327534D01*
X0280869Y0327480D01*
X0280922Y0327423D01*
X0280971Y0327364D01*
X0281018Y0327302D01*
X0281061Y0327238D01*
X0281100Y0327172D01*
X0281137Y0327104D01*
X0281169Y0327034D01*
X0281199Y0326962D01*
X0281224Y0326889D01*
X0281246Y0326815D01*
X0281263Y0326740D01*
X0281277Y0326664D01*
X0281287Y0326587D01*
X0281293Y0326510D01*
X0281295Y0326433D01*
X0281293Y0326356D01*
X0281287Y0326279D01*
X0281277Y0326202D01*
X0281263Y0326126D01*
X0281246Y0326051D01*
X0281224Y0325977D01*
X0281199Y0325904D01*
X0281169Y0325832D01*
X0281137Y0325762D01*
X0281100Y0325694D01*
X0281061Y0325628D01*
X0281018Y0325564D01*
X0280971Y0325502D01*
X0280922Y0325443D01*
X0280869Y0325386D01*
X0280814Y0325332D01*
X0280756Y0325281D01*
X0280695Y0325233D01*
X0280632Y0325188D01*
X0280567Y0325147D01*
X0280500Y0325109D01*
X0280431Y0325074D01*
X0280360Y0325044D01*
X0280288Y0325016D01*
X0280214Y0324993D01*
X0280140Y0324973D01*
X0280064Y0324957D01*
X0279988Y0324945D01*
X0279911Y0324937D01*
X0279834Y0324933D01*
X0279756Y0324933D01*
X0279679Y0324937D01*
X0279602Y0324945D01*
X0279526Y0324957D01*
X0279450Y0324973D01*
X0279376Y0324993D01*
X0279302Y0325016D01*
X0279230Y0325044D01*
X0279159Y0325074D01*
X0279090Y0325109D01*
X0279023Y0325147D01*
X0278958Y0325188D01*
X0278895Y0325233D01*
X0278834Y0325281D01*
X0278776Y0325332D01*
X0278721Y0325386D01*
X0278668Y0325443D01*
X0278619Y0325502D01*
X0278572Y0325564D01*
X0278529Y0325628D01*
X0278490Y0325694D01*
X0278453Y0325762D01*
X0278421Y0325832D01*
X0278391Y0325904D01*
X0278366Y0325977D01*
X0278344Y0326051D01*
X0278327Y0326126D01*
X0278313Y0326202D01*
X0278303Y0326279D01*
X0278297Y0326356D01*
X0278295Y0326433D01*
D11*
X0183295Y0327933D03*
X0183395Y0337833D03*
X0173295Y0337933D03*
X0163295Y0337933D03*
X0153295Y0337933D03*
X0143295Y0337933D03*
X0143295Y0327933D03*
X0153295Y0327933D03*
X0163295Y0327933D03*
X0173295Y0327933D03*
X0149495Y0297933D03*
X0139495Y0297933D03*
X0119995Y0279733D03*
X0109995Y0279733D03*
X0109995Y0261233D03*
X0119995Y0261233D03*
X0129995Y0261233D03*
X0139995Y0261233D03*
X0139995Y0242233D03*
X0129995Y0242233D03*
X0119995Y0242233D03*
X0109995Y0242233D03*
X0149995Y0242233D03*
X0159995Y0242233D03*
X0139695Y0169333D03*
X0129695Y0169333D03*
X0119695Y0169333D03*
X0109695Y0169333D03*
X0125495Y0138333D03*
X0125495Y0128333D03*
X0135495Y0128333D03*
X0135495Y0138333D03*
X0145495Y0138333D03*
X0145495Y0128333D03*
X0155495Y0128333D03*
X0155495Y0138333D03*
X0165495Y0138333D03*
X0165495Y0128333D03*
X0175495Y0128333D03*
X0175495Y0138333D03*
X0185495Y0138233D03*
X0185495Y0128333D03*
X0297895Y0150833D03*
X0297895Y0160833D03*
X0307895Y0160833D03*
X0307895Y0150833D03*
X0307895Y0170833D03*
X0297895Y0170833D03*
D12*
X0280420Y0302811D02*
X0270971Y0302811D01*
X0257191Y0309898D02*
X0257191Y0319346D01*
X0270971Y0326433D02*
X0280420Y0326433D01*
D13*
X0316695Y0345133D03*
X0094495Y0345133D03*
X0094495Y0063233D03*
X0316695Y0063233D03*
D14*
X0291375Y0102075D03*
X0281532Y0102075D03*
X0273658Y0102075D03*
X0263816Y0102075D03*
D15*
X0251729Y0091405D03*
X0303461Y0091405D03*
D16*
X0084605Y0058194D02*
X0083532Y0061497D01*
X0083395Y0063233D01*
X0083395Y0345433D01*
X0083528Y0347123D01*
X0084572Y0350336D01*
X0086558Y0353070D01*
X0089292Y0355056D01*
X0092506Y0356100D01*
X0094195Y0356233D01*
X0316695Y0356233D01*
X0318432Y0356096D01*
X0321734Y0355023D01*
X0324544Y0352982D01*
X0326585Y0350172D01*
X0327658Y0346869D01*
X0327795Y0345133D01*
X0327795Y0063233D01*
X0327658Y0061497D01*
X0326585Y0058194D01*
X0324544Y0055384D01*
X0321734Y0053343D01*
X0318432Y0052270D01*
X0316695Y0052133D01*
X0304495Y0052133D01*
X0304495Y0063233D01*
X0304617Y0064941D01*
X0304981Y0066614D01*
X0305580Y0068218D01*
X0306400Y0069721D01*
X0307426Y0071091D01*
X0308637Y0072302D01*
X0310007Y0073328D01*
X0311510Y0074149D01*
X0313114Y0074747D01*
X0314787Y0075111D01*
X0316495Y0075233D01*
X0327795Y0075233D01*
X0327795Y0063233D01*
X0327658Y0061497D01*
X0326585Y0058194D01*
X0324544Y0055384D01*
X0322894Y0054185D01*
X0322894Y0055322D01*
X0323402Y0055728D01*
X0324201Y0056526D01*
X0324904Y0057408D01*
X0325505Y0058364D01*
X0325995Y0059381D01*
X0326368Y0060446D01*
X0326619Y0061547D01*
X0326745Y0062669D01*
X0326745Y0062933D01*
X0316995Y0062933D01*
X0316995Y0053183D01*
X0317260Y0053183D01*
X0318381Y0053309D01*
X0319482Y0053561D01*
X0320547Y0053933D01*
X0321564Y0054423D01*
X0322520Y0055024D01*
X0323402Y0055728D01*
X0324201Y0056526D01*
X0324904Y0057408D01*
X0325505Y0058364D01*
X0325995Y0059381D01*
X0326368Y0060446D01*
X0326619Y0061547D01*
X0326745Y0062669D01*
X0326745Y0062933D01*
X0322891Y0062933D01*
X0322891Y0063533D01*
X0326745Y0063533D01*
X0326745Y0063797D01*
X0326619Y0064919D01*
X0326368Y0066020D01*
X0325995Y0067085D01*
X0325505Y0068102D01*
X0324904Y0069058D01*
X0324201Y0069940D01*
X0323402Y0070739D01*
X0322520Y0071442D01*
X0321564Y0072043D01*
X0320547Y0072533D01*
X0319482Y0072905D01*
X0318381Y0073157D01*
X0317260Y0073283D01*
X0316995Y0073283D01*
X0316995Y0063533D01*
X0316395Y0063533D01*
X0316395Y0062933D01*
X0306645Y0062933D01*
X0306645Y0062669D01*
X0306772Y0061547D01*
X0307023Y0060446D01*
X0307396Y0059381D01*
X0307885Y0058364D01*
X0308486Y0057408D01*
X0309190Y0056526D01*
X0309988Y0055728D01*
X0310870Y0055024D01*
X0311826Y0054423D01*
X0312843Y0053933D01*
X0313909Y0053561D01*
X0315009Y0053309D01*
X0316131Y0053183D01*
X0316395Y0053183D01*
X0316395Y0062933D01*
X0316995Y0062933D01*
X0316995Y0063533D01*
X0326745Y0063533D01*
X0326745Y0063797D01*
X0326619Y0064919D01*
X0326368Y0066020D01*
X0325995Y0067085D01*
X0325505Y0068102D01*
X0324904Y0069058D01*
X0324201Y0069940D01*
X0323402Y0070739D01*
X0322888Y0071149D01*
X0322795Y0323733D01*
X0322715Y0337080D01*
X0323402Y0337628D01*
X0324201Y0338426D01*
X0324904Y0339308D01*
X0325505Y0340264D01*
X0325995Y0341281D01*
X0326368Y0342346D01*
X0326619Y0343447D01*
X0326745Y0344569D01*
X0326745Y0344833D01*
X0322669Y0344833D01*
X0322666Y0345433D01*
X0326745Y0345433D01*
X0326745Y0345697D01*
X0326619Y0346819D01*
X0326368Y0347920D01*
X0325995Y0348985D01*
X0325505Y0350002D01*
X0324904Y0350958D01*
X0324201Y0351840D01*
X0323402Y0352639D01*
X0322619Y0353263D01*
X0322612Y0354386D01*
X0324544Y0352982D01*
X0325887Y0351133D01*
X0324765Y0351133D01*
X0324201Y0351840D01*
X0323402Y0352639D01*
X0322520Y0353342D01*
X0321564Y0353943D01*
X0320547Y0354433D01*
X0319482Y0354805D01*
X0318381Y0355057D01*
X0317260Y0355183D01*
X0316995Y0355183D01*
X0316995Y0351133D01*
X0316395Y0351133D01*
X0316395Y0355183D01*
X0316131Y0355183D01*
X0315009Y0355057D01*
X0313909Y0354805D01*
X0312843Y0354433D01*
X0311826Y0353943D01*
X0310870Y0353342D01*
X0309988Y0352639D01*
X0309190Y0351840D01*
X0308626Y0351133D01*
X0102565Y0351133D01*
X0102001Y0351840D01*
X0101202Y0352639D01*
X0100320Y0353342D01*
X0099364Y0353943D01*
X0098347Y0354433D01*
X0097282Y0354805D01*
X0096181Y0355057D01*
X0095060Y0355183D01*
X0094795Y0355183D01*
X0094795Y0351133D01*
X0094195Y0351133D01*
X0094195Y0355183D01*
X0093931Y0355183D01*
X0092809Y0355057D01*
X0091709Y0354805D01*
X0090643Y0354433D01*
X0089626Y0353943D01*
X0088670Y0353342D01*
X0087788Y0352639D01*
X0086990Y0351840D01*
X0086426Y0351133D01*
X0085151Y0351133D01*
X0086558Y0353070D01*
X0088474Y0354462D01*
X0088464Y0353178D01*
X0087788Y0352639D01*
X0086990Y0351840D01*
X0086286Y0350958D01*
X0085685Y0350002D01*
X0085196Y0348985D01*
X0084823Y0347920D01*
X0084572Y0346819D01*
X0084445Y0345697D01*
X0084445Y0345433D01*
X0088402Y0345433D01*
X0088398Y0344833D01*
X0084445Y0344833D01*
X0084445Y0344569D01*
X0084572Y0343447D01*
X0084823Y0342346D01*
X0085196Y0341281D01*
X0085685Y0340264D01*
X0086286Y0339308D01*
X0086990Y0338426D01*
X0087788Y0337628D01*
X0088337Y0337190D01*
X0088295Y0331933D01*
X0088295Y0071143D01*
X0087788Y0070739D01*
X0086990Y0069940D01*
X0086286Y0069058D01*
X0085685Y0068102D01*
X0085196Y0067085D01*
X0084823Y0066020D01*
X0084572Y0064919D01*
X0084445Y0063797D01*
X0084445Y0063533D01*
X0088295Y0063533D01*
X0088295Y0062933D01*
X0084445Y0062933D01*
X0084445Y0062669D01*
X0084572Y0061547D01*
X0084823Y0060446D01*
X0085196Y0059381D01*
X0085685Y0058364D01*
X0086286Y0057408D01*
X0086990Y0056526D01*
X0087788Y0055728D01*
X0088295Y0055323D01*
X0088295Y0054186D01*
X0086646Y0055384D01*
X0084605Y0058194D01*
X0083532Y0061497D01*
X0083395Y0063233D01*
X0083395Y0075433D01*
X0094495Y0075433D01*
X0096232Y0075323D01*
X0097936Y0074967D01*
X0099572Y0074372D01*
X0101107Y0073550D01*
X0102509Y0072519D01*
X0103750Y0071298D01*
X0104804Y0069913D01*
X0105651Y0068392D01*
X0106273Y0066766D01*
X0106657Y0065068D01*
X0106795Y0063333D01*
X0106795Y0052133D01*
X0094495Y0052133D01*
X0092759Y0052270D01*
X0089456Y0053343D01*
X0086646Y0055384D01*
X0085448Y0057033D01*
X0086585Y0057033D01*
X0086990Y0056526D01*
X0087788Y0055728D01*
X0088670Y0055024D01*
X0089626Y0054423D01*
X0090643Y0053933D01*
X0091709Y0053561D01*
X0092809Y0053309D01*
X0093931Y0053183D01*
X0094195Y0053183D01*
X0094195Y0057033D01*
X0094795Y0057033D01*
X0094795Y0053183D01*
X0095060Y0053183D01*
X0096181Y0053309D01*
X0097282Y0053561D01*
X0098347Y0053933D01*
X0099364Y0054423D01*
X0100320Y0055024D01*
X0101202Y0055728D01*
X0102001Y0056526D01*
X0102405Y0057033D01*
X0308785Y0057033D01*
X0309190Y0056526D01*
X0309988Y0055728D01*
X0310870Y0055024D01*
X0311826Y0054423D01*
X0312843Y0053933D01*
X0313909Y0053561D01*
X0315009Y0053309D01*
X0316131Y0053183D01*
X0316395Y0053183D01*
X0316395Y0057033D01*
X0316995Y0057033D01*
X0316995Y0053183D01*
X0317260Y0053183D01*
X0318381Y0053309D01*
X0319482Y0053561D01*
X0320547Y0053933D01*
X0321564Y0054423D01*
X0322520Y0055024D01*
X0323402Y0055728D01*
X0324201Y0056526D01*
X0324605Y0057033D01*
X0325742Y0057033D01*
X0324544Y0055384D01*
X0321734Y0053343D01*
X0318432Y0052270D01*
X0316695Y0052133D01*
X0094495Y0052133D01*
X0092759Y0052270D01*
X0089456Y0053343D01*
X0086646Y0055384D01*
X0084605Y0058194D01*
X0084533Y0058415D02*
X0085661Y0058415D01*
X0084533Y0058415D01*
X0084339Y0059014D02*
X0085372Y0059014D01*
X0084339Y0059014D01*
X0084144Y0059612D02*
X0085115Y0059612D01*
X0084144Y0059612D01*
X0083950Y0060211D02*
X0084905Y0060211D01*
X0083950Y0060211D01*
X0083755Y0060809D02*
X0084740Y0060809D01*
X0083755Y0060809D01*
X0083561Y0061408D02*
X0084603Y0061408D01*
X0083561Y0061408D01*
X0083492Y0062006D02*
X0084520Y0062006D01*
X0083492Y0062006D01*
X0083445Y0062605D02*
X0084452Y0062605D01*
X0083445Y0062605D01*
X0083397Y0063203D02*
X0088295Y0063203D01*
X0084445Y0062933D02*
X0084445Y0062669D01*
X0084572Y0061547D01*
X0084823Y0060446D01*
X0085196Y0059381D01*
X0085685Y0058364D01*
X0086286Y0057408D01*
X0086990Y0056526D01*
X0087788Y0055728D01*
X0088670Y0055024D01*
X0089626Y0054423D01*
X0090643Y0053933D01*
X0091709Y0053561D01*
X0092809Y0053309D01*
X0093931Y0053183D01*
X0094195Y0053183D01*
X0094195Y0062933D01*
X0084445Y0062933D01*
X0084445Y0063533D02*
X0094195Y0063533D01*
X0094195Y0062933D01*
X0094795Y0062933D01*
X0094795Y0053183D01*
X0095060Y0053183D01*
X0096181Y0053309D01*
X0097282Y0053561D01*
X0098347Y0053933D01*
X0099364Y0054423D01*
X0100320Y0055024D01*
X0101202Y0055728D01*
X0102001Y0056526D01*
X0102704Y0057408D01*
X0103305Y0058364D01*
X0103795Y0059381D01*
X0104168Y0060446D01*
X0104419Y0061547D01*
X0104545Y0062669D01*
X0104545Y0062933D01*
X0094795Y0062933D01*
X0094795Y0063533D01*
X0094195Y0063533D01*
X0094195Y0073283D01*
X0093931Y0073283D01*
X0092809Y0073157D01*
X0091709Y0072905D01*
X0090643Y0072533D01*
X0089626Y0072043D01*
X0088670Y0071442D01*
X0087788Y0070739D01*
X0086990Y0069940D01*
X0086286Y0069058D01*
X0085685Y0068102D01*
X0085196Y0067085D01*
X0084823Y0066020D01*
X0084572Y0064919D01*
X0084445Y0063797D01*
X0084445Y0063533D01*
X0084446Y0063802D02*
X0083395Y0063802D01*
X0084446Y0063802D01*
X0084513Y0064400D02*
X0083395Y0064400D01*
X0084513Y0064400D01*
X0084590Y0064999D02*
X0083395Y0064999D01*
X0084590Y0064999D01*
X0084726Y0065597D02*
X0083395Y0065597D01*
X0084726Y0065597D01*
X0084884Y0066196D02*
X0083395Y0066196D01*
X0084884Y0066196D01*
X0085094Y0066794D02*
X0083395Y0066794D01*
X0085094Y0066794D01*
X0085344Y0067393D02*
X0083395Y0067393D01*
X0085344Y0067393D01*
X0085632Y0067991D02*
X0083395Y0067991D01*
X0085632Y0067991D01*
X0085992Y0068590D02*
X0083395Y0068590D01*
X0085992Y0068590D01*
X0086390Y0069188D02*
X0083395Y0069188D01*
X0086390Y0069188D01*
X0086867Y0069787D02*
X0083395Y0069787D01*
X0086867Y0069787D01*
X0087435Y0070385D02*
X0083395Y0070385D01*
X0087435Y0070385D01*
X0088095Y0070984D02*
X0083395Y0070984D01*
X0088096Y0070984D01*
X0088295Y0071582D02*
X0083395Y0071582D01*
X0088893Y0071582D01*
X0088295Y0072181D02*
X0083395Y0072181D01*
X0089913Y0072181D01*
X0091348Y0072779D02*
X0083395Y0072779D01*
X0088295Y0072779D01*
X0088295Y0073378D02*
X0083395Y0073378D01*
X0101341Y0073378D01*
X0102154Y0072779D02*
X0097642Y0072779D01*
X0097282Y0072905D02*
X0096181Y0073157D01*
X0095060Y0073283D01*
X0094795Y0073283D01*
X0094795Y0063533D01*
X0104545Y0063533D01*
X0104545Y0063797D01*
X0104419Y0064919D01*
X0104168Y0066020D01*
X0103795Y0067085D01*
X0103305Y0068102D01*
X0102704Y0069058D01*
X0102001Y0069940D01*
X0101202Y0070739D01*
X0100320Y0071442D01*
X0099364Y0072043D01*
X0098347Y0072533D01*
X0097282Y0072905D01*
X0099078Y0072181D02*
X0102852Y0072181D01*
X0103461Y0071582D02*
X0100097Y0071582D01*
X0100895Y0070984D02*
X0103989Y0070984D01*
X0104445Y0070385D02*
X0101556Y0070385D01*
X0102123Y0069787D02*
X0104875Y0069787D01*
X0105208Y0069188D02*
X0102600Y0069188D01*
X0102998Y0068590D02*
X0105541Y0068590D01*
X0105804Y0067991D02*
X0103358Y0067991D01*
X0103647Y0067393D02*
X0106033Y0067393D01*
X0106262Y0066794D02*
X0103896Y0066794D01*
X0104106Y0066196D02*
X0106402Y0066196D01*
X0106537Y0065597D02*
X0104264Y0065597D01*
X0104401Y0064999D02*
X0106662Y0064999D01*
X0106710Y0064400D02*
X0104477Y0064400D01*
X0104545Y0063802D02*
X0106758Y0063802D01*
X0106795Y0063203D02*
X0094795Y0063203D01*
X0094795Y0062605D02*
X0094195Y0062605D01*
X0094195Y0063203D02*
X0083397Y0063203D01*
X0084879Y0057817D02*
X0086029Y0057817D01*
X0084879Y0057817D01*
X0085314Y0057218D02*
X0086437Y0057218D01*
X0085314Y0057218D01*
X0085749Y0056620D02*
X0086915Y0056620D01*
X0085749Y0056620D01*
X0086915Y0056620D01*
X0087494Y0056021D02*
X0086183Y0056021D01*
X0087494Y0056021D01*
X0086183Y0056021D01*
X0086618Y0055423D02*
X0088170Y0055423D01*
X0086618Y0055423D01*
X0088170Y0055423D01*
X0088295Y0054824D02*
X0087417Y0054824D01*
X0088988Y0054824D01*
X0087417Y0054824D01*
X0088241Y0054226D02*
X0088295Y0054226D01*
X0088241Y0054226D02*
X0090036Y0054226D01*
X0088241Y0054226D01*
X0089065Y0053627D02*
X0091519Y0053627D01*
X0089065Y0053627D01*
X0090423Y0053029D02*
X0320767Y0053029D01*
X0304495Y0053029D01*
X0304495Y0053627D02*
X0313719Y0053627D01*
X0097472Y0053627D01*
X0106795Y0053627D01*
X0106795Y0053029D02*
X0090423Y0053029D01*
X0092265Y0052430D02*
X0318925Y0052430D01*
X0304495Y0052430D01*
X0304495Y0054226D02*
X0312236Y0054226D01*
X0098954Y0054226D01*
X0106795Y0054226D01*
X0106795Y0054824D02*
X0100002Y0054824D01*
X0311188Y0054824D01*
X0304495Y0054824D01*
X0304495Y0055423D02*
X0310370Y0055423D01*
X0100820Y0055423D01*
X0106795Y0055423D01*
X0106795Y0056021D02*
X0101496Y0056021D01*
X0309694Y0056021D01*
X0304495Y0056021D01*
X0304495Y0056620D02*
X0309115Y0056620D01*
X0102076Y0056620D01*
X0106795Y0056620D01*
X0106795Y0057218D02*
X0102553Y0057218D01*
X0102961Y0057817D02*
X0106795Y0057817D01*
X0106795Y0058415D02*
X0103330Y0058415D01*
X0103618Y0059014D02*
X0106795Y0059014D01*
X0106795Y0059612D02*
X0103876Y0059612D01*
X0104085Y0060211D02*
X0106795Y0060211D01*
X0106795Y0060809D02*
X0104250Y0060809D01*
X0104387Y0061408D02*
X0106795Y0061408D01*
X0106795Y0062006D02*
X0104470Y0062006D01*
X0104538Y0062605D02*
X0106795Y0062605D01*
X0106795Y0052430D02*
X0092265Y0052430D01*
X0094195Y0053627D02*
X0094795Y0053627D01*
X0094195Y0053627D01*
X0094195Y0054226D02*
X0094795Y0054226D01*
X0094195Y0054226D01*
X0094195Y0054824D02*
X0094795Y0054824D01*
X0094195Y0054824D01*
X0094195Y0055423D02*
X0094795Y0055423D01*
X0094195Y0055423D01*
X0094195Y0056021D02*
X0094795Y0056021D01*
X0094195Y0056021D01*
X0094195Y0056620D02*
X0094795Y0056620D01*
X0094195Y0056620D01*
X0094195Y0057218D02*
X0094795Y0057218D01*
X0094795Y0057817D02*
X0094195Y0057817D01*
X0094195Y0058415D02*
X0094795Y0058415D01*
X0094795Y0059014D02*
X0094195Y0059014D01*
X0094195Y0059612D02*
X0094795Y0059612D01*
X0094795Y0060211D02*
X0094195Y0060211D01*
X0094195Y0060809D02*
X0094795Y0060809D01*
X0094795Y0061408D02*
X0094195Y0061408D01*
X0094195Y0062006D02*
X0094795Y0062006D01*
X0094795Y0063802D02*
X0094195Y0063802D01*
X0094195Y0064400D02*
X0094795Y0064400D01*
X0094795Y0064999D02*
X0094195Y0064999D01*
X0094195Y0065597D02*
X0094795Y0065597D01*
X0094795Y0066196D02*
X0094195Y0066196D01*
X0094195Y0066794D02*
X0094795Y0066794D01*
X0094795Y0067393D02*
X0094195Y0067393D01*
X0094195Y0067991D02*
X0094795Y0067991D01*
X0094795Y0068590D02*
X0094195Y0068590D01*
X0094195Y0069188D02*
X0094795Y0069188D01*
X0094795Y0069787D02*
X0094195Y0069787D01*
X0094195Y0070385D02*
X0094795Y0070385D01*
X0094795Y0070984D02*
X0094195Y0070984D01*
X0094195Y0071582D02*
X0094795Y0071582D01*
X0094795Y0072181D02*
X0094195Y0072181D01*
X0094195Y0072779D02*
X0094795Y0072779D01*
X0096948Y0075174D02*
X0083395Y0075174D01*
X0088295Y0075174D01*
X0088295Y0075772D02*
X0083395Y0075772D01*
X0083395Y0076371D02*
X0088295Y0076371D01*
X0088295Y0076969D02*
X0083395Y0076969D01*
X0083395Y0077568D02*
X0088295Y0077568D01*
X0088295Y0078166D02*
X0083395Y0078166D01*
X0083395Y0078765D02*
X0088295Y0078765D01*
X0088295Y0079363D02*
X0083395Y0079363D01*
X0083395Y0079962D02*
X0088295Y0079962D01*
X0088295Y0080560D02*
X0083395Y0080560D01*
X0083395Y0081159D02*
X0088295Y0081159D01*
X0088295Y0081757D02*
X0083395Y0081757D01*
X0083395Y0082356D02*
X0088295Y0082356D01*
X0088295Y0082954D02*
X0083395Y0082954D01*
X0083395Y0083553D02*
X0088295Y0083553D01*
X0088295Y0084151D02*
X0083395Y0084151D01*
X0083395Y0084750D02*
X0088295Y0084750D01*
X0088295Y0085348D02*
X0083395Y0085348D01*
X0083395Y0085947D02*
X0088295Y0085947D01*
X0088295Y0086545D02*
X0083395Y0086545D01*
X0083395Y0087144D02*
X0088295Y0087144D01*
X0088295Y0087742D02*
X0083395Y0087742D01*
X0083395Y0088341D02*
X0088295Y0088341D01*
X0088295Y0088939D02*
X0083395Y0088939D01*
X0083395Y0089538D02*
X0088295Y0089538D01*
X0088295Y0090136D02*
X0083395Y0090136D01*
X0083395Y0090735D02*
X0088295Y0090735D01*
X0088295Y0091333D02*
X0083395Y0091333D01*
X0083395Y0091932D02*
X0088295Y0091932D01*
X0088295Y0092530D02*
X0083395Y0092530D01*
X0083395Y0093129D02*
X0088295Y0093129D01*
X0088295Y0093727D02*
X0083395Y0093727D01*
X0083395Y0094326D02*
X0088295Y0094326D01*
X0088295Y0094924D02*
X0083395Y0094924D01*
X0083395Y0095523D02*
X0088295Y0095523D01*
X0088295Y0096121D02*
X0083395Y0096121D01*
X0083395Y0096720D02*
X0088295Y0096720D01*
X0088295Y0097318D02*
X0083395Y0097318D01*
X0083395Y0097917D02*
X0088295Y0097917D01*
X0088295Y0098515D02*
X0083395Y0098515D01*
X0083395Y0099114D02*
X0088295Y0099114D01*
X0088295Y0099712D02*
X0083395Y0099712D01*
X0083395Y0100311D02*
X0088295Y0100311D01*
X0088295Y0100910D02*
X0083395Y0100910D01*
X0083395Y0101508D02*
X0088295Y0101508D01*
X0088295Y0102107D02*
X0083395Y0102107D01*
X0083395Y0102705D02*
X0088295Y0102705D01*
X0088295Y0103304D02*
X0083395Y0103304D01*
X0083395Y0103902D02*
X0088295Y0103902D01*
X0088295Y0104501D02*
X0083395Y0104501D01*
X0083395Y0105099D02*
X0088295Y0105099D01*
X0088295Y0105698D02*
X0083395Y0105698D01*
X0083395Y0106296D02*
X0088295Y0106296D01*
X0088295Y0106895D02*
X0083395Y0106895D01*
X0083395Y0107493D02*
X0088295Y0107493D01*
X0088295Y0108092D02*
X0083395Y0108092D01*
X0083395Y0108690D02*
X0088295Y0108690D01*
X0088295Y0109289D02*
X0083395Y0109289D01*
X0083395Y0109887D02*
X0088295Y0109887D01*
X0088295Y0110486D02*
X0083395Y0110486D01*
X0083395Y0111084D02*
X0088295Y0111084D01*
X0088295Y0111683D02*
X0083395Y0111683D01*
X0083395Y0112281D02*
X0088295Y0112281D01*
X0088295Y0112880D02*
X0083395Y0112880D01*
X0083395Y0113478D02*
X0088295Y0113478D01*
X0088295Y0114077D02*
X0083395Y0114077D01*
X0083395Y0114675D02*
X0088295Y0114675D01*
X0088295Y0115274D02*
X0083395Y0115274D01*
X0083395Y0115872D02*
X0088295Y0115872D01*
X0088295Y0116471D02*
X0083395Y0116471D01*
X0083395Y0117069D02*
X0088295Y0117069D01*
X0088295Y0117668D02*
X0083395Y0117668D01*
X0083395Y0118266D02*
X0088295Y0118266D01*
X0088295Y0118865D02*
X0083395Y0118865D01*
X0083395Y0119463D02*
X0088295Y0119463D01*
X0088295Y0120062D02*
X0083395Y0120062D01*
X0083395Y0120660D02*
X0088295Y0120660D01*
X0088295Y0121259D02*
X0083395Y0121259D01*
X0083395Y0121857D02*
X0088295Y0121857D01*
X0088295Y0122456D02*
X0083395Y0122456D01*
X0083395Y0123054D02*
X0088295Y0123054D01*
X0088295Y0123653D02*
X0083395Y0123653D01*
X0083395Y0124251D02*
X0088295Y0124251D01*
X0088295Y0124850D02*
X0083395Y0124850D01*
X0083395Y0125448D02*
X0088295Y0125448D01*
X0088295Y0126047D02*
X0083395Y0126047D01*
X0083395Y0126645D02*
X0088295Y0126645D01*
X0088295Y0127244D02*
X0083395Y0127244D01*
X0083395Y0127843D02*
X0088295Y0127843D01*
X0088295Y0128441D02*
X0083395Y0128441D01*
X0083395Y0129040D02*
X0088295Y0129040D01*
X0088295Y0129638D02*
X0083395Y0129638D01*
X0083395Y0130237D02*
X0088295Y0130237D01*
X0088295Y0130835D02*
X0083395Y0130835D01*
X0083395Y0131434D02*
X0088295Y0131434D01*
X0088295Y0132032D02*
X0083395Y0132032D01*
X0083395Y0132631D02*
X0088295Y0132631D01*
X0088295Y0133229D02*
X0083395Y0133229D01*
X0083395Y0133828D02*
X0088295Y0133828D01*
X0088295Y0134426D02*
X0083395Y0134426D01*
X0083395Y0135025D02*
X0088295Y0135025D01*
X0088295Y0135623D02*
X0083395Y0135623D01*
X0083395Y0136222D02*
X0088295Y0136222D01*
X0088295Y0136820D02*
X0083395Y0136820D01*
X0083395Y0137419D02*
X0088295Y0137419D01*
X0088295Y0138017D02*
X0083395Y0138017D01*
X0083395Y0138616D02*
X0088295Y0138616D01*
X0088295Y0139214D02*
X0083395Y0139214D01*
X0083395Y0139813D02*
X0088295Y0139813D01*
X0088295Y0140411D02*
X0083395Y0140411D01*
X0083395Y0141010D02*
X0088295Y0141010D01*
X0088295Y0141608D02*
X0083395Y0141608D01*
X0083395Y0142207D02*
X0088295Y0142207D01*
X0088295Y0142805D02*
X0083395Y0142805D01*
X0083395Y0143404D02*
X0088295Y0143404D01*
X0088295Y0144002D02*
X0083395Y0144002D01*
X0083395Y0144601D02*
X0088295Y0144601D01*
X0088295Y0145199D02*
X0083395Y0145199D01*
X0083395Y0145798D02*
X0088295Y0145798D01*
X0088295Y0146396D02*
X0083395Y0146396D01*
X0083395Y0146995D02*
X0088295Y0146995D01*
X0088295Y0147593D02*
X0083395Y0147593D01*
X0083395Y0148192D02*
X0088295Y0148192D01*
X0088295Y0148790D02*
X0083395Y0148790D01*
X0083395Y0149389D02*
X0088295Y0149389D01*
X0088295Y0149987D02*
X0083395Y0149987D01*
X0083395Y0150586D02*
X0088295Y0150586D01*
X0088295Y0151184D02*
X0083395Y0151184D01*
X0083395Y0151783D02*
X0088295Y0151783D01*
X0088295Y0152381D02*
X0083395Y0152381D01*
X0083395Y0152980D02*
X0088295Y0152980D01*
X0088295Y0153579D02*
X0083395Y0153579D01*
X0083395Y0154177D02*
X0088295Y0154177D01*
X0088295Y0154776D02*
X0083395Y0154776D01*
X0083395Y0155374D02*
X0088295Y0155374D01*
X0088295Y0155973D02*
X0083395Y0155973D01*
X0083395Y0156571D02*
X0088295Y0156571D01*
X0088295Y0157170D02*
X0083395Y0157170D01*
X0083395Y0157768D02*
X0088295Y0157768D01*
X0088295Y0158367D02*
X0083395Y0158367D01*
X0083395Y0158965D02*
X0088295Y0158965D01*
X0088295Y0159564D02*
X0083395Y0159564D01*
X0083395Y0160162D02*
X0088295Y0160162D01*
X0088295Y0160761D02*
X0083395Y0160761D01*
X0083395Y0161359D02*
X0088295Y0161359D01*
X0088295Y0161958D02*
X0083395Y0161958D01*
X0083395Y0162556D02*
X0088295Y0162556D01*
X0088295Y0163155D02*
X0083395Y0163155D01*
X0083395Y0163753D02*
X0088295Y0163753D01*
X0088295Y0164352D02*
X0083395Y0164352D01*
X0083395Y0164950D02*
X0088295Y0164950D01*
X0088295Y0165549D02*
X0083395Y0165549D01*
X0083395Y0166147D02*
X0088295Y0166147D01*
X0088295Y0166746D02*
X0083395Y0166746D01*
X0083395Y0167344D02*
X0088295Y0167344D01*
X0088295Y0167943D02*
X0083395Y0167943D01*
X0083395Y0168541D02*
X0088295Y0168541D01*
X0088295Y0169140D02*
X0083395Y0169140D01*
X0083395Y0169738D02*
X0088295Y0169738D01*
X0088295Y0170337D02*
X0083395Y0170337D01*
X0083395Y0170935D02*
X0088295Y0170935D01*
X0088295Y0171534D02*
X0083395Y0171534D01*
X0083395Y0172132D02*
X0088295Y0172132D01*
X0088295Y0172731D02*
X0083395Y0172731D01*
X0083395Y0173329D02*
X0088295Y0173329D01*
X0088295Y0173928D02*
X0083395Y0173928D01*
X0083395Y0174526D02*
X0088295Y0174526D01*
X0088295Y0175125D02*
X0083395Y0175125D01*
X0083395Y0175723D02*
X0088295Y0175723D01*
X0088295Y0176322D02*
X0083395Y0176322D01*
X0083395Y0176920D02*
X0088295Y0176920D01*
X0088295Y0177519D02*
X0083395Y0177519D01*
X0083395Y0178117D02*
X0088295Y0178117D01*
X0088295Y0178716D02*
X0083395Y0178716D01*
X0083395Y0179314D02*
X0088295Y0179314D01*
X0088295Y0179913D02*
X0083395Y0179913D01*
X0083395Y0180512D02*
X0088295Y0180512D01*
X0088295Y0181110D02*
X0083395Y0181110D01*
X0083395Y0181709D02*
X0088295Y0181709D01*
X0088295Y0182307D02*
X0083395Y0182307D01*
X0083395Y0182906D02*
X0088295Y0182906D01*
X0088295Y0183504D02*
X0083395Y0183504D01*
X0083395Y0184103D02*
X0088295Y0184103D01*
X0088295Y0184701D02*
X0083395Y0184701D01*
X0083395Y0185300D02*
X0088295Y0185300D01*
X0088295Y0185898D02*
X0083395Y0185898D01*
X0083395Y0186497D02*
X0088295Y0186497D01*
X0088295Y0187095D02*
X0083395Y0187095D01*
X0083395Y0187694D02*
X0088295Y0187694D01*
X0088295Y0188292D02*
X0083395Y0188292D01*
X0083395Y0188891D02*
X0088295Y0188891D01*
X0088295Y0189489D02*
X0083395Y0189489D01*
X0083395Y0190088D02*
X0088295Y0190088D01*
X0088295Y0190686D02*
X0083395Y0190686D01*
X0083395Y0191285D02*
X0088295Y0191285D01*
X0088295Y0191883D02*
X0083395Y0191883D01*
X0083395Y0192482D02*
X0088295Y0192482D01*
X0088295Y0193080D02*
X0083395Y0193080D01*
X0083395Y0193679D02*
X0088295Y0193679D01*
X0088295Y0194277D02*
X0083395Y0194277D01*
X0083395Y0194876D02*
X0088295Y0194876D01*
X0088295Y0195474D02*
X0083395Y0195474D01*
X0083395Y0196073D02*
X0088295Y0196073D01*
X0088295Y0196671D02*
X0083395Y0196671D01*
X0083395Y0197270D02*
X0088295Y0197270D01*
X0088295Y0197868D02*
X0083395Y0197868D01*
X0083395Y0198467D02*
X0088295Y0198467D01*
X0088295Y0199065D02*
X0083395Y0199065D01*
X0083395Y0199664D02*
X0088295Y0199664D01*
X0088295Y0200262D02*
X0083395Y0200262D01*
X0083395Y0200861D02*
X0088295Y0200861D01*
X0088295Y0201459D02*
X0083395Y0201459D01*
X0083395Y0202058D02*
X0088295Y0202058D01*
X0088295Y0202656D02*
X0083395Y0202656D01*
X0083395Y0203255D02*
X0088295Y0203255D01*
X0088295Y0203853D02*
X0083395Y0203853D01*
X0083395Y0204452D02*
X0088295Y0204452D01*
X0088295Y0205050D02*
X0083395Y0205050D01*
X0083395Y0205649D02*
X0088295Y0205649D01*
X0088295Y0206248D02*
X0083395Y0206248D01*
X0083395Y0206846D02*
X0088295Y0206846D01*
X0088295Y0207445D02*
X0083395Y0207445D01*
X0083395Y0208043D02*
X0088295Y0208043D01*
X0088295Y0208642D02*
X0083395Y0208642D01*
X0083395Y0209240D02*
X0088295Y0209240D01*
X0088295Y0209839D02*
X0083395Y0209839D01*
X0083395Y0210437D02*
X0088295Y0210437D01*
X0088295Y0211036D02*
X0083395Y0211036D01*
X0083395Y0211634D02*
X0088295Y0211634D01*
X0088295Y0212233D02*
X0083395Y0212233D01*
X0083395Y0212831D02*
X0088295Y0212831D01*
X0088295Y0213430D02*
X0083395Y0213430D01*
X0083395Y0214028D02*
X0088295Y0214028D01*
X0088295Y0214627D02*
X0083395Y0214627D01*
X0083395Y0215225D02*
X0088295Y0215225D01*
X0088295Y0215824D02*
X0083395Y0215824D01*
X0083395Y0216422D02*
X0088295Y0216422D01*
X0088295Y0217021D02*
X0083395Y0217021D01*
X0083395Y0217619D02*
X0088295Y0217619D01*
X0088295Y0218218D02*
X0083395Y0218218D01*
X0083395Y0218816D02*
X0088295Y0218816D01*
X0088295Y0219415D02*
X0083395Y0219415D01*
X0083395Y0220013D02*
X0088295Y0220013D01*
X0088295Y0220612D02*
X0083395Y0220612D01*
X0083395Y0221210D02*
X0088295Y0221210D01*
X0088295Y0221809D02*
X0083395Y0221809D01*
X0083395Y0222407D02*
X0088295Y0222407D01*
X0088295Y0223006D02*
X0083395Y0223006D01*
X0083395Y0223604D02*
X0088295Y0223604D01*
X0088295Y0224203D02*
X0083395Y0224203D01*
X0083395Y0224801D02*
X0088295Y0224801D01*
X0088295Y0225400D02*
X0083395Y0225400D01*
X0083395Y0225998D02*
X0088295Y0225998D01*
X0088295Y0226597D02*
X0083395Y0226597D01*
X0083395Y0227195D02*
X0088295Y0227195D01*
X0088295Y0227794D02*
X0083395Y0227794D01*
X0083395Y0228392D02*
X0088295Y0228392D01*
X0088295Y0228991D02*
X0083395Y0228991D01*
X0083395Y0229589D02*
X0088295Y0229589D01*
X0088295Y0230188D02*
X0083395Y0230188D01*
X0083395Y0230786D02*
X0088295Y0230786D01*
X0088295Y0231385D02*
X0083395Y0231385D01*
X0083395Y0231983D02*
X0088295Y0231983D01*
X0088295Y0232582D02*
X0083395Y0232582D01*
X0083395Y0233181D02*
X0088295Y0233181D01*
X0088295Y0233779D02*
X0083395Y0233779D01*
X0083395Y0234378D02*
X0088295Y0234378D01*
X0088295Y0234976D02*
X0083395Y0234976D01*
X0083395Y0235575D02*
X0088295Y0235575D01*
X0088295Y0236173D02*
X0083395Y0236173D01*
X0083395Y0236772D02*
X0088295Y0236772D01*
X0088295Y0237370D02*
X0083395Y0237370D01*
X0083395Y0237969D02*
X0088295Y0237969D01*
X0088295Y0238567D02*
X0083395Y0238567D01*
X0083395Y0239166D02*
X0088295Y0239166D01*
X0088295Y0239764D02*
X0083395Y0239764D01*
X0083395Y0240363D02*
X0088295Y0240363D01*
X0088295Y0240961D02*
X0083395Y0240961D01*
X0083395Y0241560D02*
X0088295Y0241560D01*
X0088295Y0242158D02*
X0083395Y0242158D01*
X0083395Y0242757D02*
X0088295Y0242757D01*
X0088295Y0243355D02*
X0083395Y0243355D01*
X0083395Y0243954D02*
X0088295Y0243954D01*
X0088295Y0244552D02*
X0083395Y0244552D01*
X0083395Y0245151D02*
X0088295Y0245151D01*
X0088295Y0245749D02*
X0083395Y0245749D01*
X0083395Y0246348D02*
X0088295Y0246348D01*
X0088295Y0246946D02*
X0083395Y0246946D01*
X0083395Y0247545D02*
X0088295Y0247545D01*
X0088295Y0248143D02*
X0083395Y0248143D01*
X0083395Y0248742D02*
X0088295Y0248742D01*
X0088295Y0249340D02*
X0083395Y0249340D01*
X0083395Y0249939D02*
X0088295Y0249939D01*
X0088295Y0250537D02*
X0083395Y0250537D01*
X0083395Y0251136D02*
X0088295Y0251136D01*
X0088295Y0251734D02*
X0083395Y0251734D01*
X0083395Y0252333D02*
X0088295Y0252333D01*
X0088295Y0252931D02*
X0083395Y0252931D01*
X0083395Y0253530D02*
X0088295Y0253530D01*
X0088295Y0254128D02*
X0083395Y0254128D01*
X0083395Y0254727D02*
X0088295Y0254727D01*
X0088295Y0255325D02*
X0083395Y0255325D01*
X0083395Y0255924D02*
X0088295Y0255924D01*
X0088295Y0256522D02*
X0083395Y0256522D01*
X0083395Y0257121D02*
X0088295Y0257121D01*
X0088295Y0257719D02*
X0083395Y0257719D01*
X0083395Y0258318D02*
X0088295Y0258318D01*
X0088295Y0258916D02*
X0083395Y0258916D01*
X0083395Y0259515D02*
X0088295Y0259515D01*
X0088295Y0260114D02*
X0083395Y0260114D01*
X0083395Y0260712D02*
X0088295Y0260712D01*
X0088295Y0261311D02*
X0083395Y0261311D01*
X0083395Y0261909D02*
X0088295Y0261909D01*
X0088295Y0262508D02*
X0083395Y0262508D01*
X0083395Y0263106D02*
X0088295Y0263106D01*
X0088295Y0263705D02*
X0083395Y0263705D01*
X0083395Y0264303D02*
X0088295Y0264303D01*
X0088295Y0264902D02*
X0083395Y0264902D01*
X0083395Y0265500D02*
X0088295Y0265500D01*
X0088295Y0266099D02*
X0083395Y0266099D01*
X0083395Y0266697D02*
X0088295Y0266697D01*
X0088295Y0267296D02*
X0083395Y0267296D01*
X0083395Y0267894D02*
X0088295Y0267894D01*
X0088295Y0268493D02*
X0083395Y0268493D01*
X0083395Y0269091D02*
X0088295Y0269091D01*
X0088295Y0269690D02*
X0083395Y0269690D01*
X0083395Y0270288D02*
X0088295Y0270288D01*
X0088295Y0270887D02*
X0083395Y0270887D01*
X0083395Y0271485D02*
X0088295Y0271485D01*
X0088295Y0272084D02*
X0083395Y0272084D01*
X0083395Y0272682D02*
X0088295Y0272682D01*
X0088295Y0273281D02*
X0083395Y0273281D01*
X0083395Y0273879D02*
X0088295Y0273879D01*
X0088295Y0274478D02*
X0083395Y0274478D01*
X0083395Y0275076D02*
X0088295Y0275076D01*
X0088295Y0275675D02*
X0083395Y0275675D01*
X0083395Y0276273D02*
X0088295Y0276273D01*
X0088295Y0276872D02*
X0083395Y0276872D01*
X0083395Y0277470D02*
X0088295Y0277470D01*
X0088295Y0278069D02*
X0083395Y0278069D01*
X0083395Y0278667D02*
X0088295Y0278667D01*
X0088295Y0279266D02*
X0083395Y0279266D01*
X0083395Y0279864D02*
X0088295Y0279864D01*
X0088295Y0280463D02*
X0083395Y0280463D01*
X0083395Y0281061D02*
X0088295Y0281061D01*
X0088295Y0281660D02*
X0083395Y0281660D01*
X0083395Y0282258D02*
X0088295Y0282258D01*
X0088295Y0282857D02*
X0083395Y0282857D01*
X0083395Y0283455D02*
X0088295Y0283455D01*
X0088295Y0284054D02*
X0083395Y0284054D01*
X0083395Y0284652D02*
X0088295Y0284652D01*
X0088295Y0285251D02*
X0083395Y0285251D01*
X0083395Y0285850D02*
X0088295Y0285850D01*
X0088295Y0286448D02*
X0083395Y0286448D01*
X0083395Y0287047D02*
X0088295Y0287047D01*
X0088295Y0287645D02*
X0083395Y0287645D01*
X0083395Y0288244D02*
X0088295Y0288244D01*
X0088295Y0288842D02*
X0083395Y0288842D01*
X0083395Y0289441D02*
X0088295Y0289441D01*
X0088295Y0290039D02*
X0083395Y0290039D01*
X0083395Y0290638D02*
X0088295Y0290638D01*
X0088295Y0291236D02*
X0083395Y0291236D01*
X0083395Y0291835D02*
X0088295Y0291835D01*
X0088295Y0292433D02*
X0083395Y0292433D01*
X0083395Y0293032D02*
X0088295Y0293032D01*
X0088295Y0293630D02*
X0083395Y0293630D01*
X0083395Y0294229D02*
X0088295Y0294229D01*
X0088295Y0294827D02*
X0083395Y0294827D01*
X0083395Y0295426D02*
X0088295Y0295426D01*
X0088295Y0296024D02*
X0083395Y0296024D01*
X0083395Y0296623D02*
X0088295Y0296623D01*
X0088295Y0297221D02*
X0083395Y0297221D01*
X0083395Y0297820D02*
X0088295Y0297820D01*
X0088295Y0298418D02*
X0083395Y0298418D01*
X0083395Y0299017D02*
X0088295Y0299017D01*
X0088295Y0299615D02*
X0083395Y0299615D01*
X0083395Y0300214D02*
X0088295Y0300214D01*
X0088295Y0300812D02*
X0083395Y0300812D01*
X0083395Y0301411D02*
X0088295Y0301411D01*
X0088295Y0302009D02*
X0083395Y0302009D01*
X0083395Y0302608D02*
X0088295Y0302608D01*
X0088295Y0303206D02*
X0083395Y0303206D01*
X0083395Y0303805D02*
X0088295Y0303805D01*
X0088295Y0304403D02*
X0083395Y0304403D01*
X0083395Y0305002D02*
X0088295Y0305002D01*
X0088295Y0305600D02*
X0083395Y0305600D01*
X0083395Y0306199D02*
X0088295Y0306199D01*
X0088295Y0306797D02*
X0083395Y0306797D01*
X0083395Y0307396D02*
X0088295Y0307396D01*
X0088295Y0307994D02*
X0083395Y0307994D01*
X0083395Y0308593D02*
X0088295Y0308593D01*
X0088295Y0309191D02*
X0083395Y0309191D01*
X0083395Y0309790D02*
X0088295Y0309790D01*
X0088295Y0310388D02*
X0083395Y0310388D01*
X0083395Y0310987D02*
X0088295Y0310987D01*
X0088295Y0311585D02*
X0083395Y0311585D01*
X0083395Y0312184D02*
X0088295Y0312184D01*
X0088295Y0312783D02*
X0083395Y0312783D01*
X0083395Y0313381D02*
X0088295Y0313381D01*
X0088295Y0313980D02*
X0083395Y0313980D01*
X0083395Y0314578D02*
X0088295Y0314578D01*
X0088295Y0315177D02*
X0083395Y0315177D01*
X0083395Y0315775D02*
X0088295Y0315775D01*
X0088295Y0316374D02*
X0083395Y0316374D01*
X0083395Y0316972D02*
X0088295Y0316972D01*
X0088295Y0317571D02*
X0083395Y0317571D01*
X0083395Y0318169D02*
X0088295Y0318169D01*
X0088295Y0318768D02*
X0083395Y0318768D01*
X0083395Y0319366D02*
X0088295Y0319366D01*
X0088295Y0319965D02*
X0083395Y0319965D01*
X0083395Y0320563D02*
X0088295Y0320563D01*
X0088295Y0321162D02*
X0083395Y0321162D01*
X0083395Y0321760D02*
X0088295Y0321760D01*
X0088295Y0322359D02*
X0083395Y0322359D01*
X0083395Y0322957D02*
X0088295Y0322957D01*
X0088295Y0323556D02*
X0083395Y0323556D01*
X0083395Y0324154D02*
X0088295Y0324154D01*
X0088295Y0324753D02*
X0083395Y0324753D01*
X0083395Y0325351D02*
X0088295Y0325351D01*
X0088295Y0325950D02*
X0083395Y0325950D01*
X0083395Y0326548D02*
X0088295Y0326548D01*
X0088295Y0327147D02*
X0083395Y0327147D01*
X0083395Y0327745D02*
X0088295Y0327745D01*
X0088295Y0328344D02*
X0083395Y0328344D01*
X0083395Y0328942D02*
X0088295Y0328942D01*
X0088295Y0329541D02*
X0083395Y0329541D01*
X0083395Y0330139D02*
X0088295Y0330139D01*
X0088295Y0330738D02*
X0083395Y0330738D01*
X0083395Y0331336D02*
X0088295Y0331336D01*
X0088295Y0331935D02*
X0083395Y0331935D01*
X0083395Y0332533D02*
X0088300Y0332533D01*
X0088305Y0333132D02*
X0083395Y0333132D01*
X0097091Y0333132D01*
X0096338Y0332965D02*
X0094595Y0332833D01*
X0083395Y0333111D01*
X0083395Y0345433D01*
X0083528Y0347123D01*
X0084572Y0350336D01*
X0086558Y0353070D01*
X0089292Y0355056D01*
X0092506Y0356100D01*
X0094195Y0356233D01*
X0106795Y0356233D01*
X0106795Y0345133D01*
X0106678Y0343389D01*
X0106313Y0341680D01*
X0105709Y0340040D01*
X0104878Y0338502D01*
X0103836Y0337099D01*
X0102605Y0335858D01*
X0101210Y0334805D01*
X0099679Y0333961D01*
X0098044Y0333343D01*
X0096338Y0332965D01*
X0096181Y0335209D02*
X0097282Y0335461D01*
X0098347Y0335833D01*
X0099364Y0336323D01*
X0100320Y0336924D01*
X0101202Y0337628D01*
X0102001Y0338426D01*
X0102704Y0339308D01*
X0103305Y0340264D01*
X0103795Y0341281D01*
X0104168Y0342346D01*
X0104419Y0343447D01*
X0104545Y0344569D01*
X0104545Y0344833D01*
X0094795Y0344833D01*
X0094795Y0335083D01*
X0095060Y0335083D01*
X0096181Y0335209D01*
X0097468Y0335526D02*
X0102165Y0335526D01*
X0102869Y0336124D02*
X0098951Y0336124D01*
X0100000Y0336723D02*
X0103463Y0336723D01*
X0104001Y0337321D02*
X0100819Y0337321D01*
X0101495Y0337920D02*
X0104445Y0337920D01*
X0104886Y0338519D02*
X0102075Y0338519D01*
X0102552Y0339117D02*
X0105210Y0339117D01*
X0105534Y0339716D02*
X0102960Y0339716D01*
X0103329Y0340314D02*
X0105810Y0340314D01*
X0106030Y0340913D02*
X0103617Y0340913D01*
X0103875Y0341511D02*
X0106251Y0341511D01*
X0106405Y0342110D02*
X0104085Y0342110D01*
X0104250Y0342708D02*
X0106532Y0342708D01*
X0106660Y0343307D02*
X0104387Y0343307D01*
X0104470Y0343905D02*
X0106712Y0343905D01*
X0106753Y0344504D02*
X0104538Y0344504D01*
X0104545Y0345433D02*
X0104545Y0345697D01*
X0104419Y0346819D01*
X0104168Y0347920D01*
X0103795Y0348985D01*
X0103305Y0350002D01*
X0102704Y0350958D01*
X0102001Y0351840D01*
X0101202Y0352639D01*
X0100320Y0353342D01*
X0099364Y0353943D01*
X0098347Y0354433D01*
X0097282Y0354805D01*
X0096181Y0355057D01*
X0095060Y0355183D01*
X0094795Y0355183D01*
X0094795Y0345433D01*
X0094195Y0345433D01*
X0094195Y0344833D01*
X0084445Y0344833D01*
X0084445Y0344569D01*
X0084572Y0343447D01*
X0084823Y0342346D01*
X0085196Y0341281D01*
X0085685Y0340264D01*
X0086286Y0339308D01*
X0086990Y0338426D01*
X0087788Y0337628D01*
X0088670Y0336924D01*
X0089626Y0336323D01*
X0090643Y0335833D01*
X0091709Y0335461D01*
X0092809Y0335209D01*
X0093931Y0335083D01*
X0094195Y0335083D01*
X0094195Y0344833D01*
X0094795Y0344833D01*
X0094795Y0345433D01*
X0104545Y0345433D01*
X0104545Y0345701D02*
X0106795Y0345701D01*
X0106795Y0346299D02*
X0104477Y0346299D01*
X0104401Y0346898D02*
X0106795Y0346898D01*
X0106795Y0347496D02*
X0104264Y0347496D01*
X0104106Y0348095D02*
X0106795Y0348095D01*
X0106795Y0348693D02*
X0103897Y0348693D01*
X0103647Y0349292D02*
X0106795Y0349292D01*
X0106795Y0349890D02*
X0103359Y0349890D01*
X0102999Y0350489D02*
X0106795Y0350489D01*
X0106795Y0351087D02*
X0102601Y0351087D01*
X0102124Y0351686D02*
X0309066Y0351686D01*
X0304695Y0351686D01*
X0304695Y0352284D02*
X0309633Y0352284D01*
X0101557Y0352284D01*
X0106795Y0352284D01*
X0106795Y0351686D02*
X0102124Y0351686D01*
X0100896Y0352883D02*
X0310294Y0352883D01*
X0304695Y0352883D01*
X0304695Y0353481D02*
X0311091Y0353481D01*
X0100099Y0353481D01*
X0106795Y0353481D01*
X0106795Y0352883D02*
X0100896Y0352883D01*
X0099080Y0354080D02*
X0312110Y0354080D01*
X0304695Y0354080D01*
X0304695Y0354678D02*
X0313545Y0354678D01*
X0097645Y0354678D01*
X0106795Y0354678D01*
X0106795Y0354080D02*
X0099080Y0354080D01*
X0094795Y0354080D02*
X0094195Y0354080D01*
X0094795Y0354080D01*
X0094795Y0354678D02*
X0094195Y0354678D01*
X0094795Y0354678D01*
X0094195Y0355183D02*
X0093931Y0355183D01*
X0092809Y0355057D01*
X0091709Y0354805D01*
X0090643Y0354433D01*
X0089626Y0353943D01*
X0088670Y0353342D01*
X0087788Y0352639D01*
X0086990Y0351840D01*
X0086286Y0350958D01*
X0085685Y0350002D01*
X0085196Y0348985D01*
X0084823Y0347920D01*
X0084572Y0346819D01*
X0084445Y0345697D01*
X0084445Y0345433D01*
X0094195Y0345433D01*
X0094195Y0355183D01*
X0094195Y0353481D02*
X0094795Y0353481D01*
X0094195Y0353481D01*
X0094195Y0352883D02*
X0094795Y0352883D01*
X0094195Y0352883D01*
X0094195Y0352284D02*
X0094795Y0352284D01*
X0094195Y0352284D01*
X0094195Y0351686D02*
X0094795Y0351686D01*
X0094195Y0351686D01*
X0094195Y0351087D02*
X0094795Y0351087D01*
X0094795Y0350489D02*
X0094195Y0350489D01*
X0094195Y0349890D02*
X0094795Y0349890D01*
X0094795Y0349292D02*
X0094195Y0349292D01*
X0094195Y0348693D02*
X0094795Y0348693D01*
X0094795Y0348095D02*
X0094195Y0348095D01*
X0094195Y0347496D02*
X0094795Y0347496D01*
X0094795Y0346898D02*
X0094195Y0346898D01*
X0094195Y0346299D02*
X0094795Y0346299D01*
X0094795Y0345701D02*
X0094195Y0345701D01*
X0094195Y0345102D02*
X0083395Y0345102D01*
X0088400Y0345102D01*
X0084452Y0344504D02*
X0083395Y0344504D01*
X0084452Y0344504D01*
X0084520Y0343905D02*
X0083395Y0343905D01*
X0084520Y0343905D01*
X0084604Y0343307D02*
X0083395Y0343307D01*
X0084604Y0343307D01*
X0084740Y0342708D02*
X0083395Y0342708D01*
X0084740Y0342708D01*
X0084906Y0342110D02*
X0083395Y0342110D01*
X0084906Y0342110D01*
X0085115Y0341511D02*
X0083395Y0341511D01*
X0085115Y0341511D01*
X0085373Y0340913D02*
X0083395Y0340913D01*
X0085373Y0340913D01*
X0085661Y0340314D02*
X0083395Y0340314D01*
X0085661Y0340314D01*
X0086030Y0339716D02*
X0083395Y0339716D01*
X0086030Y0339716D01*
X0086438Y0339117D02*
X0083395Y0339117D01*
X0086438Y0339117D01*
X0086916Y0338519D02*
X0083395Y0338519D01*
X0086916Y0338519D01*
X0087495Y0337920D02*
X0083395Y0337920D01*
X0087495Y0337920D01*
X0088172Y0337321D02*
X0083395Y0337321D01*
X0088172Y0337321D01*
X0088333Y0336723D02*
X0083395Y0336723D01*
X0088990Y0336723D01*
X0088328Y0336124D02*
X0083395Y0336124D01*
X0090039Y0336124D01*
X0091522Y0335526D02*
X0083395Y0335526D01*
X0088324Y0335526D01*
X0088319Y0334927D02*
X0083395Y0334927D01*
X0101373Y0334927D01*
X0100347Y0334329D02*
X0083395Y0334329D01*
X0088314Y0334329D01*
X0088309Y0333730D02*
X0083395Y0333730D01*
X0099069Y0333730D01*
X0094795Y0335526D02*
X0094195Y0335526D01*
X0094195Y0336124D02*
X0094795Y0336124D01*
X0094795Y0336723D02*
X0094195Y0336723D01*
X0094195Y0337321D02*
X0094795Y0337321D01*
X0094795Y0337920D02*
X0094195Y0337920D01*
X0094195Y0338519D02*
X0094795Y0338519D01*
X0094795Y0339117D02*
X0094195Y0339117D01*
X0094195Y0339716D02*
X0094795Y0339716D01*
X0094795Y0340314D02*
X0094195Y0340314D01*
X0094195Y0340913D02*
X0094795Y0340913D01*
X0094795Y0341511D02*
X0094195Y0341511D01*
X0094195Y0342110D02*
X0094795Y0342110D01*
X0094795Y0342708D02*
X0094195Y0342708D01*
X0094195Y0343307D02*
X0094795Y0343307D01*
X0094795Y0343905D02*
X0094195Y0343905D01*
X0094195Y0344504D02*
X0094795Y0344504D01*
X0094795Y0345102D02*
X0106793Y0345102D01*
X0106795Y0355277D02*
X0089972Y0355277D01*
X0320954Y0355277D01*
X0304695Y0355277D01*
X0304695Y0355875D02*
X0319112Y0355875D01*
X0091814Y0355875D01*
X0106795Y0355875D01*
X0091345Y0354678D02*
X0088772Y0354678D01*
X0091345Y0354678D01*
X0089910Y0354080D02*
X0087948Y0354080D01*
X0088471Y0354080D01*
X0087948Y0354080D02*
X0089910Y0354080D01*
X0088891Y0353481D02*
X0087125Y0353481D01*
X0088466Y0353481D01*
X0088891Y0353481D02*
X0087125Y0353481D01*
X0086422Y0352883D02*
X0088094Y0352883D01*
X0086422Y0352883D01*
X0088094Y0352883D01*
X0087433Y0352284D02*
X0085988Y0352284D01*
X0087433Y0352284D01*
X0085988Y0352284D01*
X0085553Y0351686D02*
X0086866Y0351686D01*
X0085553Y0351686D01*
X0086866Y0351686D01*
X0086389Y0351087D02*
X0085118Y0351087D01*
X0086389Y0351087D01*
X0085991Y0350489D02*
X0084683Y0350489D01*
X0085991Y0350489D01*
X0085631Y0349890D02*
X0084427Y0349890D01*
X0085631Y0349890D01*
X0085343Y0349292D02*
X0084233Y0349292D01*
X0085343Y0349292D01*
X0085093Y0348693D02*
X0084038Y0348693D01*
X0085093Y0348693D01*
X0084884Y0348095D02*
X0083844Y0348095D01*
X0084884Y0348095D01*
X0084726Y0347496D02*
X0083649Y0347496D01*
X0084726Y0347496D01*
X0084589Y0346898D02*
X0083510Y0346898D01*
X0084589Y0346898D01*
X0084513Y0346299D02*
X0083463Y0346299D01*
X0084513Y0346299D01*
X0084446Y0345701D02*
X0083416Y0345701D01*
X0084446Y0345701D01*
X0136495Y0345233D02*
X0136495Y0314533D01*
X0142495Y0308533D01*
X0148295Y0316233D02*
X0148295Y0332933D01*
X0143295Y0337933D01*
X0143295Y0327933D02*
X0143295Y0319433D01*
X0168995Y0293733D01*
X0168995Y0229133D01*
X0172595Y0225533D01*
X0175095Y0225533D01*
X0171295Y0230533D02*
X0170195Y0231633D01*
X0170195Y0294333D01*
X0148295Y0316233D01*
X0153295Y0320033D02*
X0153295Y0327933D01*
X0158295Y0332933D02*
X0158295Y0316833D01*
X0174895Y0300233D01*
X0174895Y0280633D01*
X0194895Y0260633D01*
X0200195Y0260633D01*
X0205995Y0254833D01*
X0211195Y0254833D01*
X0214995Y0251033D01*
X0214995Y0247333D01*
X0211795Y0244133D01*
X0211795Y0234733D01*
X0206895Y0229833D01*
X0206895Y0218533D01*
X0201595Y0216633D02*
X0205995Y0212233D01*
X0205995Y0202833D01*
X0211595Y0197233D01*
X0211595Y0185433D01*
X0206595Y0180433D01*
X0206595Y0161833D01*
X0191395Y0146633D01*
X0192895Y0144733D02*
X0226495Y0178333D01*
X0235895Y0178333D01*
X0242695Y0185133D01*
X0242695Y0210033D01*
X0246195Y0213533D01*
X0245195Y0215633D02*
X0237795Y0223033D01*
X0233795Y0223033D01*
X0225495Y0231333D01*
X0225495Y0253933D01*
X0244495Y0272933D01*
X0244495Y0291733D01*
X0239195Y0297033D01*
X0179895Y0297033D01*
X0163295Y0313633D01*
X0163295Y0327933D01*
X0158295Y0332933D02*
X0153295Y0337933D01*
X0163295Y0337933D02*
X0167495Y0333733D01*
X0167495Y0311233D01*
X0180495Y0298233D01*
X0239795Y0298233D01*
X0245695Y0292333D01*
X0245695Y0272433D01*
X0226695Y0253433D01*
X0226695Y0232033D01*
X0234495Y0224233D01*
X0238395Y0224233D01*
X0245795Y0216833D01*
X0250095Y0216833D01*
X0251795Y0215133D01*
X0251795Y0208433D01*
X0254095Y0207333D02*
X0254095Y0214533D01*
X0250595Y0218033D01*
X0246395Y0218033D01*
X0238995Y0225433D01*
X0235095Y0225433D01*
X0227895Y0232633D01*
X0227895Y0252833D01*
X0246895Y0271833D01*
X0246895Y0292933D01*
X0240395Y0299433D01*
X0181095Y0299433D01*
X0173295Y0307233D01*
X0173295Y0327933D01*
X0178295Y0332933D02*
X0178295Y0304033D01*
X0181695Y0300633D01*
X0240995Y0300633D01*
X0248095Y0293533D01*
X0248095Y0271333D01*
X0229095Y0252333D01*
X0229095Y0233233D01*
X0235695Y0226633D01*
X0239495Y0226633D01*
X0246895Y0219233D01*
X0251095Y0219233D01*
X0256695Y0213633D01*
X0256695Y0208233D01*
X0255595Y0205833D02*
X0254095Y0207333D01*
X0255595Y0205833D02*
X0259195Y0205833D01*
X0261695Y0208333D01*
X0262747Y0212833D02*
X0287547Y0212833D01*
X0297595Y0202785D01*
X0297595Y0187182D01*
X0288695Y0178282D01*
X0288695Y0137582D01*
X0276995Y0125882D01*
X0276995Y0105412D01*
X0273658Y0102075D01*
X0278195Y0105412D02*
X0281532Y0102075D01*
X0278295Y0105312D02*
X0278295Y0125485D01*
X0289895Y0137085D01*
X0289895Y0177785D01*
X0298795Y0186685D01*
X0298795Y0203282D01*
X0288044Y0214033D01*
X0263244Y0214033D01*
X0253444Y0223833D01*
X0249344Y0223833D01*
X0246795Y0226382D01*
X0246795Y0240285D01*
X0249795Y0243285D01*
X0249795Y0246433D01*
X0251695Y0248333D01*
X0248595Y0246433D02*
X0248595Y0243782D01*
X0245595Y0240782D01*
X0245595Y0225885D01*
X0248847Y0222633D01*
X0252947Y0222633D01*
X0262747Y0212833D01*
X0263795Y0215233D02*
X0288595Y0215233D01*
X0299995Y0203833D01*
X0299995Y0186133D01*
X0291095Y0177233D01*
X0291095Y0134633D01*
X0293895Y0136433D02*
X0292295Y0138033D01*
X0292295Y0176633D01*
X0301195Y0185533D01*
X0301195Y0204733D01*
X0289495Y0216433D01*
X0264395Y0216433D01*
X0254595Y0226233D01*
X0250595Y0226233D01*
X0249195Y0227633D01*
X0249195Y0235833D01*
X0251695Y0238333D01*
X0247995Y0239633D02*
X0247995Y0227033D01*
X0249995Y0225033D01*
X0253995Y0225033D01*
X0263795Y0215233D01*
X0264895Y0217633D02*
X0254195Y0228333D01*
X0251695Y0228333D01*
X0256795Y0231133D02*
X0266895Y0221033D01*
X0292395Y0221033D01*
X0293195Y0220233D01*
X0297395Y0216333D01*
X0304295Y0216333D01*
X0308595Y0220633D01*
X0308595Y0229433D01*
X0311895Y0232733D01*
X0311895Y0284933D01*
X0302395Y0294433D01*
X0258695Y0294433D01*
X0248195Y0304933D01*
X0248195Y0316333D01*
X0224495Y0340033D01*
X0195395Y0340033D01*
X0183295Y0327933D01*
X0178295Y0332933D02*
X0173295Y0337933D01*
X0183395Y0337833D02*
X0186895Y0341333D01*
X0225095Y0341333D01*
X0249395Y0317033D01*
X0249395Y0305733D01*
X0259495Y0295633D01*
X0302895Y0295633D01*
X0313095Y0285433D01*
X0313095Y0232033D01*
X0309895Y0228833D01*
X0309895Y0212633D01*
X0307495Y0210233D01*
X0297595Y0210233D01*
X0296775Y0211006D01*
X0290148Y0217633D01*
X0264895Y0217633D01*
X0269295Y0225833D02*
X0272995Y0225833D01*
X0275495Y0223333D01*
X0281195Y0223333D01*
X0276495Y0226633D02*
X0285895Y0226633D01*
X0289295Y0223233D01*
X0286295Y0227833D02*
X0289295Y0230933D01*
X0286295Y0227833D02*
X0277195Y0227833D01*
X0273495Y0231533D01*
X0270295Y0231533D01*
X0268295Y0233533D01*
X0266595Y0233533D01*
X0269295Y0235733D02*
X0286095Y0235733D01*
X0289295Y0238933D01*
X0288795Y0238333D01*
X0286595Y0240733D02*
X0259395Y0240733D01*
X0256695Y0243433D01*
X0256695Y0248333D02*
X0247995Y0239633D01*
X0248595Y0246433D02*
X0246695Y0248333D01*
X0241695Y0248333D02*
X0241695Y0250833D01*
X0239795Y0252733D01*
X0239795Y0253985D01*
X0263444Y0277633D01*
X0300595Y0277633D01*
X0300658Y0277631D01*
X0300722Y0277625D01*
X0300784Y0277616D01*
X0300846Y0277602D01*
X0300907Y0277585D01*
X0300967Y0277565D01*
X0301026Y0277540D01*
X0301083Y0277513D01*
X0301138Y0277482D01*
X0301191Y0277447D01*
X0301243Y0277410D01*
X0301291Y0277369D01*
X0301337Y0277325D01*
X0301381Y0277279D01*
X0301422Y0277231D01*
X0301459Y0277179D01*
X0301494Y0277126D01*
X0301525Y0277071D01*
X0301552Y0277014D01*
X0301577Y0276955D01*
X0301597Y0276895D01*
X0301614Y0276834D01*
X0301628Y0276772D01*
X0301637Y0276710D01*
X0301643Y0276646D01*
X0301645Y0276583D01*
X0301647Y0276520D01*
X0301653Y0276456D01*
X0301662Y0276394D01*
X0301676Y0276332D01*
X0301693Y0276271D01*
X0301713Y0276211D01*
X0301738Y0276152D01*
X0301765Y0276095D01*
X0301796Y0276040D01*
X0301831Y0275987D01*
X0301868Y0275935D01*
X0301909Y0275887D01*
X0301953Y0275841D01*
X0301999Y0275797D01*
X0302047Y0275756D01*
X0302099Y0275719D01*
X0302152Y0275684D01*
X0302207Y0275653D01*
X0302264Y0275626D01*
X0302323Y0275601D01*
X0302383Y0275581D01*
X0302444Y0275564D01*
X0302506Y0275550D01*
X0302568Y0275541D01*
X0302632Y0275535D01*
X0302695Y0275533D01*
X0302937Y0275533D01*
X0303000Y0275535D01*
X0303064Y0275541D01*
X0303126Y0275550D01*
X0303188Y0275564D01*
X0303249Y0275581D01*
X0303309Y0275601D01*
X0303368Y0275626D01*
X0303425Y0275653D01*
X0303480Y0275684D01*
X0303533Y0275719D01*
X0303585Y0275756D01*
X0303633Y0275797D01*
X0303679Y0275841D01*
X0303723Y0275887D01*
X0303764Y0275935D01*
X0303801Y0275987D01*
X0303836Y0276040D01*
X0303867Y0276095D01*
X0303894Y0276152D01*
X0303919Y0276211D01*
X0303939Y0276271D01*
X0303956Y0276332D01*
X0303970Y0276394D01*
X0303979Y0276456D01*
X0303985Y0276520D01*
X0303987Y0276583D01*
X0303989Y0276646D01*
X0303995Y0276710D01*
X0304004Y0276772D01*
X0304018Y0276834D01*
X0304035Y0276895D01*
X0304055Y0276955D01*
X0304080Y0277014D01*
X0304107Y0277071D01*
X0304138Y0277126D01*
X0304173Y0277179D01*
X0304210Y0277231D01*
X0304251Y0277279D01*
X0304295Y0277325D01*
X0304341Y0277369D01*
X0304389Y0277410D01*
X0304441Y0277447D01*
X0304494Y0277482D01*
X0304549Y0277513D01*
X0304606Y0277540D01*
X0304665Y0277565D01*
X0304725Y0277585D01*
X0304786Y0277602D01*
X0304848Y0277616D01*
X0304910Y0277625D01*
X0304974Y0277631D01*
X0305037Y0277633D01*
X0306495Y0277633D01*
X0307395Y0276733D01*
X0306495Y0278833D02*
X0307395Y0279733D01*
X0306495Y0278833D02*
X0262947Y0278833D01*
X0238595Y0254482D01*
X0238595Y0252733D01*
X0236695Y0250833D01*
X0236695Y0248333D01*
X0234595Y0245433D02*
X0234595Y0252333D01*
X0262595Y0280333D01*
X0304895Y0280333D01*
X0307395Y0282833D01*
X0322810Y0282857D02*
X0327795Y0282857D01*
X0327795Y0283455D02*
X0322810Y0283455D01*
X0322810Y0284054D02*
X0327795Y0284054D01*
X0327795Y0284652D02*
X0322809Y0284652D01*
X0322809Y0285251D02*
X0327795Y0285251D01*
X0327795Y0285850D02*
X0322809Y0285850D01*
X0322809Y0286448D02*
X0327795Y0286448D01*
X0327795Y0287047D02*
X0322809Y0287047D01*
X0322808Y0287645D02*
X0327795Y0287645D01*
X0327795Y0288244D02*
X0322808Y0288244D01*
X0322808Y0288842D02*
X0327795Y0288842D01*
X0327795Y0289441D02*
X0322808Y0289441D01*
X0322808Y0290039D02*
X0327795Y0290039D01*
X0327795Y0290638D02*
X0322807Y0290638D01*
X0322807Y0291236D02*
X0327795Y0291236D01*
X0327795Y0291835D02*
X0322807Y0291835D01*
X0322807Y0292433D02*
X0327795Y0292433D01*
X0327795Y0293032D02*
X0322806Y0293032D01*
X0322806Y0293630D02*
X0327795Y0293630D01*
X0327795Y0294229D02*
X0322806Y0294229D01*
X0322806Y0294827D02*
X0327795Y0294827D01*
X0327795Y0295426D02*
X0322806Y0295426D01*
X0322805Y0296024D02*
X0327795Y0296024D01*
X0327795Y0296623D02*
X0322805Y0296623D01*
X0322805Y0297221D02*
X0327795Y0297221D01*
X0327795Y0297820D02*
X0322805Y0297820D01*
X0322804Y0298418D02*
X0327795Y0298418D01*
X0327795Y0299017D02*
X0322804Y0299017D01*
X0322804Y0299615D02*
X0327795Y0299615D01*
X0327795Y0300214D02*
X0322804Y0300214D01*
X0322804Y0300812D02*
X0327795Y0300812D01*
X0327795Y0301411D02*
X0322803Y0301411D01*
X0322803Y0302009D02*
X0327795Y0302009D01*
X0327795Y0302608D02*
X0322803Y0302608D01*
X0322803Y0303206D02*
X0327795Y0303206D01*
X0327795Y0303805D02*
X0322802Y0303805D01*
X0322802Y0304403D02*
X0327795Y0304403D01*
X0327795Y0305002D02*
X0322802Y0305002D01*
X0322802Y0305600D02*
X0327795Y0305600D01*
X0327795Y0306199D02*
X0322802Y0306199D01*
X0322801Y0306797D02*
X0327795Y0306797D01*
X0327795Y0307396D02*
X0322801Y0307396D01*
X0322801Y0307994D02*
X0327795Y0307994D01*
X0327795Y0308593D02*
X0322801Y0308593D01*
X0322800Y0309191D02*
X0327795Y0309191D01*
X0327795Y0309790D02*
X0322800Y0309790D01*
X0322800Y0310388D02*
X0327795Y0310388D01*
X0327795Y0310987D02*
X0322800Y0310987D01*
X0322800Y0311585D02*
X0327795Y0311585D01*
X0327795Y0312184D02*
X0322799Y0312184D01*
X0322799Y0312783D02*
X0327795Y0312783D01*
X0327795Y0313381D02*
X0322799Y0313381D01*
X0322799Y0313980D02*
X0327795Y0313980D01*
X0327795Y0314578D02*
X0322799Y0314578D01*
X0322798Y0315177D02*
X0327795Y0315177D01*
X0327795Y0315775D02*
X0322798Y0315775D01*
X0322798Y0316374D02*
X0327795Y0316374D01*
X0327795Y0316972D02*
X0322798Y0316972D01*
X0322797Y0317571D02*
X0327795Y0317571D01*
X0327795Y0318169D02*
X0322797Y0318169D01*
X0322797Y0318768D02*
X0327795Y0318768D01*
X0327795Y0319366D02*
X0322797Y0319366D01*
X0322797Y0319965D02*
X0327795Y0319965D01*
X0327795Y0320563D02*
X0322796Y0320563D01*
X0322796Y0321162D02*
X0327795Y0321162D01*
X0327795Y0321760D02*
X0322796Y0321760D01*
X0322796Y0322359D02*
X0327795Y0322359D01*
X0327795Y0322957D02*
X0322795Y0322957D01*
X0322795Y0323556D02*
X0327795Y0323556D01*
X0327795Y0324154D02*
X0322793Y0324154D01*
X0322789Y0324753D02*
X0327795Y0324753D01*
X0327795Y0325351D02*
X0322785Y0325351D01*
X0322782Y0325950D02*
X0327795Y0325950D01*
X0327795Y0326548D02*
X0322778Y0326548D01*
X0322775Y0327147D02*
X0327795Y0327147D01*
X0327795Y0327745D02*
X0322771Y0327745D01*
X0322768Y0328344D02*
X0327795Y0328344D01*
X0327795Y0328942D02*
X0322764Y0328942D01*
X0322760Y0329541D02*
X0327795Y0329541D01*
X0327795Y0330139D02*
X0322757Y0330139D01*
X0322753Y0330738D02*
X0327795Y0330738D01*
X0327795Y0331336D02*
X0322750Y0331336D01*
X0322746Y0331935D02*
X0327795Y0331935D01*
X0327795Y0332533D02*
X0322743Y0332533D01*
X0322739Y0333132D02*
X0327795Y0333132D01*
X0314635Y0333132D01*
X0314987Y0333055D02*
X0313314Y0333419D01*
X0311710Y0334017D01*
X0310207Y0334838D01*
X0308837Y0335864D01*
X0307626Y0337075D01*
X0306600Y0338445D01*
X0305780Y0339948D01*
X0305181Y0341552D01*
X0304817Y0343225D01*
X0304695Y0344933D01*
X0304695Y0356233D01*
X0316695Y0356233D01*
X0318432Y0356096D01*
X0321734Y0355023D01*
X0324544Y0352982D01*
X0326585Y0350172D01*
X0327658Y0346869D01*
X0327795Y0345133D01*
X0327795Y0332933D01*
X0316695Y0332933D01*
X0314987Y0333055D01*
X0315009Y0335209D02*
X0316131Y0335083D01*
X0316395Y0335083D01*
X0316395Y0344833D01*
X0306645Y0344833D01*
X0306645Y0344569D01*
X0306772Y0343447D01*
X0307023Y0342346D01*
X0307396Y0341281D01*
X0307885Y0340264D01*
X0308486Y0339308D01*
X0309190Y0338426D01*
X0309988Y0337628D01*
X0310870Y0336924D01*
X0311826Y0336323D01*
X0312843Y0335833D01*
X0313909Y0335461D01*
X0315009Y0335209D01*
X0313722Y0335526D02*
X0309289Y0335526D01*
X0308576Y0336124D02*
X0312239Y0336124D01*
X0311190Y0336723D02*
X0307978Y0336723D01*
X0307441Y0337321D02*
X0310372Y0337321D01*
X0309695Y0337920D02*
X0306993Y0337920D01*
X0306560Y0338519D02*
X0309116Y0338519D01*
X0308638Y0339117D02*
X0306233Y0339117D01*
X0305907Y0339716D02*
X0308230Y0339716D01*
X0307861Y0340314D02*
X0305643Y0340314D01*
X0305420Y0340913D02*
X0307573Y0340913D01*
X0307315Y0341511D02*
X0305197Y0341511D01*
X0305060Y0342110D02*
X0307106Y0342110D01*
X0306940Y0342708D02*
X0304930Y0342708D01*
X0304811Y0343307D02*
X0306804Y0343307D01*
X0306720Y0343905D02*
X0304769Y0343905D01*
X0304726Y0344504D02*
X0306652Y0344504D01*
X0306645Y0345433D02*
X0316395Y0345433D01*
X0316395Y0344833D01*
X0316995Y0344833D01*
X0316995Y0335083D01*
X0317260Y0335083D01*
X0318381Y0335209D01*
X0319482Y0335461D01*
X0320547Y0335833D01*
X0321564Y0336323D01*
X0322520Y0336924D01*
X0323402Y0337628D01*
X0324201Y0338426D01*
X0324904Y0339308D01*
X0325505Y0340264D01*
X0325995Y0341281D01*
X0326368Y0342346D01*
X0326619Y0343447D01*
X0326745Y0344569D01*
X0326745Y0344833D01*
X0316995Y0344833D01*
X0316995Y0345433D01*
X0316395Y0345433D01*
X0316395Y0355183D01*
X0316131Y0355183D01*
X0315009Y0355057D01*
X0313909Y0354805D01*
X0312843Y0354433D01*
X0311826Y0353943D01*
X0310870Y0353342D01*
X0309988Y0352639D01*
X0309190Y0351840D01*
X0308486Y0350958D01*
X0307885Y0350002D01*
X0307396Y0348985D01*
X0307023Y0347920D01*
X0306772Y0346819D01*
X0306645Y0345697D01*
X0306645Y0345433D01*
X0306646Y0345701D02*
X0304695Y0345701D01*
X0304695Y0346299D02*
X0306713Y0346299D01*
X0306789Y0346898D02*
X0304695Y0346898D01*
X0304695Y0347496D02*
X0306926Y0347496D01*
X0307084Y0348095D02*
X0304695Y0348095D01*
X0304695Y0348693D02*
X0307293Y0348693D01*
X0307543Y0349292D02*
X0304695Y0349292D01*
X0304695Y0349890D02*
X0307831Y0349890D01*
X0308191Y0350489D02*
X0304695Y0350489D01*
X0304695Y0351087D02*
X0308589Y0351087D01*
X0304695Y0345102D02*
X0316395Y0345102D01*
X0316395Y0344504D02*
X0316995Y0344504D01*
X0316995Y0345102D02*
X0327795Y0345102D01*
X0322668Y0345102D01*
X0326745Y0345433D02*
X0326745Y0345697D01*
X0326619Y0346819D01*
X0326368Y0347920D01*
X0325995Y0348985D01*
X0325505Y0350002D01*
X0324904Y0350958D01*
X0324201Y0351840D01*
X0323402Y0352639D01*
X0322520Y0353342D01*
X0321564Y0353943D01*
X0320547Y0354433D01*
X0319482Y0354805D01*
X0318381Y0355057D01*
X0317260Y0355183D01*
X0316995Y0355183D01*
X0316995Y0345433D01*
X0326745Y0345433D01*
X0326745Y0345701D02*
X0327750Y0345701D01*
X0326745Y0345701D01*
X0326677Y0346299D02*
X0327703Y0346299D01*
X0326677Y0346299D01*
X0326601Y0346898D02*
X0327649Y0346898D01*
X0326601Y0346898D01*
X0326464Y0347496D02*
X0327455Y0347496D01*
X0326464Y0347496D01*
X0326306Y0348095D02*
X0327260Y0348095D01*
X0326306Y0348095D01*
X0326097Y0348693D02*
X0327066Y0348693D01*
X0326097Y0348693D01*
X0325847Y0349292D02*
X0326871Y0349292D01*
X0325847Y0349292D01*
X0325559Y0349890D02*
X0326677Y0349890D01*
X0325559Y0349890D01*
X0325199Y0350489D02*
X0326355Y0350489D01*
X0325199Y0350489D01*
X0324801Y0351087D02*
X0325921Y0351087D01*
X0324801Y0351087D01*
X0324324Y0351686D02*
X0325486Y0351686D01*
X0324324Y0351686D01*
X0325486Y0351686D01*
X0325051Y0352284D02*
X0323757Y0352284D01*
X0325051Y0352284D01*
X0323757Y0352284D01*
X0323096Y0352883D02*
X0324616Y0352883D01*
X0323096Y0352883D01*
X0324616Y0352883D01*
X0323857Y0353481D02*
X0322618Y0353481D01*
X0322299Y0353481D02*
X0323857Y0353481D01*
X0322299Y0353481D01*
X0322614Y0354080D02*
X0323033Y0354080D01*
X0321280Y0354080D01*
X0323033Y0354080D01*
X0322209Y0354678D02*
X0319845Y0354678D01*
X0322209Y0354678D01*
X0316995Y0354678D02*
X0316395Y0354678D01*
X0316995Y0354678D01*
X0316995Y0354080D02*
X0316395Y0354080D01*
X0316995Y0354080D01*
X0316995Y0353481D02*
X0316395Y0353481D01*
X0316995Y0353481D01*
X0316995Y0352883D02*
X0316395Y0352883D01*
X0316995Y0352883D01*
X0316995Y0352284D02*
X0316395Y0352284D01*
X0316995Y0352284D01*
X0316995Y0351686D02*
X0316395Y0351686D01*
X0316995Y0351686D01*
X0316995Y0351087D02*
X0316395Y0351087D01*
X0316395Y0350489D02*
X0316995Y0350489D01*
X0316995Y0349890D02*
X0316395Y0349890D01*
X0316395Y0349292D02*
X0316995Y0349292D01*
X0316995Y0348693D02*
X0316395Y0348693D01*
X0316395Y0348095D02*
X0316995Y0348095D01*
X0316995Y0347496D02*
X0316395Y0347496D01*
X0316395Y0346898D02*
X0316995Y0346898D01*
X0316995Y0346299D02*
X0316395Y0346299D01*
X0316395Y0345701D02*
X0316995Y0345701D01*
X0316995Y0343905D02*
X0316395Y0343905D01*
X0316395Y0343307D02*
X0316995Y0343307D01*
X0316995Y0342708D02*
X0316395Y0342708D01*
X0316395Y0342110D02*
X0316995Y0342110D01*
X0316995Y0341511D02*
X0316395Y0341511D01*
X0316395Y0340913D02*
X0316995Y0340913D01*
X0316995Y0340314D02*
X0316395Y0340314D01*
X0316395Y0339716D02*
X0316995Y0339716D01*
X0316995Y0339117D02*
X0316395Y0339117D01*
X0316395Y0338519D02*
X0316995Y0338519D01*
X0316995Y0337920D02*
X0316395Y0337920D01*
X0316395Y0337321D02*
X0316995Y0337321D01*
X0316995Y0336723D02*
X0316395Y0336723D01*
X0316395Y0336124D02*
X0316995Y0336124D01*
X0316995Y0335526D02*
X0316395Y0335526D01*
X0319668Y0335526D02*
X0327795Y0335526D01*
X0322725Y0335526D01*
X0322721Y0336124D02*
X0327795Y0336124D01*
X0321151Y0336124D01*
X0322200Y0336723D02*
X0327795Y0336723D01*
X0322718Y0336723D01*
X0323019Y0337321D02*
X0327795Y0337321D01*
X0323019Y0337321D01*
X0323695Y0337920D02*
X0327795Y0337920D01*
X0323695Y0337920D01*
X0324275Y0338519D02*
X0327795Y0338519D01*
X0324275Y0338519D01*
X0324752Y0339117D02*
X0327795Y0339117D01*
X0324752Y0339117D01*
X0325160Y0339716D02*
X0327795Y0339716D01*
X0325160Y0339716D01*
X0325529Y0340314D02*
X0327795Y0340314D01*
X0325529Y0340314D01*
X0325817Y0340913D02*
X0327795Y0340913D01*
X0325817Y0340913D01*
X0326075Y0341511D02*
X0327795Y0341511D01*
X0326075Y0341511D01*
X0326285Y0342110D02*
X0327795Y0342110D01*
X0326285Y0342110D01*
X0326450Y0342708D02*
X0327795Y0342708D01*
X0326450Y0342708D01*
X0326587Y0343307D02*
X0327795Y0343307D01*
X0326587Y0343307D01*
X0326670Y0343905D02*
X0327795Y0343905D01*
X0326670Y0343905D01*
X0326738Y0344504D02*
X0327795Y0344504D01*
X0326738Y0344504D01*
X0327795Y0334927D02*
X0322728Y0334927D01*
X0322732Y0334329D02*
X0327795Y0334329D01*
X0311140Y0334329D01*
X0310088Y0334927D02*
X0327795Y0334927D01*
X0327795Y0333730D02*
X0322735Y0333730D01*
X0327795Y0333730D02*
X0312480Y0333730D01*
X0322810Y0282258D02*
X0327795Y0282258D01*
X0327795Y0281660D02*
X0322811Y0281660D01*
X0322811Y0281061D02*
X0327795Y0281061D01*
X0327795Y0280463D02*
X0322811Y0280463D01*
X0322811Y0279864D02*
X0327795Y0279864D01*
X0327795Y0279266D02*
X0322811Y0279266D01*
X0322812Y0278667D02*
X0327795Y0278667D01*
X0327795Y0278069D02*
X0322812Y0278069D01*
X0322812Y0277470D02*
X0327795Y0277470D01*
X0327795Y0276872D02*
X0322812Y0276872D01*
X0322813Y0276273D02*
X0327795Y0276273D01*
X0327795Y0275675D02*
X0322813Y0275675D01*
X0322813Y0275076D02*
X0327795Y0275076D01*
X0327795Y0274478D02*
X0322813Y0274478D01*
X0322813Y0273879D02*
X0327795Y0273879D01*
X0327795Y0273281D02*
X0322814Y0273281D01*
X0322814Y0272682D02*
X0327795Y0272682D01*
X0327795Y0272084D02*
X0322814Y0272084D01*
X0322814Y0271485D02*
X0327795Y0271485D01*
X0327795Y0270887D02*
X0322815Y0270887D01*
X0322815Y0270288D02*
X0327795Y0270288D01*
X0327795Y0269690D02*
X0322815Y0269690D01*
X0322815Y0269091D02*
X0327795Y0269091D01*
X0327795Y0268493D02*
X0322815Y0268493D01*
X0322816Y0267894D02*
X0327795Y0267894D01*
X0327795Y0267296D02*
X0322816Y0267296D01*
X0322816Y0266697D02*
X0327795Y0266697D01*
X0327795Y0266099D02*
X0322816Y0266099D01*
X0322817Y0265500D02*
X0327795Y0265500D01*
X0327795Y0264902D02*
X0322817Y0264902D01*
X0322817Y0264303D02*
X0327795Y0264303D01*
X0327795Y0263705D02*
X0322817Y0263705D01*
X0322817Y0263106D02*
X0327795Y0263106D01*
X0327795Y0262508D02*
X0322818Y0262508D01*
X0322818Y0261909D02*
X0327795Y0261909D01*
X0327795Y0261311D02*
X0322818Y0261311D01*
X0322818Y0260712D02*
X0327795Y0260712D01*
X0327795Y0260114D02*
X0322818Y0260114D01*
X0322819Y0259515D02*
X0327795Y0259515D01*
X0327795Y0258916D02*
X0322819Y0258916D01*
X0322819Y0258318D02*
X0327795Y0258318D01*
X0327795Y0257719D02*
X0322819Y0257719D01*
X0322820Y0257121D02*
X0327795Y0257121D01*
X0327795Y0256522D02*
X0322820Y0256522D01*
X0322820Y0255924D02*
X0327795Y0255924D01*
X0327795Y0255325D02*
X0322820Y0255325D01*
X0322820Y0254727D02*
X0327795Y0254727D01*
X0327795Y0254128D02*
X0322821Y0254128D01*
X0322821Y0253530D02*
X0327795Y0253530D01*
X0327795Y0252931D02*
X0322821Y0252931D01*
X0322821Y0252333D02*
X0327795Y0252333D01*
X0327795Y0251734D02*
X0322822Y0251734D01*
X0322822Y0251136D02*
X0327795Y0251136D01*
X0327795Y0250537D02*
X0322822Y0250537D01*
X0322822Y0249939D02*
X0327795Y0249939D01*
X0327795Y0249340D02*
X0322822Y0249340D01*
X0322823Y0248742D02*
X0327795Y0248742D01*
X0327795Y0248143D02*
X0322823Y0248143D01*
X0322823Y0247545D02*
X0327795Y0247545D01*
X0327795Y0246946D02*
X0322823Y0246946D01*
X0322824Y0246348D02*
X0327795Y0246348D01*
X0327795Y0245749D02*
X0322824Y0245749D01*
X0322824Y0245151D02*
X0327795Y0245151D01*
X0327795Y0244552D02*
X0322824Y0244552D01*
X0322824Y0243954D02*
X0327795Y0243954D01*
X0327795Y0243355D02*
X0322825Y0243355D01*
X0322825Y0242757D02*
X0327795Y0242757D01*
X0327795Y0242158D02*
X0322825Y0242158D01*
X0322825Y0241560D02*
X0327795Y0241560D01*
X0327795Y0240961D02*
X0322826Y0240961D01*
X0322826Y0240363D02*
X0327795Y0240363D01*
X0327795Y0239764D02*
X0322826Y0239764D01*
X0322826Y0239166D02*
X0327795Y0239166D01*
X0327795Y0238567D02*
X0322826Y0238567D01*
X0322827Y0237969D02*
X0327795Y0237969D01*
X0327795Y0237370D02*
X0322827Y0237370D01*
X0322827Y0236772D02*
X0327795Y0236772D01*
X0327795Y0236173D02*
X0322827Y0236173D01*
X0322827Y0235575D02*
X0327795Y0235575D01*
X0327795Y0234976D02*
X0322828Y0234976D01*
X0322828Y0234378D02*
X0327795Y0234378D01*
X0327795Y0233779D02*
X0322828Y0233779D01*
X0322828Y0233181D02*
X0327795Y0233181D01*
X0327795Y0232582D02*
X0322829Y0232582D01*
X0322829Y0231983D02*
X0327795Y0231983D01*
X0327795Y0231385D02*
X0322829Y0231385D01*
X0322829Y0230786D02*
X0327795Y0230786D01*
X0327795Y0230188D02*
X0322829Y0230188D01*
X0322830Y0229589D02*
X0327795Y0229589D01*
X0327795Y0228991D02*
X0322830Y0228991D01*
X0322830Y0228392D02*
X0327795Y0228392D01*
X0327795Y0227794D02*
X0322830Y0227794D01*
X0322831Y0227195D02*
X0327795Y0227195D01*
X0327795Y0226597D02*
X0322831Y0226597D01*
X0322831Y0225998D02*
X0327795Y0225998D01*
X0327795Y0225400D02*
X0322831Y0225400D01*
X0322831Y0224801D02*
X0327795Y0224801D01*
X0327795Y0224203D02*
X0322832Y0224203D01*
X0322832Y0223604D02*
X0327795Y0223604D01*
X0327795Y0223006D02*
X0322832Y0223006D01*
X0322832Y0222407D02*
X0327795Y0222407D01*
X0327795Y0221809D02*
X0322833Y0221809D01*
X0322833Y0221210D02*
X0327795Y0221210D01*
X0327795Y0220612D02*
X0322833Y0220612D01*
X0322833Y0220013D02*
X0327795Y0220013D01*
X0327795Y0219415D02*
X0322833Y0219415D01*
X0322834Y0218816D02*
X0327795Y0218816D01*
X0327795Y0218218D02*
X0322834Y0218218D01*
X0322834Y0217619D02*
X0327795Y0217619D01*
X0327795Y0217021D02*
X0322834Y0217021D01*
X0322835Y0216422D02*
X0327795Y0216422D01*
X0327795Y0215824D02*
X0322835Y0215824D01*
X0322835Y0215225D02*
X0327795Y0215225D01*
X0327795Y0214627D02*
X0322835Y0214627D01*
X0322835Y0214028D02*
X0327795Y0214028D01*
X0327795Y0213430D02*
X0322836Y0213430D01*
X0322836Y0212831D02*
X0327795Y0212831D01*
X0327795Y0212233D02*
X0322836Y0212233D01*
X0322836Y0211634D02*
X0327795Y0211634D01*
X0327795Y0211036D02*
X0322837Y0211036D01*
X0322837Y0210437D02*
X0327795Y0210437D01*
X0327795Y0209839D02*
X0322837Y0209839D01*
X0322837Y0209240D02*
X0327795Y0209240D01*
X0327795Y0208642D02*
X0322837Y0208642D01*
X0322838Y0208043D02*
X0327795Y0208043D01*
X0327795Y0207445D02*
X0322838Y0207445D01*
X0322838Y0206846D02*
X0327795Y0206846D01*
X0327795Y0206248D02*
X0322838Y0206248D01*
X0322838Y0205649D02*
X0327795Y0205649D01*
X0327795Y0205050D02*
X0322839Y0205050D01*
X0322839Y0204452D02*
X0327795Y0204452D01*
X0327795Y0203853D02*
X0322839Y0203853D01*
X0322839Y0203255D02*
X0327795Y0203255D01*
X0327795Y0202656D02*
X0322840Y0202656D01*
X0322840Y0202058D02*
X0327795Y0202058D01*
X0327795Y0201459D02*
X0322840Y0201459D01*
X0322840Y0200861D02*
X0327795Y0200861D01*
X0327795Y0200262D02*
X0322840Y0200262D01*
X0322841Y0199664D02*
X0327795Y0199664D01*
X0327795Y0199065D02*
X0322841Y0199065D01*
X0322841Y0198467D02*
X0327795Y0198467D01*
X0327795Y0197868D02*
X0322841Y0197868D01*
X0322842Y0197270D02*
X0327795Y0197270D01*
X0327795Y0196671D02*
X0322842Y0196671D01*
X0322842Y0196073D02*
X0327795Y0196073D01*
X0327795Y0195474D02*
X0322842Y0195474D01*
X0322842Y0194876D02*
X0327795Y0194876D01*
X0327795Y0194277D02*
X0322843Y0194277D01*
X0322843Y0193679D02*
X0327795Y0193679D01*
X0327795Y0193080D02*
X0322843Y0193080D01*
X0322843Y0192482D02*
X0327795Y0192482D01*
X0327795Y0191883D02*
X0322844Y0191883D01*
X0322844Y0191285D02*
X0327795Y0191285D01*
X0327795Y0190686D02*
X0322844Y0190686D01*
X0322844Y0190088D02*
X0327795Y0190088D01*
X0327795Y0189489D02*
X0322844Y0189489D01*
X0322845Y0188891D02*
X0327795Y0188891D01*
X0327795Y0188292D02*
X0322845Y0188292D01*
X0322845Y0187694D02*
X0327795Y0187694D01*
X0327795Y0187095D02*
X0322845Y0187095D01*
X0322845Y0186497D02*
X0327795Y0186497D01*
X0327795Y0185898D02*
X0322846Y0185898D01*
X0322846Y0185300D02*
X0327795Y0185300D01*
X0327795Y0184701D02*
X0322846Y0184701D01*
X0322846Y0184103D02*
X0327795Y0184103D01*
X0327795Y0183504D02*
X0322847Y0183504D01*
X0322847Y0182906D02*
X0327795Y0182906D01*
X0327795Y0182307D02*
X0322847Y0182307D01*
X0322847Y0181709D02*
X0327795Y0181709D01*
X0327795Y0181110D02*
X0322847Y0181110D01*
X0322848Y0180512D02*
X0327795Y0180512D01*
X0327795Y0179913D02*
X0322848Y0179913D01*
X0322848Y0179314D02*
X0327795Y0179314D01*
X0327795Y0178716D02*
X0322848Y0178716D01*
X0322849Y0178117D02*
X0327795Y0178117D01*
X0327795Y0177519D02*
X0322849Y0177519D01*
X0322849Y0176920D02*
X0327795Y0176920D01*
X0327795Y0176322D02*
X0322849Y0176322D01*
X0322849Y0175723D02*
X0327795Y0175723D01*
X0327795Y0175125D02*
X0322850Y0175125D01*
X0322850Y0174526D02*
X0327795Y0174526D01*
X0327795Y0173928D02*
X0322850Y0173928D01*
X0322850Y0173329D02*
X0327795Y0173329D01*
X0327795Y0172731D02*
X0322851Y0172731D01*
X0322851Y0172132D02*
X0327795Y0172132D01*
X0327795Y0171534D02*
X0322851Y0171534D01*
X0322851Y0170935D02*
X0327795Y0170935D01*
X0327795Y0170337D02*
X0322851Y0170337D01*
X0322852Y0169738D02*
X0327795Y0169738D01*
X0327795Y0169140D02*
X0322852Y0169140D01*
X0322852Y0168541D02*
X0327795Y0168541D01*
X0327795Y0167943D02*
X0322852Y0167943D01*
X0322853Y0167344D02*
X0327795Y0167344D01*
X0327795Y0166746D02*
X0322853Y0166746D01*
X0322853Y0166147D02*
X0327795Y0166147D01*
X0327795Y0165549D02*
X0322853Y0165549D01*
X0322853Y0164950D02*
X0327795Y0164950D01*
X0327795Y0164352D02*
X0322854Y0164352D01*
X0322854Y0163753D02*
X0327795Y0163753D01*
X0327795Y0163155D02*
X0322854Y0163155D01*
X0322854Y0162556D02*
X0327795Y0162556D01*
X0327795Y0161958D02*
X0322855Y0161958D01*
X0322855Y0161359D02*
X0327795Y0161359D01*
X0327795Y0160761D02*
X0322855Y0160761D01*
X0322855Y0160162D02*
X0327795Y0160162D01*
X0327795Y0159564D02*
X0322855Y0159564D01*
X0322856Y0158965D02*
X0327795Y0158965D01*
X0327795Y0158367D02*
X0322856Y0158367D01*
X0322856Y0157768D02*
X0327795Y0157768D01*
X0327795Y0157170D02*
X0322856Y0157170D01*
X0322856Y0156571D02*
X0327795Y0156571D01*
X0327795Y0155973D02*
X0322857Y0155973D01*
X0322857Y0155374D02*
X0327795Y0155374D01*
X0327795Y0154776D02*
X0322857Y0154776D01*
X0322857Y0154177D02*
X0327795Y0154177D01*
X0327795Y0153579D02*
X0322858Y0153579D01*
X0322858Y0152980D02*
X0327795Y0152980D01*
X0327795Y0152381D02*
X0322858Y0152381D01*
X0322858Y0151783D02*
X0327795Y0151783D01*
X0327795Y0151184D02*
X0322858Y0151184D01*
X0322859Y0150586D02*
X0327795Y0150586D01*
X0327795Y0149987D02*
X0322859Y0149987D01*
X0322859Y0149389D02*
X0327795Y0149389D01*
X0327795Y0148790D02*
X0322859Y0148790D01*
X0322860Y0148192D02*
X0327795Y0148192D01*
X0327795Y0147593D02*
X0322860Y0147593D01*
X0322860Y0146995D02*
X0327795Y0146995D01*
X0327795Y0146396D02*
X0322860Y0146396D01*
X0322860Y0145798D02*
X0327795Y0145798D01*
X0327795Y0145199D02*
X0322861Y0145199D01*
X0322861Y0144601D02*
X0327795Y0144601D01*
X0327795Y0144002D02*
X0322861Y0144002D01*
X0322861Y0143404D02*
X0327795Y0143404D01*
X0327795Y0142805D02*
X0322862Y0142805D01*
X0322862Y0142207D02*
X0327795Y0142207D01*
X0327795Y0141608D02*
X0322862Y0141608D01*
X0322862Y0141010D02*
X0327795Y0141010D01*
X0327795Y0140411D02*
X0322862Y0140411D01*
X0322863Y0139813D02*
X0327795Y0139813D01*
X0327795Y0139214D02*
X0322863Y0139214D01*
X0322863Y0138616D02*
X0327795Y0138616D01*
X0327795Y0138017D02*
X0322863Y0138017D01*
X0322864Y0137419D02*
X0327795Y0137419D01*
X0327795Y0136820D02*
X0322864Y0136820D01*
X0322864Y0136222D02*
X0327795Y0136222D01*
X0327795Y0135623D02*
X0322864Y0135623D01*
X0322864Y0135025D02*
X0327795Y0135025D01*
X0327795Y0134426D02*
X0322865Y0134426D01*
X0322865Y0133828D02*
X0327795Y0133828D01*
X0327795Y0133229D02*
X0322865Y0133229D01*
X0322865Y0132631D02*
X0327795Y0132631D01*
X0327795Y0132032D02*
X0322865Y0132032D01*
X0322866Y0131434D02*
X0327795Y0131434D01*
X0327795Y0130835D02*
X0322866Y0130835D01*
X0322866Y0130237D02*
X0327795Y0130237D01*
X0327795Y0129638D02*
X0322866Y0129638D01*
X0322867Y0129040D02*
X0327795Y0129040D01*
X0327795Y0128441D02*
X0322867Y0128441D01*
X0322867Y0127843D02*
X0327795Y0127843D01*
X0327795Y0127244D02*
X0322867Y0127244D01*
X0322867Y0126645D02*
X0327795Y0126645D01*
X0327795Y0126047D02*
X0322868Y0126047D01*
X0322868Y0125448D02*
X0327795Y0125448D01*
X0327795Y0124850D02*
X0322868Y0124850D01*
X0322868Y0124251D02*
X0327795Y0124251D01*
X0327795Y0123653D02*
X0322869Y0123653D01*
X0322869Y0123054D02*
X0327795Y0123054D01*
X0327795Y0122456D02*
X0322869Y0122456D01*
X0322869Y0121857D02*
X0327795Y0121857D01*
X0327795Y0121259D02*
X0322869Y0121259D01*
X0322870Y0120660D02*
X0327795Y0120660D01*
X0327795Y0120062D02*
X0322870Y0120062D01*
X0322870Y0119463D02*
X0327795Y0119463D01*
X0327795Y0118865D02*
X0322870Y0118865D01*
X0322871Y0118266D02*
X0327795Y0118266D01*
X0327795Y0117668D02*
X0322871Y0117668D01*
X0322871Y0117069D02*
X0327795Y0117069D01*
X0327795Y0116471D02*
X0322871Y0116471D01*
X0322871Y0115872D02*
X0327795Y0115872D01*
X0327795Y0115274D02*
X0322872Y0115274D01*
X0322872Y0114675D02*
X0327795Y0114675D01*
X0327795Y0114077D02*
X0322872Y0114077D01*
X0322872Y0113478D02*
X0327795Y0113478D01*
X0327795Y0112880D02*
X0322873Y0112880D01*
X0322873Y0112281D02*
X0327795Y0112281D01*
X0327795Y0111683D02*
X0322873Y0111683D01*
X0322873Y0111084D02*
X0327795Y0111084D01*
X0327795Y0110486D02*
X0322873Y0110486D01*
X0322874Y0109887D02*
X0327795Y0109887D01*
X0327795Y0109289D02*
X0322874Y0109289D01*
X0322874Y0108690D02*
X0327795Y0108690D01*
X0327795Y0108092D02*
X0322874Y0108092D01*
X0322874Y0107493D02*
X0327795Y0107493D01*
X0327795Y0106895D02*
X0322875Y0106895D01*
X0322875Y0106296D02*
X0327795Y0106296D01*
X0327795Y0105698D02*
X0322875Y0105698D01*
X0322875Y0105099D02*
X0327795Y0105099D01*
X0327795Y0104501D02*
X0322876Y0104501D01*
X0322876Y0103902D02*
X0327795Y0103902D01*
X0327795Y0103304D02*
X0322876Y0103304D01*
X0322876Y0102705D02*
X0327795Y0102705D01*
X0327795Y0102107D02*
X0322876Y0102107D01*
X0322877Y0101508D02*
X0327795Y0101508D01*
X0327795Y0100910D02*
X0322877Y0100910D01*
X0322877Y0100311D02*
X0327795Y0100311D01*
X0327795Y0099712D02*
X0322877Y0099712D01*
X0322878Y0099114D02*
X0327795Y0099114D01*
X0327795Y0098515D02*
X0322878Y0098515D01*
X0322878Y0097917D02*
X0327795Y0097917D01*
X0327795Y0097318D02*
X0322878Y0097318D01*
X0322878Y0096720D02*
X0327795Y0096720D01*
X0327795Y0096121D02*
X0322879Y0096121D01*
X0322879Y0095523D02*
X0327795Y0095523D01*
X0327795Y0094924D02*
X0322879Y0094924D01*
X0322879Y0094326D02*
X0327795Y0094326D01*
X0327795Y0093727D02*
X0322880Y0093727D01*
X0322880Y0093129D02*
X0327795Y0093129D01*
X0327795Y0092530D02*
X0322880Y0092530D01*
X0322880Y0091932D02*
X0327795Y0091932D01*
X0327795Y0091333D02*
X0322880Y0091333D01*
X0322881Y0090735D02*
X0327795Y0090735D01*
X0327795Y0090136D02*
X0322881Y0090136D01*
X0322881Y0089538D02*
X0327795Y0089538D01*
X0327795Y0088939D02*
X0322881Y0088939D01*
X0322882Y0088341D02*
X0327795Y0088341D01*
X0327795Y0087742D02*
X0322882Y0087742D01*
X0322882Y0087144D02*
X0327795Y0087144D01*
X0327795Y0086545D02*
X0322882Y0086545D01*
X0322882Y0085947D02*
X0327795Y0085947D01*
X0327795Y0085348D02*
X0322883Y0085348D01*
X0322883Y0084750D02*
X0327795Y0084750D01*
X0327795Y0084151D02*
X0322883Y0084151D01*
X0322883Y0083553D02*
X0327795Y0083553D01*
X0327795Y0082954D02*
X0322883Y0082954D01*
X0322884Y0082356D02*
X0327795Y0082356D01*
X0327795Y0081757D02*
X0322884Y0081757D01*
X0322884Y0081159D02*
X0327795Y0081159D01*
X0327795Y0080560D02*
X0322884Y0080560D01*
X0322885Y0079962D02*
X0327795Y0079962D01*
X0327795Y0079363D02*
X0322885Y0079363D01*
X0322885Y0078765D02*
X0327795Y0078765D01*
X0327795Y0078166D02*
X0322885Y0078166D01*
X0322885Y0077568D02*
X0327795Y0077568D01*
X0327795Y0076969D02*
X0322886Y0076969D01*
X0322886Y0076371D02*
X0327795Y0076371D01*
X0327795Y0075772D02*
X0322886Y0075772D01*
X0322886Y0075174D02*
X0327795Y0075174D01*
X0315663Y0075174D01*
X0316131Y0073283D02*
X0315009Y0073157D01*
X0313909Y0072905D01*
X0312843Y0072533D01*
X0311826Y0072043D01*
X0310870Y0071442D01*
X0309988Y0070739D01*
X0309190Y0069940D01*
X0308486Y0069058D01*
X0307885Y0068102D01*
X0307396Y0067085D01*
X0307023Y0066020D01*
X0306772Y0064919D01*
X0306645Y0063797D01*
X0306645Y0063533D01*
X0316395Y0063533D01*
X0316395Y0073283D01*
X0316131Y0073283D01*
X0316395Y0072779D02*
X0316995Y0072779D01*
X0316995Y0072181D02*
X0316395Y0072181D01*
X0316395Y0071582D02*
X0316995Y0071582D01*
X0316995Y0070984D02*
X0316395Y0070984D01*
X0316395Y0070385D02*
X0316995Y0070385D01*
X0316995Y0069787D02*
X0316395Y0069787D01*
X0316395Y0069188D02*
X0316995Y0069188D01*
X0316995Y0068590D02*
X0316395Y0068590D01*
X0316395Y0067991D02*
X0316995Y0067991D01*
X0316995Y0067393D02*
X0316395Y0067393D01*
X0316395Y0066794D02*
X0316995Y0066794D01*
X0316995Y0066196D02*
X0316395Y0066196D01*
X0316395Y0065597D02*
X0316995Y0065597D01*
X0316995Y0064999D02*
X0316395Y0064999D01*
X0316395Y0064400D02*
X0316995Y0064400D01*
X0316995Y0063802D02*
X0316395Y0063802D01*
X0316395Y0063203D02*
X0304495Y0063203D01*
X0304495Y0062605D02*
X0306652Y0062605D01*
X0306720Y0062006D02*
X0304495Y0062006D01*
X0304495Y0061408D02*
X0306803Y0061408D01*
X0306940Y0060809D02*
X0304495Y0060809D01*
X0304495Y0060211D02*
X0307105Y0060211D01*
X0307315Y0059612D02*
X0304495Y0059612D01*
X0304495Y0059014D02*
X0307572Y0059014D01*
X0307861Y0058415D02*
X0304495Y0058415D01*
X0304495Y0057817D02*
X0308229Y0057817D01*
X0308637Y0057218D02*
X0304495Y0057218D01*
X0304536Y0063802D02*
X0306646Y0063802D01*
X0306713Y0064400D02*
X0304579Y0064400D01*
X0304630Y0064999D02*
X0306790Y0064999D01*
X0306926Y0065597D02*
X0304760Y0065597D01*
X0304890Y0066196D02*
X0307084Y0066196D01*
X0307294Y0066794D02*
X0305049Y0066794D01*
X0305272Y0067393D02*
X0307544Y0067393D01*
X0307832Y0067991D02*
X0305495Y0067991D01*
X0305783Y0068590D02*
X0308192Y0068590D01*
X0308590Y0069188D02*
X0306109Y0069188D01*
X0306450Y0069787D02*
X0309067Y0069787D01*
X0309635Y0070385D02*
X0306898Y0070385D01*
X0307346Y0070984D02*
X0310295Y0070984D01*
X0311093Y0071582D02*
X0307917Y0071582D01*
X0308516Y0072181D02*
X0312113Y0072181D01*
X0313548Y0072779D02*
X0309275Y0072779D01*
X0310099Y0073378D02*
X0327795Y0073378D01*
X0322887Y0073378D01*
X0322887Y0073977D02*
X0327795Y0073977D01*
X0311195Y0073977D01*
X0312653Y0074575D02*
X0327795Y0074575D01*
X0322887Y0074575D01*
X0322887Y0072779D02*
X0327795Y0072779D01*
X0319842Y0072779D01*
X0321278Y0072181D02*
X0327795Y0072181D01*
X0322887Y0072181D01*
X0322888Y0071582D02*
X0327795Y0071582D01*
X0322297Y0071582D01*
X0323095Y0070984D02*
X0327795Y0070984D01*
X0323095Y0070984D01*
X0323756Y0070385D02*
X0327795Y0070385D01*
X0323756Y0070385D01*
X0324323Y0069787D02*
X0327795Y0069787D01*
X0324323Y0069787D01*
X0324800Y0069188D02*
X0327795Y0069188D01*
X0324800Y0069188D01*
X0325198Y0068590D02*
X0327795Y0068590D01*
X0325198Y0068590D01*
X0325558Y0067991D02*
X0327795Y0067991D01*
X0325558Y0067991D01*
X0325847Y0067393D02*
X0327795Y0067393D01*
X0325847Y0067393D01*
X0326096Y0066794D02*
X0327795Y0066794D01*
X0326096Y0066794D01*
X0326306Y0066196D02*
X0327795Y0066196D01*
X0326306Y0066196D01*
X0326464Y0065597D02*
X0327795Y0065597D01*
X0326464Y0065597D01*
X0326601Y0064999D02*
X0327795Y0064999D01*
X0326601Y0064999D01*
X0326677Y0064400D02*
X0327795Y0064400D01*
X0326677Y0064400D01*
X0326745Y0063802D02*
X0327795Y0063802D01*
X0326745Y0063802D01*
X0326738Y0062605D02*
X0327746Y0062605D01*
X0326738Y0062605D01*
X0326670Y0062006D02*
X0327699Y0062006D01*
X0326670Y0062006D01*
X0326587Y0061408D02*
X0327630Y0061408D01*
X0326587Y0061408D01*
X0326450Y0060809D02*
X0327435Y0060809D01*
X0326450Y0060809D01*
X0326285Y0060211D02*
X0327241Y0060211D01*
X0326285Y0060211D01*
X0326076Y0059612D02*
X0327046Y0059612D01*
X0326076Y0059612D01*
X0325818Y0059014D02*
X0326852Y0059014D01*
X0325818Y0059014D01*
X0325530Y0058415D02*
X0326657Y0058415D01*
X0325530Y0058415D01*
X0325161Y0057817D02*
X0326311Y0057817D01*
X0325161Y0057817D01*
X0324753Y0057218D02*
X0325877Y0057218D01*
X0324753Y0057218D01*
X0324276Y0056620D02*
X0325442Y0056620D01*
X0324276Y0056620D01*
X0325442Y0056620D01*
X0325007Y0056021D02*
X0323696Y0056021D01*
X0325007Y0056021D01*
X0323696Y0056021D01*
X0323020Y0055423D02*
X0324572Y0055423D01*
X0323020Y0055423D01*
X0324572Y0055423D01*
X0323773Y0054824D02*
X0322202Y0054824D01*
X0323773Y0054824D01*
X0322894Y0054824D01*
X0322894Y0054226D02*
X0322949Y0054226D01*
X0321154Y0054226D01*
X0322949Y0054226D01*
X0322126Y0053627D02*
X0319672Y0053627D01*
X0322126Y0053627D01*
X0316995Y0053627D02*
X0316395Y0053627D01*
X0316995Y0053627D01*
X0316995Y0054226D02*
X0316395Y0054226D01*
X0316995Y0054226D01*
X0316995Y0054824D02*
X0316395Y0054824D01*
X0316995Y0054824D01*
X0316995Y0055423D02*
X0316395Y0055423D01*
X0316995Y0055423D01*
X0316995Y0056021D02*
X0316395Y0056021D01*
X0316995Y0056021D01*
X0316995Y0056620D02*
X0316395Y0056620D01*
X0316995Y0056620D01*
X0316995Y0057218D02*
X0316395Y0057218D01*
X0316395Y0057817D02*
X0316995Y0057817D01*
X0316995Y0058415D02*
X0316395Y0058415D01*
X0316395Y0059014D02*
X0316995Y0059014D01*
X0316995Y0059612D02*
X0316395Y0059612D01*
X0316395Y0060211D02*
X0316995Y0060211D01*
X0316995Y0060809D02*
X0316395Y0060809D01*
X0316395Y0061408D02*
X0316995Y0061408D01*
X0316995Y0062006D02*
X0316395Y0062006D01*
X0316395Y0062605D02*
X0316995Y0062605D01*
X0316995Y0063203D02*
X0327793Y0063203D01*
X0322891Y0063203D01*
X0280895Y0133133D02*
X0243295Y0133133D01*
X0258695Y0159233D02*
X0258695Y0170233D01*
X0261695Y0173233D01*
X0263895Y0176133D02*
X0263895Y0162133D01*
X0266695Y0159333D01*
X0274695Y0159433D02*
X0282395Y0159433D01*
X0274695Y0159433D02*
X0274695Y0164933D01*
X0266395Y0173233D01*
X0263895Y0176133D02*
X0261695Y0178333D01*
X0256595Y0187633D02*
X0240095Y0171133D01*
X0230195Y0171133D01*
X0204495Y0145433D01*
X0204495Y0116633D01*
X0202995Y0115133D01*
X0205695Y0113933D02*
X0205695Y0144733D01*
X0230895Y0169933D01*
X0240595Y0169933D01*
X0259195Y0188533D01*
X0259195Y0200833D01*
X0261995Y0203633D01*
X0262095Y0203633D01*
X0256695Y0203333D02*
X0256595Y0203333D01*
X0254195Y0200933D01*
X0254195Y0187033D01*
X0239495Y0172333D01*
X0229495Y0172333D01*
X0203295Y0146133D01*
X0203295Y0138833D01*
X0200995Y0136533D01*
X0196995Y0136933D02*
X0202095Y0142033D01*
X0202095Y0146633D01*
X0228995Y0173533D01*
X0238795Y0173533D01*
X0251695Y0186433D01*
X0251695Y0198533D01*
X0248995Y0200533D02*
X0251695Y0203333D01*
X0248995Y0200533D02*
X0248995Y0185633D01*
X0238095Y0174733D01*
X0228395Y0174733D01*
X0199795Y0146133D01*
X0199795Y0144233D01*
X0197195Y0145433D02*
X0197195Y0141933D01*
X0197195Y0145433D02*
X0227695Y0175933D01*
X0237395Y0175933D01*
X0246895Y0185433D01*
X0246895Y0198433D01*
X0244595Y0201133D02*
X0244595Y0185133D01*
X0236595Y0177133D01*
X0227095Y0177133D01*
X0195095Y0145133D01*
X0195095Y0096233D01*
X0192895Y0094933D02*
X0194995Y0092833D01*
X0192895Y0094933D02*
X0192895Y0144733D01*
X0189995Y0143033D02*
X0170195Y0143033D01*
X0165495Y0138333D01*
X0160495Y0140533D02*
X0166595Y0146633D01*
X0180495Y0146633D01*
X0202995Y0169133D01*
X0202995Y0184633D01*
X0206695Y0188333D01*
X0209195Y0186633D02*
X0204195Y0181633D01*
X0204195Y0167333D01*
X0194595Y0157733D01*
X0195095Y0155033D02*
X0205395Y0165333D01*
X0205395Y0181033D01*
X0210395Y0186033D01*
X0210395Y0196533D01*
X0204695Y0202233D01*
X0204695Y0205333D01*
X0201695Y0208333D01*
X0198195Y0209833D02*
X0201695Y0213333D01*
X0201595Y0216633D02*
X0201595Y0228233D01*
X0206695Y0233333D01*
X0205995Y0232633D01*
X0201495Y0231533D02*
X0201495Y0236133D01*
X0203695Y0238333D01*
X0206695Y0238333D01*
X0206695Y0243333D02*
X0203095Y0243333D01*
X0199095Y0239333D01*
X0199095Y0236233D01*
X0200295Y0235033D01*
X0200295Y0232033D01*
X0199095Y0230833D01*
X0199095Y0217033D01*
X0195695Y0213633D01*
X0195695Y0175733D01*
X0174995Y0155033D01*
X0131295Y0155033D01*
X0118295Y0142033D01*
X0118295Y0103733D01*
X0111295Y0096733D01*
X0111295Y0092733D02*
X0119495Y0100933D01*
X0119495Y0141133D01*
X0131995Y0153633D01*
X0175795Y0153633D01*
X0196895Y0174733D01*
X0196895Y0213133D01*
X0200295Y0216533D01*
X0200295Y0230333D01*
X0201495Y0231533D01*
X0199095Y0232533D02*
X0199095Y0234533D01*
X0197895Y0235733D01*
X0197895Y0240133D01*
X0202295Y0244533D01*
X0204695Y0244533D01*
X0206095Y0245933D01*
X0207995Y0245933D01*
X0210395Y0248333D01*
X0211695Y0248333D01*
X0206695Y0248333D02*
X0204095Y0245733D01*
X0201695Y0245733D01*
X0196695Y0240733D01*
X0196695Y0233433D01*
X0196695Y0218233D01*
X0193295Y0214833D01*
X0193295Y0177633D01*
X0173495Y0157833D01*
X0129895Y0157833D01*
X0115895Y0143833D01*
X0115895Y0109433D01*
X0111195Y0104733D01*
X0111095Y0108733D02*
X0114695Y0112333D01*
X0114695Y0144633D01*
X0129295Y0159233D01*
X0172895Y0159233D01*
X0192095Y0178433D01*
X0192095Y0215433D01*
X0195495Y0218833D01*
X0195495Y0231333D01*
X0194395Y0232433D01*
X0194395Y0234533D01*
X0195495Y0235633D01*
X0195495Y0242133D01*
X0201695Y0248333D01*
X0198595Y0248333D02*
X0201695Y0251433D01*
X0201695Y0253333D01*
X0199195Y0254533D02*
X0199195Y0250933D01*
X0191795Y0243533D01*
X0191795Y0223133D01*
X0189695Y0224333D02*
X0190595Y0225233D01*
X0190595Y0244833D01*
X0196695Y0250933D01*
X0196695Y0253333D01*
X0199195Y0254533D02*
X0173695Y0280033D01*
X0173695Y0299633D01*
X0153295Y0320033D01*
X0162695Y0288333D02*
X0167795Y0283233D01*
X0167795Y0211233D01*
X0168095Y0210933D01*
X0163495Y0210933D01*
X0154995Y0202433D01*
X0120395Y0202433D01*
X0114495Y0208333D01*
X0119495Y0206933D02*
X0126295Y0213733D01*
X0154595Y0213733D01*
X0162695Y0221833D01*
X0162695Y0223233D01*
X0157695Y0224833D02*
X0147895Y0215033D01*
X0125095Y0215033D01*
X0120795Y0219333D01*
X0108695Y0219333D01*
X0104495Y0223533D01*
X0104495Y0224133D01*
X0109695Y0223333D02*
X0118595Y0232233D01*
X0157595Y0232233D01*
X0159495Y0234133D01*
X0165695Y0231333D02*
X0165695Y0216833D01*
X0152995Y0204133D01*
X0126995Y0204133D01*
X0124995Y0206133D01*
X0129195Y0208333D02*
X0131995Y0205533D01*
X0150995Y0205533D01*
X0160195Y0214733D01*
X0160195Y0214833D01*
X0154795Y0228933D02*
X0142195Y0216333D01*
X0126495Y0216333D01*
X0119495Y0223333D01*
X0119495Y0223433D01*
X0117695Y0177333D02*
X0109695Y0169333D01*
X0119695Y0169333D02*
X0126495Y0176133D01*
X0151195Y0176133D01*
X0173395Y0198333D01*
X0176695Y0198333D01*
X0176695Y0193333D02*
X0170095Y0193333D01*
X0151695Y0174933D01*
X0135295Y0174933D01*
X0129695Y0169333D01*
X0128695Y0160633D02*
X0113495Y0145433D01*
X0113495Y0115033D01*
X0111195Y0112733D01*
X0117095Y0106433D02*
X0111395Y0100733D01*
X0117095Y0106433D02*
X0117095Y0142933D01*
X0130595Y0156433D01*
X0174195Y0156433D01*
X0194495Y0176733D01*
X0194495Y0214233D01*
X0197895Y0217633D01*
X0197895Y0231333D01*
X0199095Y0232533D01*
X0194295Y0230633D02*
X0194295Y0219433D01*
X0190895Y0216033D01*
X0190895Y0179233D01*
X0172295Y0160633D01*
X0128695Y0160633D01*
X0139695Y0169333D02*
X0144095Y0173733D01*
X0152195Y0173733D01*
X0169495Y0191033D01*
X0178195Y0191033D01*
X0181695Y0194533D01*
X0181695Y0198333D01*
X0176695Y0203333D02*
X0150695Y0177333D01*
X0117695Y0177333D01*
X0149395Y0152233D02*
X0135495Y0138333D01*
X0145495Y0138333D02*
X0157995Y0150833D01*
X0177895Y0150833D01*
X0199395Y0172333D01*
X0199395Y0196033D01*
X0201695Y0198333D01*
X0201695Y0193333D02*
X0200595Y0192233D01*
X0200595Y0171533D01*
X0178495Y0149433D01*
X0160495Y0149433D01*
X0150995Y0139933D01*
X0150995Y0132333D01*
X0154995Y0128333D01*
X0155495Y0128333D01*
X0160495Y0133333D02*
X0165495Y0128333D01*
X0160495Y0133333D02*
X0160495Y0140533D01*
X0155495Y0138333D02*
X0165195Y0148033D01*
X0179395Y0148033D01*
X0201795Y0170433D01*
X0201795Y0188433D01*
X0206695Y0193333D01*
X0209195Y0195833D02*
X0209195Y0186633D01*
X0209195Y0195833D02*
X0201695Y0203333D01*
X0198195Y0209833D02*
X0198195Y0173633D01*
X0176795Y0152233D01*
X0149395Y0152233D01*
X0179195Y0179833D02*
X0179195Y0185833D01*
X0184195Y0190833D01*
X0184195Y0249833D01*
X0175695Y0258333D01*
X0175695Y0264333D02*
X0186695Y0253333D01*
X0186695Y0233333D01*
X0193195Y0231733D02*
X0194295Y0230633D01*
X0193195Y0231733D02*
X0193195Y0235233D01*
X0194295Y0236333D01*
X0194295Y0242833D01*
X0198595Y0247133D01*
X0198595Y0248333D01*
X0189395Y0255633D02*
X0189395Y0225733D01*
X0188495Y0224833D01*
X0188495Y0190133D01*
X0181695Y0183333D01*
X0179195Y0179833D02*
X0180695Y0178333D01*
X0186695Y0178333D01*
X0186695Y0183333D02*
X0189695Y0186333D01*
X0189695Y0224333D01*
X0189395Y0255633D02*
X0186695Y0258333D01*
X0234595Y0245433D02*
X0236695Y0243333D01*
X0256695Y0238333D02*
X0266695Y0238333D01*
X0269295Y0235733D01*
X0272795Y0230333D02*
X0264695Y0230333D01*
X0261695Y0233333D01*
X0256795Y0233633D02*
X0256795Y0231133D01*
X0266695Y0228233D02*
X0266895Y0228233D01*
X0269295Y0225833D01*
X0272795Y0230333D02*
X0276495Y0226633D01*
X0285695Y0243333D02*
X0266695Y0243333D01*
X0263795Y0245433D02*
X0276095Y0245433D01*
X0281395Y0250733D01*
X0280395Y0255433D02*
X0271595Y0246633D01*
X0263395Y0246633D01*
X0261595Y0248433D01*
X0263795Y0245433D02*
X0261795Y0243433D01*
X0285695Y0243333D02*
X0289295Y0246933D01*
X0286395Y0209933D02*
X0281995Y0209933D01*
X0286395Y0209933D02*
X0295595Y0200733D01*
X0295595Y0188433D01*
X0287495Y0180333D01*
X0287495Y0139733D01*
X0280895Y0133133D01*
X0242495Y0166333D02*
X0266695Y0190533D01*
X0266695Y0193333D01*
X0264195Y0196533D02*
X0264195Y0189933D01*
X0241795Y0167533D01*
X0232395Y0167533D01*
X0209895Y0145033D01*
X0209895Y0111233D01*
X0200695Y0102033D01*
X0198495Y0106733D02*
X0205695Y0113933D01*
X0207795Y0117833D02*
X0207795Y0144933D01*
X0231595Y0168733D01*
X0241195Y0168733D01*
X0261695Y0189233D01*
X0261695Y0193333D01*
X0264195Y0196533D02*
X0262095Y0198633D01*
X0256595Y0198533D02*
X0256595Y0187633D01*
X0244595Y0201133D02*
X0247095Y0203633D01*
X0246695Y0208333D02*
X0250595Y0212233D01*
X0250595Y0214533D01*
X0249495Y0215633D01*
X0245195Y0215633D01*
X0242495Y0166333D02*
X0233195Y0166333D01*
X0212195Y0145333D01*
X0212195Y0118833D01*
X0200995Y0119733D02*
X0200995Y0119933D01*
X0200995Y0119733D02*
X0197295Y0116033D01*
X0197295Y0090633D01*
X0199995Y0088833D02*
X0199995Y0093233D01*
X0198495Y0094733D01*
X0198495Y0106733D01*
X0197295Y0119933D02*
X0196995Y0120233D01*
X0196995Y0136933D01*
X0195095Y0155033D02*
X0192295Y0155033D01*
X0192245Y0154983D01*
X0100311Y0073977D02*
X0083395Y0073977D01*
X0088295Y0073977D01*
X0088295Y0074575D02*
X0083395Y0074575D01*
X0099014Y0074575D01*
D17*
X0111295Y0092733D03*
X0111295Y0096733D03*
X0111395Y0100733D03*
X0111195Y0104733D03*
X0111095Y0108733D03*
X0111195Y0112733D03*
X0141995Y0110033D03*
X0163895Y0109933D03*
X0183195Y0110933D03*
X0190295Y0123333D03*
X0197295Y0119933D03*
X0200995Y0119933D03*
X0202995Y0115133D03*
X0207795Y0117833D03*
X0212195Y0118833D03*
X0213895Y0112933D03*
X0224295Y0113733D03*
X0235495Y0119533D03*
X0243295Y0133133D03*
X0238395Y0147033D03*
X0229995Y0148033D03*
X0222395Y0148133D03*
X0217995Y0147533D03*
X0217995Y0133033D03*
X0224695Y0134133D03*
X0200995Y0136533D03*
X0197195Y0141933D03*
X0199795Y0144233D03*
X0191395Y0146633D03*
X0189995Y0143033D03*
X0192245Y0154983D03*
X0194595Y0157733D03*
X0175195Y0167833D03*
X0164695Y0175333D03*
X0181695Y0183333D03*
X0186695Y0183333D03*
X0186695Y0178333D03*
X0176695Y0193333D03*
X0176695Y0198333D03*
X0176695Y0203333D03*
X0181695Y0198333D03*
X0168095Y0210933D03*
X0160195Y0214833D03*
X0162695Y0223233D03*
X0157695Y0224833D03*
X0154795Y0228933D03*
X0159495Y0234133D03*
X0165695Y0231333D03*
X0171295Y0230533D03*
X0175095Y0225533D03*
X0186695Y0233333D03*
X0191795Y0223133D03*
X0196695Y0233433D03*
X0206695Y0233333D03*
X0206695Y0238333D03*
X0206695Y0243333D03*
X0206695Y0248333D03*
X0211695Y0248333D03*
X0201695Y0248333D03*
X0201695Y0253333D03*
X0196695Y0253333D03*
X0186695Y0258333D03*
X0175695Y0258333D03*
X0175695Y0264333D03*
X0172695Y0251733D03*
X0150095Y0276533D03*
X0158595Y0280833D03*
X0162695Y0288333D03*
X0163495Y0305333D03*
X0142495Y0308533D03*
X0122895Y0306433D03*
X0115095Y0293733D03*
X0140095Y0274433D03*
X0134695Y0228833D03*
X0127195Y0228833D03*
X0119495Y0223433D03*
X0109695Y0223333D03*
X0106695Y0229833D03*
X0104495Y0224133D03*
X0104495Y0224133D03*
X0114495Y0208333D03*
X0119495Y0206933D03*
X0124995Y0206133D03*
X0129195Y0208333D03*
X0139695Y0208333D03*
X0124795Y0181333D03*
X0114495Y0186933D03*
X0104495Y0187033D03*
X0195095Y0096233D03*
X0194995Y0092833D03*
X0197295Y0090633D03*
X0199995Y0088833D03*
X0205895Y0080233D03*
X0209395Y0080233D03*
X0213295Y0080233D03*
X0222795Y0089233D03*
X0213895Y0098233D03*
X0200695Y0098733D03*
X0200695Y0102033D03*
X0172495Y0067733D03*
X0144395Y0071633D03*
X0135695Y0071433D03*
X0122995Y0074533D03*
X0201695Y0193333D03*
X0201695Y0198333D03*
X0201695Y0203333D03*
X0201695Y0208333D03*
X0201695Y0213333D03*
X0206895Y0218533D03*
X0211695Y0218333D03*
X0216695Y0213333D03*
X0216695Y0208333D03*
X0216695Y0203333D03*
X0211695Y0203333D03*
X0216695Y0193333D03*
X0221695Y0193333D03*
X0221695Y0198333D03*
X0226695Y0193333D03*
X0231695Y0198333D03*
X0236695Y0198333D03*
X0236695Y0193333D03*
X0246895Y0198433D03*
X0251695Y0198533D03*
X0251695Y0203333D03*
X0247095Y0203633D03*
X0246695Y0208333D03*
X0251795Y0208433D03*
X0246195Y0213533D03*
X0236595Y0213433D03*
X0231695Y0213333D03*
X0231695Y0218333D03*
X0236895Y0218433D03*
X0236695Y0208333D03*
X0226695Y0208333D03*
X0221695Y0208333D03*
X0226695Y0213333D03*
X0221695Y0218333D03*
X0226695Y0203333D03*
X0236695Y0228733D03*
X0236695Y0243333D03*
X0236695Y0248333D03*
X0241695Y0248333D03*
X0241695Y0243333D03*
X0246695Y0248333D03*
X0251695Y0248333D03*
X0256695Y0248333D03*
X0256695Y0243433D03*
X0256695Y0238333D03*
X0261795Y0243433D03*
X0261595Y0248433D03*
X0266695Y0248833D03*
X0266695Y0243333D03*
X0271695Y0238333D03*
X0271695Y0233633D03*
X0266595Y0233533D03*
X0266695Y0228233D03*
X0271395Y0228233D03*
X0271595Y0223133D03*
X0281195Y0223333D03*
X0289295Y0223233D03*
X0289295Y0230933D03*
X0289295Y0238933D03*
X0286595Y0240733D03*
X0289295Y0246933D03*
X0281395Y0250733D03*
X0280395Y0255433D03*
X0271495Y0253333D03*
X0266695Y0253333D03*
X0266695Y0257833D03*
X0256195Y0258333D03*
X0247195Y0258333D03*
X0251695Y0238333D03*
X0256795Y0233633D03*
X0261695Y0233333D03*
X0251695Y0228333D03*
X0256695Y0208233D03*
X0261695Y0208333D03*
X0262095Y0203633D03*
X0256695Y0203333D03*
X0256595Y0198533D03*
X0262095Y0198633D03*
X0261695Y0193333D03*
X0266695Y0193333D03*
X0271695Y0193333D03*
X0271195Y0188333D03*
X0261695Y0178333D03*
X0261695Y0173233D03*
X0266395Y0173233D03*
X0266695Y0168333D03*
X0266695Y0159333D03*
X0274695Y0159433D03*
X0282395Y0159433D03*
X0274795Y0147633D03*
X0266595Y0147233D03*
X0258395Y0147533D03*
X0250995Y0147033D03*
X0258695Y0159233D03*
X0284995Y0146633D03*
X0293895Y0136433D03*
X0291095Y0134633D03*
X0292695Y0125333D03*
X0292695Y0121333D03*
X0296695Y0121333D03*
X0296695Y0125333D03*
X0288795Y0115433D03*
X0283795Y0116233D03*
X0313995Y0129833D03*
X0302995Y0144233D03*
X0271195Y0203433D03*
X0271695Y0209233D03*
X0281995Y0209933D03*
X0312195Y0222933D03*
X0307395Y0276733D03*
X0307395Y0279733D03*
X0307395Y0282833D03*
X0305695Y0287933D03*
X0302595Y0287933D03*
X0297295Y0282733D03*
X0301595Y0310233D03*
X0226695Y0258333D03*
X0221695Y0258333D03*
X0216695Y0258333D03*
X0206695Y0258333D03*
X0203995Y0306533D03*
X0221695Y0332633D03*
X0203995Y0335933D03*
X0136495Y0345233D03*
X0122895Y0329733D03*
D18*
X0222095Y0326533D03*
X0227095Y0315333D03*
X0234195Y0341633D03*
X0289195Y0255033D03*
X0251695Y0233333D03*
X0241695Y0233333D03*
X0206695Y0193333D03*
X0206695Y0188333D03*
X0143695Y0185833D03*
X0134195Y0185833D03*
X0216295Y0095833D03*
X0285195Y0179333D03*
X0292795Y0199333D03*
X0307295Y0214333D03*
D19*
X0239195Y0130533D03*
X0196995Y0081833D03*
X0191295Y0073933D03*
X0173595Y0081433D03*
X0110795Y0081933D03*
X0097495Y0087533D03*
X0099295Y0116733D03*
X0313995Y0103933D03*
D20*
X0261695Y0266333D03*
X0309495Y0321033D03*
D21*
X0314095Y0178833D03*
D22*
X0315795Y0180533D01*
X0315795Y0286633D01*
X0299617Y0302811D01*
X0275695Y0302811D01*
D23*
X0250095Y0294633D02*
X0239495Y0305233D01*
X0239495Y0322233D01*
X0229095Y0332633D01*
X0221695Y0332633D01*
X0250095Y0294633D02*
X0250095Y0270633D01*
X0231895Y0252433D01*
X0231895Y0243133D01*
X0241695Y0233333D01*
X0285195Y0179333D02*
X0285195Y0146833D01*
X0284995Y0146633D01*
X0302995Y0144233D02*
X0306795Y0144233D01*
X0313995Y0137033D01*
X0313995Y0129833D01*
D24*
X0292795Y0199333D02*
X0284395Y0199333D01*
X0277495Y0206233D01*
X0270795Y0206233D01*
X0265895Y0211133D01*
X0261895Y0211133D01*
X0252095Y0220933D01*
X0247795Y0220933D01*
X0241695Y0227033D01*
X0241695Y0233333D01*
X0251695Y0233333D02*
X0265695Y0219333D01*
X0290895Y0219333D01*
X0295895Y0214333D01*
X0307295Y0214333D01*
M02*
